<svg width="1202" height="662" viewBox="0 0 1202 662" fill="none" preserveAspectRatio="none" xmlns="http://www.w3.org/2000/svg">
<path d="M285.895 5.17456C199.166 -1.86988 26.7162 25.3685 1 10.81C1 144.341 14.2556 394.655 9.06782 434.536C1 496.558 23.5958 566.225 9.06782 659.125C62.6852 653.646 141.094 646.926 232.984 659.125C305.497 668.752 861.117 638.17 959.558 638.17C1030.36 638.17 1144.17 638.473 1199.3 646.926C1205.18 553.627 1194.33 448.786 1189.49 365.38C1183.44 261.122 1184.02 68.5641 1199.3 5.17445C1177.61 5.17445 858.71 -4.21809 760.384 5.17448C662.057 14.567 372.624 12.219 285.895 5.17456Z" fill="white" stroke="#FF5685"/>
</svg>
