<svg width="501" height="522" viewBox="0 0 501 522" fill="none" xmlns="http://www.w3.org/2000/svg">
<path d="M275.244 521.659C133.571 521.659 17.9991 344.659 17.9998 228.159C18.0004 111.658 157.744 -10.0485 275.244 0.658754C407.141 12.6778 483 77.6587 476 192.159C468.069 321.89 458.744 521.659 275.244 521.659Z" fill="#3B5AFA" fill-opacity="0.1"/>
<path d="M481.245 285.658C526.271 234.526 482.902 144.001 444.744 80.6589C406.587 17.3166 274.386 17.3214 181.744 40.6587C116.244 57.1587 48.2446 90.6586 17.7447 162.158C-19.6693 249.866 7.99998 377.159 77.0001 447.659C146 518.159 272.158 498.646 335.5 477.659C398.842 456.672 436.219 336.789 481.245 285.658Z" stroke="#3B5AFA"/>
<path d="M116.912 142.324V109.612L138.684 105.479L186.375 112.022L188.103 102.725H227.5V109.612H242.015H289.36L296.272 100.659L310.787 105.479L327.721 112.022L332.559 102.725L351.221 105.479L386.125 107.201L392 117.187L388.89 136.814V177.446L368.5 187.777V226.295L363.316 236.281L305.603 237.659L286.25 227.673L266.206 237.659L257.912 229.395L248.581 237.659L237.176 227.673L206.419 234.215L204.346 226.295L179.463 232.494H141.103L134.882 212.569L141.103 203.961V181.578L123.478 177.446L110 149.555L116.912 142.324Z" fill="#3B5AFA"/>
<path d="M132.875 144.659V139.409H145.625C145.75 139.159 145.938 138.659 146.188 137.909C146.312 137.409 146.438 137.034 146.562 136.784L153.688 137.159C153.562 137.409 153.438 137.659 153.312 137.909C153.312 138.284 153.125 138.784 152.75 139.409H177.312V144.659H150.5L149.375 146.909H173V152.159C170.5 154.409 167.938 156.284 165.312 157.784C168.688 158.534 172.75 158.971 177.5 159.096C176.5 160.971 175.625 162.846 174.875 164.721C167.5 163.721 161.688 162.471 157.438 160.971C153.188 162.471 147.5 163.909 140.375 165.284C140.25 165.034 140.125 164.721 140 164.346C139.625 163.221 138.875 161.721 137.75 159.846L134.375 162.284C134.125 161.534 133.688 160.596 133.062 159.471C132.438 158.096 132 157.034 131.75 156.284C137.125 152.784 140.938 148.909 143.188 144.659H132.875ZM134 138.471V131.534H140L138.5 128.534L145.25 127.784C145.375 128.034 145.562 128.409 145.812 128.909C146.062 129.284 146.5 130.159 147.125 131.534H152.562L151.062 128.159L157.812 127.409C158.062 127.784 158.375 128.471 158.75 129.471C159.125 130.346 159.375 131.034 159.5 131.534H163.812C163.938 131.284 164.125 130.909 164.375 130.409C164.75 129.659 165.25 128.596 165.875 127.221L172.625 128.346L170.75 131.534H176.188V138.471H169.625V136.409H140.375V138.471H134ZM135.5 127.596C135.375 127.221 135.25 126.721 135.125 126.096C135 125.471 134.688 124.221 134.188 122.346C146.938 122.346 160.375 122.034 174.5 121.409L175.625 126.659C172.875 126.784 169 126.909 164 127.034C151.625 127.284 142.125 127.471 135.5 127.596ZM137.938 159.659C142.812 159.284 146.875 158.721 150.125 157.971C148.25 156.721 146.375 155.284 144.5 153.659C142.75 155.909 140.562 157.909 137.938 159.659ZM164 151.784H151.062C153.062 153.284 155.188 154.534 157.438 155.534C159.812 154.409 162 153.159 164 151.784ZM184.062 165.096V125.534H195.875C196 124.909 196.188 124.034 196.438 122.909C196.688 121.659 196.875 120.784 197 120.284L205.438 120.659C205.188 121.409 204.812 122.534 204.312 124.034C204.188 124.659 204.062 125.159 203.938 125.534H221.938V165.096H214.625V162.284H191.188V165.096H184.062ZM191.188 141.846V146.346H214.625V141.846H191.188ZM191.188 131.534V136.221H214.625V131.534H191.188ZM191.188 151.971V156.659H214.625V151.971H191.188ZM240.125 163.409C234.75 163.409 232.062 160.909 232.062 155.909V137.346H261.5V128.909H230.938V122.346H269V143.909H239.375V153.659C239.25 156.159 240.375 157.346 242.75 157.221H260.75C263.875 157.346 265.5 156.284 265.625 154.034C266 151.534 266.25 149.409 266.375 147.659C268.875 148.409 271.312 149.096 273.688 149.721C273.312 153.096 272.812 155.846 272.188 157.971C271.312 161.721 268.375 163.534 263.375 163.409H240.125ZM280.062 165.096V125.534H291.875C292 124.909 292.188 124.034 292.438 122.909C292.688 121.659 292.875 120.784 293 120.284L301.438 120.659C301.188 121.409 300.812 122.534 300.312 124.034C300.188 124.659 300.062 125.159 299.938 125.534H317.938V165.096H310.625V162.284H287.188V165.096H280.062ZM287.188 141.846V146.346H310.625V141.846H287.188ZM287.188 131.534V136.221H310.625V131.534H287.188ZM287.188 151.971V156.659H310.625V151.971H287.188ZM328.625 164.909V144.096C328.125 144.971 327.312 146.284 326.188 148.034C325.812 148.659 325.5 149.096 325.25 149.346C325.125 148.471 324.938 147.096 324.688 145.221C324.312 142.971 324.062 141.284 323.938 140.159C327.188 134.284 329.812 127.659 331.812 120.284L338.562 121.971C338.438 122.221 338.312 122.721 338.188 123.471C337.938 124.096 337.75 124.596 337.625 124.971H349.625L348.312 120.846L356.188 120.284L357.312 124.971H369.5V130.784H337.625V125.159C337.375 125.909 337 126.971 336.5 128.346C335.875 129.846 335.438 130.971 335.188 131.721V164.909H328.625ZM339.125 164.909V147.659H367.438V164.909H360.875V162.659H345.5V164.909H339.125ZM339.312 138.096V133.034H367.25V138.096H339.312ZM339.312 145.409V140.346H367.25V145.409H339.312ZM345.5 153.284V157.409H360.875V153.284H345.5ZM156.688 195.596V189.221H163.625V184.534C161.75 184.784 159.75 184.909 157.625 184.909C157.375 182.409 157.125 180.346 156.875 178.721C162.5 178.596 168.75 178.159 175.625 177.409L176.75 183.409C174.625 183.784 172.438 184.034 170.188 184.159V189.221H176.938V195.596H170.188V197.659L177.125 202.721L173.75 208.346C172.625 207.346 171.438 206.221 170.188 204.971V220.909H163.625V204.971C161.875 208.221 160.062 211.284 158.188 214.159L156.125 206.471C158.875 202.971 161.062 199.346 162.688 195.596H156.688ZM195.312 220.909C194.938 219.784 194.562 218.534 194.188 217.159C189.188 217.409 184.5 217.721 180.125 218.096C179.125 218.221 177.938 218.471 176.562 218.846C176.688 218.846 176.5 218.909 176 219.034L172.625 213.784C174.25 212.284 175.5 210.471 176.375 208.346C180 198.471 182.875 187.971 185 176.846L192.688 177.971C189.188 190.471 185.562 201.846 181.812 212.096C184.812 211.846 188.312 211.659 192.312 211.534C190.938 206.784 189.5 202.096 188 197.471L194.188 195.596C197.312 203.846 199.875 211.596 201.875 218.846L195.312 220.909ZM206.375 186.409V181.159H212V176.284H218.188V181.159H223.062V184.721C223.562 184.096 224.25 182.971 225.125 181.346C225.375 180.846 225.562 180.471 225.688 180.221L230.375 182.846C230.125 183.221 229.812 183.659 229.438 184.159C228.688 185.659 227.562 187.471 226.062 189.596H227.562V192.784C229.938 188.159 231.688 182.659 232.812 176.284L239.375 176.846C238.875 179.096 238.312 181.221 237.688 183.221H249.5V189.784H246.688C245.938 197.284 244.312 203.409 241.812 208.159C243.812 210.534 246.5 212.721 249.875 214.721C249.75 214.846 249.625 215.096 249.5 215.471C248 217.471 246.875 219.284 246.125 220.909C242.75 218.534 240 216.159 237.875 213.784C236.125 215.659 233.125 218.221 228.875 221.471C228.25 220.721 228.062 220.471 228.312 220.721C226.688 218.721 225.375 217.159 224.375 216.034C228.625 213.534 231.875 210.909 234.125 208.159C232.875 205.534 231.812 202.471 230.938 198.971C230.812 199.221 230.562 199.721 230.188 200.471C229.812 201.096 229.5 201.596 229.25 201.971C229 201.596 228.688 200.909 228.312 199.909C227.438 197.784 226.75 196.284 226.25 195.409L226.438 194.846H221.938C221.688 195.096 221.312 195.534 220.812 196.159C220.312 196.659 219.938 197.096 219.688 197.471H226.062V202.346L221.188 206.471L228.125 205.721C228.125 207.471 228.125 209.284 228.125 211.159C225.75 211.534 223.25 211.784 220.625 211.909V214.534C220.625 218.159 218.938 220.159 215.562 220.534C215.062 220.534 214.125 220.534 212.75 220.534C211 220.659 209.688 220.721 208.812 220.721C208.688 220.346 208.625 219.909 208.625 219.409C208.25 217.909 207.938 216.659 207.688 215.659C209.438 215.659 211.062 215.659 212.562 215.659C214.062 215.659 214.75 214.971 214.625 213.596V212.471C211.25 212.721 208 213.034 204.875 213.409L204.5 207.971L214.625 207.034V205.721L218.75 202.534H213.875C211.75 204.159 209.375 205.846 206.75 207.596C206.5 207.221 206.125 206.659 205.625 205.909C204.875 204.534 204.25 203.471 203.75 202.721C204.375 202.346 205.25 201.846 206.375 201.221C207 200.846 207.438 200.596 207.688 200.471V197.471H211.812C212.938 196.721 213.938 195.846 214.812 194.846H204.688V189.596H212V186.409H206.375ZM235.062 190.909C235.562 195.409 236.562 199.159 238.062 202.159C239.562 198.784 240.5 194.659 240.875 189.784H235.438C235.438 190.159 235.312 190.534 235.062 190.909ZM219.688 189.596C220.438 188.596 221.188 187.534 221.938 186.409H218.188V189.596H219.688ZM268.812 183.784V177.784H297.312V183.784H285.688L284.938 187.721H296V209.284H289.812V193.534H275.75V209.659H269.375V187.721H277.812L278.562 183.784H268.812ZM252.5 185.659V179.284H267.688V185.659H263.375V205.909L267.875 204.971C267.875 208.096 267.938 210.409 268.062 211.909C265.562 212.534 261 213.721 254.375 215.471C253.75 215.596 253.25 215.659 252.875 215.659L251.938 208.534C253.438 208.159 255.062 207.784 256.812 207.409V185.659H252.5ZM293.938 220.909C290.188 217.909 286.438 215.409 282.688 213.409C280.188 216.534 275.5 219.159 268.625 221.284C267.375 218.909 266.312 217.034 265.438 215.659C275.062 213.284 279.688 209.471 279.312 204.221L279.5 195.409H286.062L285.688 204.221C285.688 205.471 285.5 206.721 285.125 207.971C290 210.721 294.375 213.346 298.25 215.846L293.938 220.909ZM304.25 221.096V178.534H341.562V221.096H334.438V218.096H311.562V221.096H304.25ZM311.562 184.721V190.159H334.438V184.721H311.562ZM311.562 207.034V212.284H334.438V207.034H311.562ZM311.562 195.971V201.221H334.438V195.971H311.562Z" fill="white"/>
<path d="M165.464 292.667V295.675H172.984C170.904 297.147 168.184 298.363 164.824 299.291L166.328 302.267C171.128 300.539 174.808 298.331 177.4 295.675H183C185.08 298.331 188.44 300.507 193.048 302.171L194.488 299.131C191.16 298.267 188.568 297.115 186.712 295.675H193.784V292.667H179.704C180.088 292.027 180.408 291.355 180.696 290.651C182.936 290.523 185.144 290.427 187.256 290.299C187.928 290.939 188.536 291.579 189.112 292.219L191.896 290.299C190.232 288.571 187.832 286.523 184.728 284.187L182.168 285.819C182.936 286.427 183.64 287.035 184.344 287.643C181.176 287.835 177.944 287.995 174.68 288.123C176.28 286.971 177.848 285.659 179.384 284.187L176.088 283.067C172.696 286.267 170.104 287.963 168.344 288.155L168.824 291.035C171.736 290.971 174.552 290.875 177.24 290.779C176.92 291.419 176.568 292.059 176.12 292.667H165.464ZM179.384 296.123C177.496 298.363 174.52 300.155 170.456 301.499L171.928 304.091C176.472 302.491 179.8 300.379 181.976 297.691L179.384 296.123ZM187.672 301.115C185.048 305.627 178.968 308.859 169.4 310.843L171.32 313.467C181.208 311.387 187.64 307.707 190.584 302.459L187.672 301.115ZM183.448 298.811C180.248 302.619 175.704 304.987 169.784 305.947L171.64 308.475C177.304 307.451 182.104 304.827 186.04 300.539L183.448 298.811ZM225.144 287.803H214.04V312.507H217.24V310.555H221.88V312.507H225.144V287.803ZM217.24 307.355V290.971H221.88V307.355H217.24ZM202.072 283.451V289.563H197.336V292.827H202.072C201.912 301.147 200.088 307.195 196.6 311.003L199.128 313.243C203.096 308.891 205.208 302.107 205.4 292.827H208.504C208.44 301.275 208.344 306.235 208.184 307.675C207.96 309.019 207.224 309.723 206.008 309.723C205.208 309.723 204.28 309.659 203.192 309.531L204.024 312.571C205.176 312.699 206.04 312.763 206.552 312.763C209.368 312.763 210.968 311.579 211.288 309.243C211.608 306.747 211.768 300.187 211.768 289.563H205.4V283.451H202.072ZM241.784 291.131C239.672 299.195 235.288 305.371 228.664 309.723L230.712 312.603C237.112 308.443 241.368 302.555 243.544 294.971L243.64 295.259C247.064 303.835 251.256 309.627 256.216 312.571L258.296 309.915C253.496 306.843 249.592 301.595 246.552 294.171C244.44 288.827 242.072 285.211 239.448 283.355L236.664 285.147C238.648 286.555 240.344 288.539 241.784 291.131ZM285.144 312.731C287.672 312.731 288.952 311.451 288.952 308.923V284.699H273.784V287.771H285.688V307.995C285.688 309.115 285.272 309.691 284.472 309.691L281.688 309.595L282.584 312.731H285.144ZM262.328 288.699V313.019H265.592V288.699H262.328ZM267.992 283.035L264.952 284.411C266.36 286.107 267.672 288.059 268.856 290.299L271.864 288.731C270.744 286.651 269.464 284.763 267.992 283.035ZM304.024 284.443V297.435H310.712V299.675H302.744V302.747H308.088C306.68 305.275 304.536 307.387 301.72 309.115L303.448 311.931C306.776 309.499 309.176 306.459 310.68 302.747H310.712V312.955H313.816V302.747H313.88C315.224 306.075 317.464 309.147 320.664 311.931L322.808 309.275C319.928 307.323 317.784 305.147 316.44 302.747H321.912V299.675H313.816V297.435H320.568V284.443H304.024ZM317.528 294.619H313.816V292.347H317.528V294.619ZM310.712 294.619H307.064V292.347H310.712V294.619ZM307.064 289.659V287.323H310.712V289.659H307.064ZM313.816 287.323H317.528V289.659H313.816V287.323ZM297.368 283.611L295 285.883C297.272 287.547 299.032 289.083 300.248 290.555L302.52 288.251C301.112 286.715 299.384 285.147 297.368 283.611ZM292.824 292.827V296.027H296.984V307.131C296.984 307.803 296.696 308.379 296.12 308.827L297.4 311.803C299.416 310.395 301.336 308.795 303.16 307.003L302.296 303.579C301.56 304.315 300.856 304.987 300.184 305.627V292.827H292.824Z" fill="#3B5AFA"/>
<path d="M163.672 315.739H323.672V318.299H163.672V315.739Z" fill="#3B5AFA"/>
<path d="M165.652 379.611V396.891H167.924V375.899C169.172 373.531 170.196 371.003 171.028 368.347L168.948 367.387C167.476 372.667 165.076 377.339 161.748 381.435L162.42 383.739C163.572 382.427 164.66 381.051 165.652 379.611ZM170.484 372.987V375.227H176.724C175.188 381.115 172.66 385.915 169.076 389.627L170.26 391.611C174.196 387.355 176.98 381.883 178.58 375.227H178.964V388.059H174.068V390.267H178.964V396.859H181.236V390.267H186.196V388.059H181.236V375.227H181.62C183.092 381.147 185.812 386.491 189.716 391.227L191.22 389.339C187.508 385.211 184.916 380.507 183.444 375.227H189.972V372.987H181.236V367.483H178.964V372.987H170.484ZM209.556 376.923V378.907H218.548V376.923C219.636 378.107 220.852 379.227 222.228 380.283L223.476 378.363C219.508 375.291 216.692 371.739 215.092 367.643H212.98C211.06 372.091 208.276 375.707 204.692 378.491L205.908 380.347C207.188 379.355 208.404 378.203 209.556 376.923ZM218.452 376.795H209.652C211.316 374.875 212.756 372.571 214.036 369.883C215.124 372.379 216.596 374.683 218.452 376.795ZM205.62 393.531V395.739H223.092V393.531H218.26C219.54 390.011 220.596 385.979 221.492 381.435L219.284 380.891C218.324 385.915 217.236 390.139 216.02 393.531H205.62ZM208.564 381.819L206.58 382.491C207.7 385.371 208.628 388.347 209.332 391.483L211.316 391.003C210.484 387.547 209.588 384.475 208.564 381.819ZM213.492 380.891L211.508 381.499C212.468 384.251 213.236 387.131 213.812 390.107L215.828 389.627C215.124 386.331 214.356 383.419 213.492 380.891ZM202.036 371.099L200.628 382.171H196.852L198.132 373.371L196.02 373.243L194.516 384.219H202.676C202.676 389.083 202.484 391.995 202.164 393.019C201.844 393.979 200.916 394.491 199.38 394.491C198.932 394.491 198.132 394.427 197.012 394.299L197.62 396.347C198.388 396.411 199.156 396.443 199.892 396.443C201.908 396.443 203.22 395.867 203.86 394.779C204.468 393.659 204.788 389.467 204.788 382.171H202.804L204.34 368.987H194.292V371.099H202.036ZM200.852 387.067C198.74 387.835 196.244 388.443 193.428 388.923L193.716 391.099C196.372 390.587 198.74 389.947 200.852 389.147V387.067ZM228.404 373.403V375.387H237.492C237.076 376.091 236.596 376.827 236.084 377.563H226.676V379.611H234.484C232.212 382.299 229.332 384.795 225.844 387.163L227.092 389.147C229.076 387.803 230.868 386.363 232.5 384.891V396.891H234.708V395.515H249.172V396.891H251.38V381.819H235.508C236.116 381.115 236.692 380.379 237.268 379.611H254.58V377.563H238.676C239.092 376.859 239.508 376.155 239.892 375.387H252.724V373.403H240.82C241.14 372.603 241.46 371.771 241.748 370.907C245.78 370.587 249.3 370.107 252.34 369.435L251.284 367.611C245.3 368.827 237.78 369.435 228.692 369.435L229.364 371.355C233.012 371.355 236.404 371.259 239.54 371.067C239.22 371.835 238.9 372.635 238.548 373.403H228.404ZM234.708 387.643H249.172V389.659H234.708V387.643ZM249.172 385.851H234.708V383.707H249.172V385.851ZM234.708 391.451H249.172V393.627H234.708V391.451ZM269.428 373.051H264.276C264.916 371.451 265.396 369.691 265.78 367.803L263.476 367.483C263.188 369.403 262.74 371.259 262.1 373.051H259.124V395.803H261.364V393.051H267.188V394.875H269.428V373.051ZM261.364 390.907V383.899H267.188V390.907H261.364ZM261.364 381.819V375.227H267.188V381.819H261.364ZM274.996 380.475L273.14 381.627C275.348 384.251 277.108 386.619 278.42 388.731L280.244 387.451C279.028 385.467 277.3 383.131 274.996 380.475ZM285.972 373.083H275.764C276.34 371.419 276.788 369.627 277.172 367.739L274.9 367.451C274.068 371.995 272.564 375.835 270.324 378.971L271.7 380.795C272.948 379.163 274.004 377.339 274.9 375.323H283.7C283.636 384.539 283.508 390.075 283.316 391.867C283.06 393.499 282.196 394.331 280.692 394.331C279.7 394.331 278.548 394.299 277.204 394.235L277.748 396.347C279.284 396.411 280.372 396.475 281.012 396.475C283.7 396.475 285.172 395.227 285.492 392.795C285.812 390.299 285.972 383.707 285.972 373.083ZM313.748 368.859H294.9V386.491H297.204V371.099H311.412V386.459H313.748V368.859ZM302.964 373.243V379.259C302.836 383.291 301.908 386.587 300.18 389.115C298.324 391.547 295.028 393.499 290.292 394.971L291.54 396.923C296.308 395.419 299.732 393.339 301.812 390.683C303.956 387.835 305.108 384.027 305.236 379.259V373.243H302.964ZM314.356 396.251C315.444 396.219 316.276 395.963 316.852 395.451C317.46 394.811 317.908 392.955 318.196 389.947L315.988 389.243C315.86 391.739 315.54 393.211 315.092 393.627C314.74 393.915 314.292 394.075 313.748 394.075H308.724C307.764 394.075 307.316 393.467 307.316 392.315V384.155H305.044V392.731C305.044 395.067 306.036 396.251 308.084 396.251H314.356ZM205.428 421.051H200.276C200.916 419.451 201.396 417.691 201.78 415.803L199.476 415.483C199.188 417.403 198.74 419.259 198.1 421.051H195.124V443.803H197.364V441.051H203.188V442.875H205.428V421.051ZM197.364 438.907V431.899H203.188V438.907H197.364ZM197.364 429.819V423.227H203.188V429.819H197.364ZM210.996 428.475L209.14 429.627C211.348 432.251 213.108 434.619 214.42 436.731L216.244 435.451C215.028 433.467 213.3 431.131 210.996 428.475ZM221.972 421.083H211.764C212.34 419.419 212.788 417.627 213.172 415.739L210.9 415.451C210.068 419.995 208.564 423.835 206.324 426.971L207.7 428.795C208.948 427.163 210.004 425.339 210.9 423.323H219.7C219.636 432.539 219.508 438.075 219.316 439.867C219.06 441.499 218.196 442.331 216.692 442.331C215.7 442.331 214.548 442.299 213.204 442.235L213.748 444.347C215.284 444.411 216.372 444.475 217.012 444.475C219.7 444.475 221.172 443.227 221.492 440.795C221.812 438.299 221.972 431.707 221.972 421.083ZM238.804 415.483V419.515H228.404V422.779H238.804V427.419H226.484V430.683H236.116C233.876 434.587 230.42 437.787 225.812 440.347L227.732 443.515C232.82 440.155 236.5 435.867 238.772 430.683H238.804V444.923H242.196V430.683H242.26C244.34 435.355 247.892 439.643 252.948 443.483L255.316 440.475C250.484 437.595 246.996 434.331 244.884 430.683H254.516V427.419H242.196V422.779H252.82V419.515H242.196V415.483H238.804ZM265.108 422.651L262.164 424.059C263.156 425.499 264.084 427.163 264.98 429.051H258.42V432.283H268.18C266.26 435.419 262.644 438.299 257.396 440.891L259.252 443.899C264.884 440.731 268.724 436.955 270.804 432.539V444.955H274.196V432.571C276.404 436.699 280.116 440.475 285.3 443.867L287.604 440.987C282.612 438.427 278.996 435.515 276.756 432.283H286.516V429.051H280.052C281.076 427.419 282.004 425.595 282.836 423.579L279.572 422.427C278.772 424.763 277.844 426.971 276.756 429.051H274.196V422.043H285.62V418.811H274.196V415.483H270.804V418.811H259.668V422.043H270.804V429.051H265.684L267.956 427.899C267.028 425.979 266.068 424.219 265.108 422.651Z" fill="#3B5AFA"/>
</svg>
