<svg width="1213" height="537" viewBox="0 0 1213 537" fill="none" preserveAspectRatio="none" xmlns="http://www.w3.org/2000/svg">
<path d="M43.3041 54.6445C9.30422 107.645 15.3041 439.645 43.3042 501.645C71.3043 563.645 1199.8 529.145 1207.3 492.645C1214.8 456.145 1215.9 98.9529 1194.3 51.6448C1173.3 5.64485 1051.8 7.14452 867.803 25.1446C725.34 39.0813 93.3263 -23.3316 43.3041 54.6445Z" fill="#FFDBDB" stroke="#FF5685"/>
<path d="M23.9999 42.448C-9.99998 95.448 -4.00013 427.449 24 489.448C52.0001 551.448 1180.5 516.948 1188 480.448C1195.5 443.948 1196.6 86.7564 1175 39.4483C1154 -6.55168 1032.5 -5.05201 848.499 12.9481C706.036 26.8848 74.0221 -35.5281 23.9999 42.448Z" fill="white" stroke="#FF5685"/>
</svg>
