<svg width="469" height="83" viewBox="0 0 469 83" fill="none" xmlns="http://www.w3.org/2000/svg">
<path d="M311.5 10.4546C343.84 13.1965 377.125 14.017 366.536 66.0467C383.983 59.3465 394.54 51.8468 399.98 45.4702C398.801 45.5213 397.638 45.5149 396.5 45.4479C386.941 44.8857 385 36.9479 388 31.9479C391.801 25.6134 402.799 26.3687 404.5 34.4479C405.069 37.1494 403.76 41.0386 399.98 45.4702C412.89 44.9104 427.749 37.4526 433.525 27.0443C429.266 27.3371 425.266 27.1545 422 26.4546C415 24.9546 411.32 18.267 417 11.4479C422.68 4.62884 436 6.7676 436 17.9479C436 21.1462 435.1 24.205 433.525 27.0443C427.749 37.4526 412.89 44.9104 399.98 45.4702C394.54 51.8468 383.983 59.3465 366.536 66.0467C353.469 71.0647 336.539 75.6343 315 78.9479C276 84.9479 69.3282 81.4035 29 73.448C-3.33149 67.0699 -3.99996 22.9479 26.0001 7.44794C54.6939 -7.3772 277.987 7.61333 311.5 10.4546Z" fill="#FFDBDB"/>
<path d="M366.5 66.2217C377.2 14.0189 343.877 13.1996 311.5 10.4546C277.987 7.61333 54.6939 -7.37719 26.0001 7.44794C-3.99996 22.9479 -3.33149 67.0699 29 73.448C69.3282 81.4035 276 84.9479 315 78.9479C385.286 68.1348 406.5 43.9479 404.5 34.4479C402.799 26.3687 391.801 25.6134 388 31.9479C385 36.9479 386.941 44.8857 396.5 45.4479C413.5 46.4479 436 33.9413 436 17.9479C436 6.7676 422.68 4.62884 417 11.4479C411.32 18.267 415 24.9546 422 26.4546C437.5 29.776 469.5 21.4479 467.5 5.94794" stroke="#FF5685"/>
<path d="M341.052 10.46C311.491 2.3873 48.4475 -2.55109 20.3895 10.46C-7.66854 23.471 -3.15956 52.7619 20.3893 63.9744C43.9383 75.1869 312.994 69.5806 339.048 63.9744C365.102 58.3681 370.613 18.5326 341.052 10.46Z" fill="white" stroke="#FF5685"/>
</svg>
