<svg width="350" height="44" viewBox="0 0 350 44" fill="none" xmlns="http://www.w3.org/2000/svg">
<path d="M39.1783 30.666C39.229 32.2542 38.8525 33.827 38.0877 35.2222C37.3228 36.6175 36.1973 37.7845 34.8274 38.6029C32.0397 40.2145 28.849 41.0058 25.6265 40.8847H0L6.03741 36.8369V6.80582L0.528897 2.75802H25.6265C28.8606 2.65012 32.0567 3.47723 34.8274 5.13907C36.2031 5.95115 37.3333 7.11688 38.099 8.51359C38.8646 9.9103 39.2375 11.4864 39.1783 13.0759V30.666ZM36.3043 29.6739V12.0938C36.3428 10.7597 36.0042 9.4416 35.3268 8.28935C34.6494 7.13709 33.6604 6.19689 32.4723 5.5756C30.0854 4.27176 27.3907 3.6277 24.6685 3.71044H5.40872L6.98543 4.86128V36.9064L5.31891 38.0473H24.6685C27.3849 38.1449 30.0784 37.5217 32.4723 36.2417C33.658 35.6279 34.6461 34.6949 35.3237 33.5493C36.0014 32.4037 36.3412 31.0917 36.3043 29.7632V29.6739ZM25.1475 26.7869C25.1475 29.0687 23.3912 30.2097 19.8785 30.2097H18.1521V11.6175L19.8785 11.5679C23.3912 11.5679 25.1475 12.7188 25.1475 15.0006V26.7869ZM24.1496 27.779V15.9531C24.1496 14.9609 23.0918 14.4649 20.9862 14.4252V29.2374C23.1318 29.2374 24.1895 28.7711 24.1895 27.7195L24.1496 27.779Z" fill="#FF5685"/>
<path d="M90.5312 40.9046H70.0339V28.9993C70.0339 27.7592 69.4352 27.1441 68.2576 27.1441C68.098 27.1441 67.8784 27.1441 67.589 27.1937H66.8605V40.9046H45.8444L51.8319 36.8568V6.80586L46.3633 2.75806H71.4709C76.088 2.75806 79.4543 3.64765 81.5699 5.42683C83.8784 7.36475 85.0293 10.5726 85.0227 15.0503C85.0838 16.1973 84.8578 17.3415 84.3649 18.3803C83.8721 19.4192 83.1277 20.3203 82.1986 21.0029C83.1127 21.5286 83.8613 22.2973 84.3602 23.2227C84.859 24.148 85.0885 25.1934 85.0227 26.2413V36.9064L90.5312 40.9046ZM83.7254 38.0473L82.1487 36.9064V25.2888C82.1964 24.5658 82.0336 23.8444 81.6796 23.2109C81.3256 22.5775 80.7956 22.0589 80.1528 21.7172C78.8091 21.1595 77.416 20.7277 75.9915 20.4275C77.5005 19.887 78.946 19.1851 80.3025 18.3342C80.914 17.8156 81.3962 17.1632 81.7114 16.4282C82.0265 15.6932 82.1659 14.8955 82.1187 14.0979C82.1187 10.1294 81.1607 7.38128 79.2447 5.85343C77.5083 4.4248 74.5977 3.71048 70.5129 3.71048H51.2531L52.8298 4.86133V36.9064L51.1533 38.0473H63.9965V24.3364H65.2439C65.7828 24.3364 66.2418 24.2868 66.4813 24.2868C69.4817 24.2868 70.9853 25.5402 70.9919 28.0469V38.0473H83.7254ZM71.8501 14.3856C71.8624 14.7895 71.7616 15.1889 71.5589 15.5392C71.3563 15.8896 71.0598 16.1771 70.7025 16.3698C70.0164 16.7991 69.2177 17.0166 68.4073 16.9948H63.9965V11.6176H68.3574C69.2147 11.6081 70.0531 11.8685 70.7524 12.3617C71.0957 12.5759 71.3773 12.875 71.5697 13.2297C71.7621 13.5844 71.8587 13.9827 71.8501 14.3856ZM70.8522 15.3777C70.8522 14.8023 70.3433 14.5145 69.3254 14.5145H66.8605V16.0424H69.3054C70.1437 16.0027 70.6526 15.7745 70.8522 15.338V15.3777Z" fill="#FF5685"/>
<path d="M111.268 35.1405C111.256 36.0693 110.998 36.9784 110.52 37.7763C110.041 38.5741 109.36 39.2323 108.544 39.6844C106.916 40.6827 105.042 41.2114 103.13 41.2114C101.218 41.2114 99.3434 40.6827 97.7162 39.6844C96.8945 39.2303 96.2086 38.5678 95.7283 37.7644C95.248 36.961 94.9905 36.0453 94.9819 35.1108C94.9828 34.1759 95.2373 33.2587 95.7185 32.4555C96.1997 31.6524 96.8898 30.9931 97.7162 30.5471C99.3434 29.5487 101.218 29.02 103.13 29.02C105.042 29.02 106.916 29.5487 108.544 30.5471C109.373 30.9959 110.065 31.6603 110.545 32.4692C111.025 33.2782 111.274 34.2014 111.268 35.1405ZM108.394 34.1484C108.369 33.4587 108.144 32.7908 107.746 32.2256C107.347 31.6604 106.792 31.2221 106.149 30.9638C104.925 30.2988 103.551 29.9572 102.157 29.9716C100.764 29.9675 99.3923 30.3085 98.1653 30.9638C97.534 31.2351 96.9923 31.6778 96.6022 32.241C96.2122 32.8042 95.9896 33.4653 95.9599 34.1484C95.9863 34.8275 96.2082 35.4847 96.5991 36.0421C96.99 36.5996 97.5336 37.0339 98.1653 37.2934C99.3821 37.9808 100.757 38.3431 102.157 38.345C103.558 38.3538 104.936 37.9908 106.149 37.2934C106.783 37.0437 107.331 36.6184 107.729 36.0679C108.127 35.5175 108.358 34.8651 108.394 34.1881V34.1484Z" fill="#FF5685"/>
<path d="M155.336 17.4314C155.336 20.2886 153.756 22.7656 150.596 24.8622C148.006 26.651 144.937 27.6288 141.784 27.6699H137.134V36.9064L142.642 40.8749H116.108L122.195 36.8271V6.80588L116.687 2.75807H141.784C145.001 2.66319 148.178 3.4897 150.935 5.13913C152.314 5.95125 153.45 7.11556 154.224 8.51121C154.998 9.90686 155.382 11.483 155.336 13.076V17.4314ZM152.462 16.4392V12.0938C152.494 10.7614 152.148 9.44695 151.463 8.30115C150.778 7.15534 149.782 6.22452 148.59 5.61535C146.225 4.28936 143.54 3.63072 140.826 3.7105H121.566L123.153 4.86134V36.9064L121.427 38.0474H135.847L134.26 36.9064V24.8027H140.826C143.468 24.7466 146.041 23.9524 148.251 22.511C151.058 20.7715 152.462 18.7608 152.462 16.4789V16.4392ZM141.784 14.1078C141.788 14.4874 141.706 14.863 141.544 15.2066C141.381 15.5502 141.143 15.8529 140.846 16.092C140.251 16.6269 139.473 16.9176 138.671 16.9055H134.26V11.6176H138.711C139.486 11.6028 140.246 11.8282 140.886 12.2625C141.186 12.4733 141.427 12.7575 141.584 13.0878C141.741 13.418 141.81 13.783 141.784 14.1475V14.1078ZM140.786 15.0999C140.786 14.6832 140.387 14.4749 139.589 14.4749H137.094V16.0027H139.589C140.427 16.0027 140.826 15.6952 140.826 15.0999H140.786Z" fill="#FF5685"/>
<path d="M198.157 44L193.466 40.9046H163.19L168.898 36.6187V7.09357L163.15 2.75806H191.311L196.011 0V17.5206L192.319 15.0999V29.2374H193.466L198.157 26.4298V44ZM195.283 39.476V28.8604L193.087 30.1899H181.012C180.953 28.92 180.913 27.908 180.913 27.1441C180.913 26.5389 180.913 25.7651 181.012 24.8126H187.239L189.445 26.2909V15.6158L187.239 16.9551H180.963C181.092 15.1783 181.092 13.3944 180.963 11.6176H190.942L193.137 13.0462V2.43067L190.942 3.71048H167.99L169.906 5.18873V36.6187L167.99 38.0474H193.137L195.283 39.476ZM189.974 29.2374L187.609 27.6699H183.777V29.2374H189.974ZM190.213 14.4749H183.936V16.0027H187.609L190.213 14.4749Z" fill="#FF5685"/>
<path d="M250.947 2.75806L244.909 6.80586V40.9046H234.71L226.727 29.5747V36.9064L232.236 40.8749H205.681L211.669 36.8271V6.80586L206.21 2.75806H223.175L229.831 13.2347V6.80586L224.322 2.75806H250.947ZM243.712 3.75016H229.292L230.878 4.90101V18.8501L221.249 3.71048H211.14L212.676 4.86133V36.9064L211 38.0473H225.42L223.833 36.9064V22.5705L234.76 38.0473H242.035V4.86133L243.712 3.75016Z" fill="#FF5685"/>
<path d="M300.573 2.75806L294.536 6.80586V40.9046H284.337L276.354 29.5747V36.9064L281.862 40.8749H255.307L261.295 36.8271V6.80586L255.826 2.75806H272.791L279.457 13.2347V6.80586L273.949 2.75806H300.573ZM293.338 3.75016H278.918L280.505 4.90101V18.8501L270.875 3.71048H260.766L262.303 4.86133V36.9064L260.626 38.0473H275.036L273.43 36.9064V22.5705L284.407 38.0473H291.692V4.86133L293.338 3.75016Z" fill="#FF5685"/>
<path d="M350 2.75806L344.012 6.80586V17.4313C343.991 18.5171 343.694 19.58 343.15 20.5216C342.606 21.4632 341.832 22.2532 340.899 22.8185C339.099 24.0841 337.035 24.9317 334.862 25.2988V37.2041L340.29 40.9046H314.225L319.873 37.1445V25.3384C317.697 25.0099 315.628 24.1773 313.835 22.9078C312.925 22.3065 312.177 21.4932 311.655 20.5388C311.133 19.5843 310.854 18.5176 310.842 17.4313V6.80586L305.363 2.75806H325.82V16.0027C325.82 16.6377 326.389 16.9948 327.537 16.9948C328.535 16.9948 329.024 16.6773 329.024 16.0027V2.75806H350ZM342.765 3.75016H329.932V15.0503C329.95 15.4537 329.869 15.8555 329.695 16.2205C329.521 16.5854 329.26 16.9024 328.934 17.1436C328.244 17.6582 327.401 17.9273 326.539 17.9075C325.673 17.9254 324.822 17.6759 324.104 17.1932C323.733 16.971 323.426 16.6565 323.215 16.2808C323.003 15.905 322.893 15.481 322.897 15.0503V3.71048H310.203L311.78 4.86133V16.4789C311.78 18.3838 312.867 19.9017 315.033 21.0525C316.84 21.9638 318.81 22.5132 320.831 22.6697V37.2437L319.583 38.0473H333.235L331.998 37.2437V22.7193C334.011 22.4508 335.967 21.8541 337.785 20.9533C339.991 19.8124 341.099 18.3143 341.099 16.4789V4.86133L342.765 3.75016Z" fill="#FF5685"/>
</svg>
