<svg width="522" height="105" viewBox="0 0 522 105" fill="none" xmlns="http://www.w3.org/2000/svg">
<path d="M23.0672 13C2.6956 26.5191 -6.722 54.7742 8.56738 77C23.8568 99.2258 470.695 113.741 493.567 95.4998C516.44 77.2586 529.118 37.6984 504.567 22.5C473.067 2.99961 47.2029 -3.01706 23.0672 13Z" fill="#FFF3F0" stroke="#3B5AFA"/>
<path d="M6.30139 18.7664C-5.19859 32.2664 3.56773 71.1944 29.5001 89.4998C55.4325 107.805 468.5 106.082 506.5 89.4998C518 84.4817 526.249 41.2298 516 26.5C506.773 13.2387 17.8014 5.2663 6.30139 18.7664Z" fill="white" stroke="#3B5AFA"/>
<path d="M451.802 7.40413C451.802 4.24092 457.301 -0.511251 464.302 5.81516C466.802 1.31519 472.302 -2.68481 476.302 2.31519C480.376 7.40844 470.393 28.0805 465.302 26.8152C460.211 25.5499 451.802 14.8152 451.802 7.40413Z" fill="#FF5685"/>
<path d="M474.802 15.4172C474.802 12.9172 480.802 10.4172 486.302 15.4172C488.468 12.9172 493.302 8.81716 495.302 12.4172C497.802 16.9172 494.802 30.4171 490.802 29.4171C486.802 28.4171 474.802 21.4171 474.802 15.4172Z" fill="#3B5AFA"/>
<path d="M55.5504 53.224V77.992H60.5424V46.12C62.5584 42.76 64.1904 39.208 65.4384 35.464L60.7824 33.256C58.3824 40.6 54.7344 46.984 49.7904 52.408L51.4704 57.784C52.9104 56.296 54.2544 54.76 55.5504 53.224ZM88.4304 52.696L84.0144 54.184C86.1744 59.512 88.1424 65.656 89.8704 72.568L94.2864 70.6C92.6544 64.264 90.6864 58.264 88.4304 52.696ZM71.2944 43.72H87.9024C87.2304 45.832 86.4624 47.704 85.5024 49.336L90.3024 50.728C91.4064 47.896 92.3184 45.064 93.0384 42.184V38.92H73.0224C73.4544 37.528 73.8864 36.088 74.2704 34.648L69.5664 33.64C68.1264 39.64 65.6304 45.304 62.0784 50.632L66.3984 53.32C68.2224 50.44 69.8544 47.224 71.2944 43.72ZM76.6224 77.656C79.8864 77.656 81.5184 75.976 81.5184 72.664V47.032H76.6704V71.464C76.6704 72.664 76.0944 73.288 74.9424 73.288C73.2144 73.288 71.3424 73.144 69.4224 72.952L70.5264 77.656H76.6224ZM68.7984 53.224C66.8784 60.04 64.6704 65.656 62.1744 70.072L66.8784 71.752C69.4704 66.808 71.6304 61.048 73.3104 54.472L68.7984 53.224ZM116.414 41.368H109.118C109.982 39.16 110.702 36.712 111.23 34.12L106.19 33.448C105.806 36.184 105.182 38.824 104.318 41.368H99.7104V76.408H104.51V72.616H111.614V75.016H116.414V41.368ZM104.51 68.008V58.936H111.614V68.008H104.51ZM104.51 54.472V46.072H111.614V54.472H104.51ZM125.15 53.032L121.07 55.576C124.046 59.416 126.446 62.92 128.222 66.088L132.254 63.304C130.574 60.328 128.222 56.92 125.15 53.032ZM141.134 41.368H126.542C127.262 39.064 127.886 36.616 128.366 34.024L123.422 33.4C122.27 39.976 120.158 45.544 116.99 50.056L120.014 54.04C121.79 51.736 123.326 49.144 124.622 46.264H136.238C136.142 59.848 135.998 67.768 135.71 70.072C135.422 71.944 134.414 72.904 132.686 72.904C131.102 72.904 129.23 72.808 127.118 72.664L128.318 77.224C130.814 77.416 132.542 77.512 133.502 77.512C137.63 77.512 139.934 75.832 140.414 72.472C140.894 68.536 141.134 58.168 141.134 41.368ZM169.406 35.32V39.832H176.99C176.846 41.176 176.654 42.52 176.366 43.864H170.078V67.528H174.494V47.992H184.094V67.816H188.51V43.864H180.974C181.262 42.568 181.502 41.224 181.694 39.832H189.902V35.32H169.406ZM182.846 68.008L179.822 70.84C183.278 73.528 185.87 76.072 187.694 78.376L191.054 75.016C188.75 72.712 186.014 70.36 182.846 68.008ZM177.326 50.248V58.6C177.134 62.632 176.318 65.944 174.83 68.536C173.294 70.84 170.366 72.808 166.046 74.44L168.59 78.424C173.006 76.792 176.222 74.44 178.19 71.464C180.206 68.296 181.31 63.976 181.502 58.6V50.248H177.326ZM155.726 75.736C160.238 74.44 164.27 72.856 167.774 70.936L166.958 66.76C164.75 67.912 162.398 68.968 159.902 69.976V49.768H163.358V58.648C163.358 59.272 163.022 59.608 162.35 59.608C161.678 59.608 160.958 59.56 160.19 59.464L161.342 63.4C162.206 63.496 162.974 63.544 163.742 63.544C166.334 63.544 167.63 62.344 167.63 59.944V45.64H155.582V69.304C155.582 70.312 155.006 71.08 153.854 71.56L155.726 75.736ZM167.966 35.32H148.478V55.384C148.382 63.592 147.47 69.976 145.742 74.584L149.534 77.944C151.934 72.28 153.23 64.792 153.374 55.384V40.024H167.966V35.32ZM211.07 33.448V42.04H197.726V56.92C197.63 64.12 196.43 70.072 194.222 74.776L197.87 78.04C200.846 72.184 202.334 65.176 202.334 56.92V46.264H231.374C230.894 47.8 230.318 49.192 229.694 50.44L234.398 51.736C235.358 49.24 236.078 46.744 236.558 44.248V42.04H216.014V39.64H232.67V35.512H216.014V33.448H211.07ZM228.158 48.232L215.966 49.72V47.032H211.214V50.296L203.39 51.208L203.966 55.24L211.214 54.376V55.624C211.214 58.264 212.99 59.608 216.542 59.608H228.302C230.126 59.608 231.422 59.32 232.286 58.744C233.198 58.168 233.87 56.344 234.254 53.272L229.598 51.832C229.502 53.656 229.262 54.712 228.878 55C228.542 55.336 228.062 55.528 227.39 55.528H217.838C216.59 55.528 215.966 55.24 215.966 54.712V53.8L228.83 52.264L228.158 48.232ZM204.35 63.544C203.678 67.288 202.574 70.792 200.99 74.152L205.07 76.744C206.702 73.288 207.95 69.16 208.862 64.456L204.35 63.544ZM220.622 60.04L216.59 61.384C218.27 63.736 219.806 66.472 221.246 69.544L225.374 67.672C224.03 64.984 222.446 62.44 220.622 60.04ZM233.438 62.296L229.07 63.736C230.894 67.144 232.526 71.08 234.062 75.592L238.478 73.624C237.038 69.592 235.358 65.848 233.438 62.296ZM225.374 77.704C227.006 77.704 228.254 77.32 229.118 76.648C229.934 75.88 230.51 73.48 230.894 69.448L226.334 68.008C226.238 70.408 225.998 71.848 225.71 72.376C225.422 72.76 225.038 73 224.51 73H216.974C215.822 73 215.294 72.376 215.294 71.176V62.872H210.398V72.184C210.398 75.832 212.078 77.704 215.438 77.704H225.374ZM247.022 65.752C245.822 65.752 244.862 66.088 244.142 66.808C243.374 67.48 242.99 68.392 242.99 69.544C242.99 70.6 243.326 71.512 244.046 72.232C244.766 72.952 245.63 73.336 246.686 73.336C247.214 73.336 247.598 73.24 247.886 73.144C247.886 74.296 247.502 75.4 246.638 76.552C245.726 77.608 244.622 78.376 243.326 78.856V82.024C245.822 81.304 247.838 80.008 249.326 78.136C250.766 76.216 251.534 74.008 251.534 71.464C251.534 69.784 251.102 68.392 250.286 67.336C249.422 66.28 248.318 65.752 247.022 65.752ZM294.13 55.384C291.634 56.248 288.946 57.016 286.162 57.736V50.632H296.434C296.818 54.088 297.346 57.112 298.066 59.704C298.498 61.336 298.978 62.92 299.506 64.456C296.194 67.432 292.306 69.736 287.89 71.368L290.674 75.64C294.658 74.104 298.306 71.992 301.57 69.304C302.29 70.744 303.106 71.992 303.97 73.096C306.226 75.928 308.434 77.368 310.546 77.368C312.898 77.368 314.674 73.912 315.922 67.048L311.458 64.696C310.882 69.496 310.354 71.944 309.826 71.944C309.154 71.944 308.098 70.888 306.754 68.776C306.226 68.008 305.698 67 305.218 65.848C308.146 62.68 310.69 58.888 312.802 54.568L308.482 52.264C307.042 55.24 305.314 57.976 303.346 60.424C303.154 59.752 302.962 59.08 302.77 58.312C302.242 56.296 301.81 53.752 301.522 50.632H315.49V45.832H301.138C300.85 42.28 300.706 38.248 300.658 33.64H295.618C295.618 38.056 295.714 42.136 296.002 45.832H286.162V40.216C288.322 39.64 290.386 39.016 292.354 38.296L290.626 33.592C285.442 35.704 279.49 37.096 272.866 37.816L273.922 42.568C276.418 42.232 278.77 41.848 281.074 41.368V45.832H271.714V50.632H281.074V58.888C278.146 59.512 275.026 60.088 271.762 60.568L272.482 65.608C275.458 65.128 278.29 64.6 281.074 64.024V71.272C281.074 72.328 280.498 72.904 279.394 72.904C277.858 72.904 276.274 72.808 274.594 72.616L275.698 77.368H281.122C284.482 77.368 286.162 75.736 286.162 72.568V62.824C288.946 62.104 291.586 61.336 294.13 60.472V55.384ZM305.938 34.072L302.578 37.288C306.226 39.688 309.01 41.896 310.978 44.008L314.578 40.408C312.178 38.296 309.298 36.184 305.938 34.072ZM345.97 35.224V77.944H350.818V39.832H357.202C355.666 44.728 354.178 48.952 352.642 52.504C356.386 57.256 358.258 61.096 358.306 64.072C358.258 65.416 358.114 66.232 357.922 66.616C357.682 67 357.154 67.24 356.29 67.288C355.042 67.288 353.554 67.144 351.778 66.952L353.218 71.992C357.25 71.992 359.89 71.368 361.234 70.216C362.482 69.112 363.106 67.048 363.106 64.072C363.058 61.096 361.282 57.208 357.778 52.504C359.506 48.376 361.09 43.864 362.53 38.968V35.224H345.97ZM322.69 38.68V43.144H329.026V47.944H320.482V52.456H330.034C326.866 55.144 323.17 57.352 318.994 59.128L321.634 62.968C322.69 62.488 323.746 61.96 324.802 61.432V78.04H329.602V76.36H337.81V77.992H342.562V55.768H333.346C334.594 54.712 335.746 53.608 336.85 52.456H344.482V47.944H340.498C342.514 45.016 344.242 41.752 345.634 38.104L341.41 36.232C340.594 38.344 339.634 40.408 338.482 42.328V38.68H333.922V33.688H329.026V38.68H322.69ZM334.546 47.944H333.922V43.144H338.002C336.946 44.824 335.794 46.408 334.546 47.944ZM329.602 68.056H337.81V71.944H329.602V68.056ZM337.81 63.832H329.602V59.992H337.81V63.832Z" fill="#3F3F3F"/>
<path d="M381.922 36.136V40.072H388.114V42.664H392.578V40.072H401.218V41.848H405.73V40.072H411.874V36.136H405.73V33.448H401.218V36.136H392.578V33.496H388.114V36.136H381.922ZM383.458 48.28V51.928H394.594V53.32H384.706V66.712H394.594V68.296H383.026V71.992H394.594V73.384H381.394V77.32H411.778V73.384H399.25V71.992H410.53V68.296H399.25V66.712H409.33V53.32H399.25V51.928H411.394V48.28H399.25V46.6C403.426 46.312 407.122 45.976 410.29 45.496L408.178 41.992C401.602 42.904 393.538 43.384 384.034 43.384L385.282 46.936C388.546 46.936 391.666 46.888 394.594 46.792V48.28H383.458ZM404.722 63.352H399.25V61.624H404.722V63.352ZM394.594 63.352H389.314V61.624H394.594V63.352ZM389.314 58.408V56.68H394.594V58.408H389.314ZM399.25 56.68H404.722V58.408H399.25V56.68ZM368.626 43.048C368.53 47.56 367.954 51.88 366.946 56.008L370.738 57.064C371.698 52.744 372.226 48.136 372.322 43.336L368.626 43.048ZM380.866 41.656L377.986 42.616V33.688H373.09V77.848H377.986V44.104C378.85 47.704 379.57 51.448 380.194 55.336L383.698 54.472C382.834 49.672 381.922 45.4 380.866 41.656ZM421.378 59.272V78.088H426.226V54.184C427.858 52.168 429.202 50.008 430.258 47.704L425.938 45.688C423.634 50.392 420.13 54.52 415.378 58.072L416.866 62.824C418.45 61.672 419.938 60.52 421.378 59.272ZM425.794 33.448C423.49 37.768 419.938 41.56 415.138 44.776L416.674 49.624C422.962 45.4 427.378 40.648 429.97 35.464L425.794 33.448ZM432.418 35.032V51.256H456.034V35.032H432.418ZM451.234 47.32H437.17V44.968H451.234V47.32ZM437.17 41.272V38.968H451.234V41.272H437.17ZM430.546 53.752V58.072H448.354V60.712H428.818V65.08H448.354V71.848C448.354 72.808 447.778 73.336 446.674 73.336C445.234 73.336 443.746 73.192 442.114 73L443.17 77.704H448.402C451.666 77.704 453.298 76.12 453.298 73.048V65.08H459.73V60.712H453.298V58.072H458.626V53.752H430.546ZM436.546 65.512L432.946 68.104C435.346 70.648 437.266 72.952 438.658 75.064L442.45 72.472C441.106 70.456 439.138 68.104 436.546 65.512Z" fill="#3B5AFA"/>
</svg>
