<svg width="1198" height="754" viewBox="0 0 1198 754" fill="none" xmlns="http://www.w3.org/2000/svg">
<path d="M67.5 65.5C98 34 218 39 240.5 0.500015C259 32.5 287.5 58.5 292.5 91.5C297.5 124.5 287.877 164 280.5 178.5C266.305 206.401 247 213 227.5 217.5C198 224.308 154 199.87 116 228C78 256.13 52.5 350 13.5 342.5C-7.61886 338.438 -4 276.784 38 244.5C105 193 189 214 214 214C239 214 253.258 204.5 252 185C250 154 153 76 67.5 65.5Z" fill="#8FA7FE"/>
<path d="M46 223V195H70V202H52.5V223H46Z" fill="#FF5685"/>
<path d="M490 392V420H466V413H483.5V392H490Z" fill="#FEDDDE"/>
<path d="M46.5139 677H54.6981C55.0738 677.061 55.2667 677.253 55.2667 677.566C55.2667 677.879 55.1753 677.828 54.9926 677.828L55.2667 678.394L54.9926 678.96C55.0178 679.263 55.1115 679.556 55.2667 679.818L54.9926 681.202C54.9926 681.404 55.0839 681.505 55.2667 681.505L54.9926 682.889V683.192C54.9599 683.669 55.0545 684.147 55.2667 684.576C55.2667 690.145 52.5386 693.62 47.0825 695L46.788 694.434V691.323C48.6665 689.949 49.6109 688.444 49.6109 686.828V686.263H46.5646C46.4885 686.275 46.4106 686.269 46.3373 686.245C46.2639 686.222 46.1973 686.181 46.1428 686.127C46.0882 686.073 46.0474 686.006 46.0237 685.933C46 685.86 45.9939 685.783 46.0062 685.707V677.566C45.996 677.192 46.1788 677 46.5139 677ZM46.788 678.394V678.96L47.3465 678.687V678.96L46.788 679.818V680.101C46.788 680.303 46.8794 680.394 47.0825 680.394L46.788 680.96C46.981 681.515 47.1739 681.788 47.3465 681.788C48.3519 681.334 49.3023 680.768 50.1795 680.101H50.5247V680.96C48.0674 681.97 46.8388 682.616 46.8388 682.909V683.212H47.3973C49.5844 681.687 51.8483 680.275 54.1802 678.98L53.9162 678.414V678.131H54.4848V677.828H53.9162C53.9262 677.905 53.9183 677.983 53.8933 678.056C53.8682 678.129 53.8266 678.196 53.7717 678.25C53.7168 678.305 53.65 678.346 53.5764 678.371C53.5029 678.396 53.4246 678.404 53.3476 678.394V677.828C52.2785 677.775 51.2117 677.969 50.2303 678.394V677.828H49.3976C48.5074 677.907 47.6307 678.097 46.788 678.394V678.394ZM47.6511 684.313L46.788 683.747V684.02H47.0825L46.788 684.576V685.707H47.6511C48.7256 685.533 49.7249 685.048 50.5247 684.313L51.0934 684.576L50.2303 686V686.828L51.3574 686C51.5503 686 51.6519 686.091 51.6519 686.263C53.4999 685.253 54.4442 684.626 54.4848 684.313V684.02C54.4948 683.944 54.487 683.866 54.4619 683.793C54.4369 683.719 54.3953 683.653 54.3403 683.598C54.2854 683.544 54.2186 683.502 54.1451 683.477C54.0715 683.452 53.9933 683.445 53.9162 683.455L52.2205 684.576C52.144 684.587 52.0658 684.581 51.9922 684.558C51.9186 684.534 51.8515 684.494 51.7963 684.44C51.7411 684.386 51.6993 684.32 51.6742 684.247C51.6491 684.174 51.6415 684.096 51.6519 684.02C53.3171 683.232 54.2615 682.576 54.4848 682.061H54.1802L54.4848 681.505V680.939H53.9162L54.4848 680.081H54.1802L54.4848 679.515V679.253C53.5598 680.226 52.508 681.072 51.3574 681.768C48.8866 683.034 47.6511 683.882 47.6511 684.313V684.313ZM47.3465 693.313V694.141H47.6511L49.0422 693.01C49.0834 693.005 49.1252 693.01 49.1644 693.023C49.2036 693.037 49.2391 693.059 49.2685 693.088C49.2978 693.117 49.3201 693.153 49.3337 693.192C49.3473 693.231 49.3518 693.272 49.3469 693.313C51.6214 692.121 52.938 690.997 53.2968 689.939L52.7383 689.636C50.8579 690.737 49.0563 691.965 47.3465 693.313V693.313ZM48.7782 679.818V680.101C48.7882 680.178 48.7804 680.256 48.7553 680.329C48.7302 680.402 48.6886 680.468 48.6337 680.523C48.5788 680.578 48.512 680.619 48.4385 680.644C48.3649 680.669 48.2866 680.677 48.2096 680.667H47.9151C47.9151 680.384 48.1994 680.101 48.7782 679.818V679.818ZM48.2096 684.576H48.7782V684.879H48.2096V684.576ZM48.2096 691.061V691.323H48.4939C52.2611 689.606 54.1396 688.293 54.1396 687.394C50.3013 689.461 48.3247 690.684 48.2096 691.061ZM50.1795 678.687V679.253H49.6109C49.6718 678.879 49.8546 678.687 50.1795 678.687ZM50.1795 687.949V688.253L50.738 687.949C50.7792 687.945 50.8209 687.949 50.8601 687.963C50.8993 687.976 50.9349 687.998 50.9642 688.027C50.9936 688.057 51.0158 688.092 51.0294 688.131C51.043 688.17 51.0475 688.212 51.0426 688.253C52.4236 687.556 53.1851 687 53.2968 686.566L52.7383 686.263C51.7289 686.544 50.8338 687.135 50.1795 687.949V687.949ZM50.474 691.626H51.0426V691.889H50.5247L50.474 691.626ZM50.738 679.818H51.0426V680.374H50.738V679.818ZM51.3066 684.313H51.6011V684.879H51.3066V684.313ZM51.6011 679.263H52.4337V679.828C52.1403 679.855 51.8562 679.944 51.6011 680.091V679.263ZM52.7383 689.949V690.202C52.7483 690.279 52.7405 690.357 52.7154 690.43C52.6903 690.503 52.6488 690.569 52.5938 690.624C52.5389 690.679 52.4721 690.72 52.3986 690.745C52.3251 690.77 52.2467 690.778 52.1697 690.768H51.8752C51.8752 690.505 52.1595 690.202 52.7383 689.939V689.949ZM53.571 684.02V684.313C53.571 684.606 53.1851 684.98 52.4337 685.434V685.152C52.4337 684.869 52.8094 684.495 53.571 684.02ZM52.4337 686.566H52.7383V687.172H52.4337V686.566ZM53.0024 678.687H53.2968V679.253H53.0024V678.687ZM53.8654 686.263H54.4341V685.707C54.0482 685.768 53.8654 685.949 53.8654 686.263V686.263ZM59.5213 677H67.4314C67.8071 677.061 68 677.253 68 677.566V682.889C68 688.889 65.9252 692.737 61.7755 694.434C61.0728 694.515 60.3874 694.706 59.7447 695L59.4807 694.434V691.061C61.3558 689.714 62.2968 688.492 62.3035 687.394V686.263H58.9527V677.566C58.9933 677.192 59.1761 677 59.5213 677V677ZM62.9128 678.96H62.6081L63.1768 678.131H62.9128C61.8645 678.919 60.7261 679.58 59.5213 680.101V681.202L60.0798 680.939H60.3539V681.768C59.7955 681.768 59.5213 681.96 59.5213 682.333V682.889C60.5325 682.052 61.6793 681.393 62.9128 680.939C64.4674 680.359 65.8998 679.496 67.1369 678.394V678.131C66.8388 678.099 66.5531 677.995 66.3042 677.828C66.2631 677.823 66.2213 677.828 66.1821 677.841C66.1429 677.855 66.1073 677.877 66.078 677.906C66.0487 677.935 66.0264 677.971 66.0128 678.01C65.9992 678.049 65.9947 678.09 65.9996 678.131L64.6085 677.828H64.3039L62.9128 678.96ZM59.5213 677.828V678.96H59.7853C60.2567 678.524 60.8464 678.236 61.481 678.131V677.828H59.5213ZM65.9996 680.101C65.9996 680.471 63.8402 681.785 59.5213 684.04V685.727C61.1866 685.054 63.7251 683.37 67.1369 680.677V680.101H65.9996ZM60.0798 684.333H60.6789V684.596H60.1102L60.0798 684.333ZM61.481 685.455V685.727C62.0626 685.668 62.6492 685.77 63.1768 686.02C63.1768 685.768 63.7454 685.202 64.8725 684.333H65.167L64.0399 685.727C64.2125 685.727 64.3039 685.818 64.3039 686.02C63.5525 686.293 63.1768 686.576 63.1768 686.848C63.6177 687.076 64.1132 687.177 64.6085 687.141C64.6085 687.364 63.9383 687.828 62.5777 688.535L62.8823 689.101V689.394C62.3035 689.394 62.0192 689.586 62.0192 689.96H62.3137C62.6515 689.751 63.0434 689.646 63.4408 689.657L62.3137 690.788C62.4863 690.788 62.5777 690.879 62.5777 691.081C62.5418 691.076 62.5053 691.079 62.4709 691.09C62.4366 691.102 62.4054 691.121 62.3798 691.147C62.3542 691.172 62.3349 691.203 62.3234 691.237C62.3119 691.271 62.3086 691.308 62.3137 691.343L61.7451 691.081H61.4506V691.909L60.8819 691.646H60.3235L60.6789 692.222C60.4758 692.323 60.3844 692.98 60.3844 694.182C62.5269 692.677 63.7556 691.929 64.0703 691.929V691.364H64.3344L64.903 691.667L66.3347 688.848H66.0301C65.6544 688.848 65.4716 689.131 65.4716 689.677L64.903 689.414C64.7531 689.667 64.6629 689.95 64.639 690.242C64.3269 689.943 63.93 689.745 63.5017 689.677V689.414C65.9387 688.172 67.1674 687.131 67.1674 686.303L65.7559 687.172C65.5528 687.172 65.4615 687.081 65.4615 686.879L64.8928 687.172H64.6288L67.1572 684.929C67.1572 684.727 67.0658 684.626 66.883 684.626L67.1572 684.071V682.889L66.5886 683.192H66.3246L66.5886 682.626H66.3246C63.5017 684.505 61.8974 685.434 61.481 685.434V685.455ZM61.481 679.838H61.7755C61.7755 680.111 61.4912 680.384 60.9124 680.667V680.374C60.9733 680 61.1663 679.818 61.481 679.818V679.838ZM63.7454 689.939V690.768C63.668 690.78 63.5888 690.773 63.5142 690.749C63.4397 690.725 63.3719 690.684 63.3165 690.629C63.2611 690.574 63.2195 690.506 63.1952 690.432C63.171 690.358 63.1646 690.279 63.1768 690.202L63.7454 689.939ZM64.6085 685.141H64.8725V685.707H64.6085V685.141Z" fill="#FF5685"/>
<path d="M53.6015 31H54.1687V34.6893C52.4872 35.9943 51.6464 37.4256 51.6464 38.9833H54.4625C54.8373 39.0448 55.0298 39.2395 55.0298 39.5572V48.4219C55.0397 48.4996 55.0319 48.5786 55.0069 48.6529C54.9819 48.7271 54.9404 48.7945 54.8856 48.8499C54.8308 48.9054 54.7642 48.9473 54.6908 48.9726C54.6175 48.9979 54.5394 49.0058 54.4625 48.9958H46.5714C46.4946 49.0058 46.4165 48.9979 46.3431 48.9726C46.2698 48.9473 46.2031 48.9054 46.1483 48.8499C46.0936 48.7945 46.0521 48.7271 46.0271 48.6529C46.0021 48.5786 45.9942 48.4996 46.0042 48.4219V41.8426C46.0042 35.6732 48.5366 32.059 53.6015 31ZM51.6464 35.5604H51.3425C51.1703 35.5604 51.069 35.4682 51.069 35.2632C49.0431 36.6057 47.8478 37.3129 47.392 37.3129V37.8868H47.9491V38.6861C47.654 38.7223 47.3704 38.8238 47.1185 38.9833L47.392 39.5572C47.0579 40.1648 46.864 40.841 46.8247 41.5351C48.1024 41.1776 49.2122 40.371 49.9548 39.26H50.2181L49.9548 39.8237L51.069 39.26C50.9677 38.4914 50.6841 38.1122 50.208 38.1122V37.8458C50.7854 37.8458 51.069 37.6511 51.069 37.2719C50.8665 37.2719 50.7753 37.1796 50.7753 36.9747C52.082 35.4579 53.0038 34.6893 53.6015 34.6893V34.1257C52.2947 34.6586 51.6464 35.0993 51.6464 35.5604ZM50.7854 42.109C50.7954 42.0313 50.7875 41.9522 50.7625 41.878C50.7375 41.8038 50.696 41.7364 50.6413 41.681C50.5865 41.6255 50.5198 41.5835 50.4465 41.5583C50.3731 41.533 50.295 41.5251 50.2181 41.5351V41.8426C50.4106 41.8426 50.5119 41.9245 50.5119 42.109C49.2483 42.6416 48.0992 43.4178 47.1286 44.3943C47.3109 44.3943 47.4021 44.4866 47.4021 44.6915C47.0273 44.753 46.8348 44.9375 46.8348 45.2654V45.8291C47.4122 45.8291 47.6958 46.0238 47.6958 46.403V46.6694C47.3882 46.6985 47.0924 46.8041 46.8348 46.9769L47.1286 47.5405L46.8348 48.1144H47.1286L48.5265 47.2433H49.0937L48.8202 47.8172H49.0937C49.3988 47.5099 49.7926 47.3089 50.2181 47.2433V46.9769H49.9548C49.6873 47.1208 49.395 47.2112 49.0937 47.2433C50.4686 45.8958 52.1031 44.8493 53.8952 44.1689C53.9269 43.8627 54.02 43.5663 54.1687 43.2978L53.8952 42.7341C54.0838 42.3822 54.1781 41.9865 54.1687 41.5863V41.2482H53.6015L54.1687 40.3771H53.8952C52.9213 41.0628 51.879 41.6433 50.7854 42.109V42.109ZM47.9592 38.6861H48.2631V39.26H47.9592V38.6861ZM48.8202 36.9747V38.1122H48.2631V37.5486C48.3036 37.1489 48.486 36.9747 48.8202 36.9747ZM48.2631 45.5319H48.5265V46.1058H48.2631V45.5319ZM48.8202 38.1122H49.0937V38.6861H48.8202V38.1122ZM49.6509 36.4008V37.5486H49.3875C49.3544 37.2494 49.2539 36.9619 49.0937 36.7082L49.6509 36.4008ZM49.0937 44.958H49.3875V45.5319H49.0937V44.958ZM49.6509 37.5486H49.9548V38.1122H49.6509V37.5486ZM50.5119 35.8371V36.9747H50.2181C50.1906 36.6755 50.1008 36.3857 49.9548 36.1241L50.5119 35.8371ZM50.2181 44.1176H50.5119V44.6915H50.2181V44.1176ZM50.5119 33.2853C51.2046 32.7917 51.9659 32.4049 52.7708 32.1375V31.8403H52.4771C51.1703 32.4962 50.5119 32.9779 50.5119 33.2853ZM51.069 35.8371H51.3324V36.4008H51.069V35.8371ZM52.7708 39.8237C52.7708 40.2643 52.2947 40.5615 51.3425 40.6948V40.9715H51.6464C52.1431 40.5701 52.7205 40.2833 53.3381 40.1311V39.8237H52.7708ZM52.4771 41.8733H53.0342C53.0464 41.9501 53.0404 42.0288 53.0167 42.1028C52.993 42.1768 52.9523 42.2441 52.8979 42.2991C52.8436 42.3541 52.7771 42.3953 52.7039 42.4192C52.6307 42.4432 52.553 42.4493 52.4771 42.4369V41.8733ZM52.4771 47.848V48.1452H53.0342C53.2926 47.9757 53.5884 47.8736 53.8952 47.848V47.2741H53.6015C53.2924 47.5701 52.899 47.7602 52.4771 47.8172V47.848ZM52.7708 42.4369H53.0342V43.0108H52.7708V42.4369ZM66.8714 31H67.4286V34.4229C65.5579 36.0626 64.6192 37.3949 64.6125 38.4197V38.9833H67.4286C67.8034 39.0448 67.9958 39.2395 67.9958 39.5572V48.4219C68.0058 48.4996 67.9979 48.5786 67.9729 48.6529C67.9479 48.7271 67.9064 48.7945 67.8517 48.8499C67.7969 48.9054 67.7302 48.9473 67.6569 48.9726C67.5835 48.9979 67.5054 49.0058 67.4286 48.9958H59.5375C59.4606 49.0058 59.3825 48.9979 59.3092 48.9726C59.2358 48.9473 59.1692 48.9054 59.1144 48.8499C59.0596 48.7945 59.0181 48.7271 58.9931 48.6529C58.9681 48.5786 58.9603 48.4996 58.9702 48.4219V42.6829C58.9702 36.6365 60.9388 32.831 64.8759 31.2665L66.8714 31ZM59.7806 38.9833V39.26H60.6416C60.6416 38.8808 60.7328 38.6861 60.9151 38.6861L61.4723 38.9833C62.5039 38.4363 63.4551 37.7465 64.2985 36.9337L64.025 36.3598V36.1241C64.5821 36.1241 64.8556 35.9294 64.8556 35.5502H64.5922C61.452 37.4837 59.8549 38.628 59.8009 38.9833H59.7806ZM59.7806 40.3976C59.9832 40.9817 60.1655 41.2687 60.3479 41.2687C61.4871 40.3729 62.7202 39.6065 64.025 38.9833V38.4197C62.2827 39.7417 60.8746 40.3976 59.8009 40.3976H59.7806ZM59.7806 44.1176V44.3943C62.4143 42.8264 63.8325 41.8835 64.025 41.5351H63.7312C61.111 43.0245 59.8009 43.8854 59.8009 44.1176H59.7806ZM59.7806 46.6694V47.5405C59.8414 47.9197 60.0339 48.1144 60.3479 48.1144C64.8522 45.6754 67.1078 44.244 67.1145 43.8204V42.4062H66.8714C64.8013 43.8073 62.627 45.0442 60.3681 46.1058C60.3785 46.1832 60.3708 46.2619 60.3458 46.3358C60.3208 46.4097 60.2791 46.4766 60.2241 46.5314C60.169 46.5861 60.1021 46.6271 60.0286 46.651C59.9551 46.675 59.8772 46.6813 59.8009 46.6694H59.7806ZM59.7806 45.2654V45.8291C61.1076 45.1117 61.8066 44.6301 61.8066 44.3943H61.5027C61.0324 44.8477 60.4405 45.1507 59.8009 45.2654H59.7806ZM62.3536 34.4229L64.8759 32.9779H65.7369C65.7369 33.2034 63.9135 34.5356 60.3681 36.9747H60.6619C62.7936 35.9074 64.7788 34.5638 66.5675 32.9779H65.7369V32.7114H66.2636C66.061 32.1273 65.8787 31.8403 65.6964 31.8403C64.3914 32.4139 63.2441 33.3002 62.3536 34.4229V34.4229ZM60.3276 47.2433H60.8949C60.9048 47.3211 60.897 47.4001 60.872 47.4743C60.847 47.5485 60.8055 47.6159 60.7507 47.6714C60.6959 47.7268 60.6293 47.7688 60.5559 47.7941C60.4826 47.8194 60.4045 47.8273 60.3276 47.8172V47.2433ZM62.5865 40.6948C62.779 40.6948 62.8803 40.787 62.8803 40.9715C62.6777 40.9715 62.5865 41.0637 62.5865 41.2687L62.0193 40.9715C61.6445 41.0329 61.452 41.2174 61.452 41.5351C61.4931 41.5302 61.5348 41.5347 61.5739 41.5484C61.6129 41.5621 61.6485 41.5846 61.6777 41.6142C61.707 41.6438 61.7292 41.6797 61.7428 41.7193C61.7563 41.7588 61.7608 41.801 61.7559 41.8426C62.6871 41.1347 63.7095 40.5589 64.7948 40.1311V39.8237H64.2377V40.1311L63.6704 39.8237H63.4071C63.2247 39.8237 62.9208 40.1209 62.6271 40.6948H62.5865ZM66.527 45.2654C65.4019 46.3824 64.0602 47.2512 62.5865 47.8172V48.1144H62.8803L63.4476 47.8172C63.6983 47.9793 63.9825 48.0809 64.2782 48.1144C64.3289 47.7352 64.5213 47.5405 64.8353 47.5405V48.1144H65.6964C66.0712 48.1144 66.2636 47.8275 66.2636 47.2433H66.527V47.8172H67.0943V47.2433L66.8309 46.6694C66.8667 46.6746 66.9031 46.6712 66.9374 46.6596C66.9717 46.6481 67.0028 46.6286 67.0283 46.6027C67.0539 46.5769 67.0731 46.5454 67.0846 46.5107C67.096 46.4761 67.0993 46.4392 67.0943 46.403C67.0174 46.413 66.9393 46.4051 66.866 46.3798C66.7926 46.3546 66.726 46.3126 66.6712 46.2571C66.6164 46.2017 66.5749 46.1343 66.5499 46.0601C66.5249 45.9859 66.5171 45.9068 66.527 45.8291V45.5319H67.0943V45.2654H66.527ZM63.2247 40.1311H63.5286V40.6948H63.2247V40.1311ZM64.0857 47.2433H64.3592V47.8172H64.0857V47.2433ZM65.4431 41.2482L65.1798 41.8221L65.7369 41.5146H66.0104C65.0785 42.2935 64.6125 42.7751 64.6125 42.9596H64.8759C66.2029 42.2935 66.9018 41.8221 66.9018 41.5146L65.4431 41.2482ZM64.8759 46.6489H65.1798V47.2228H64.8759V46.6489ZM65.7369 46.0853H66.0104V46.6489H65.7369V46.0853ZM66.5675 42.9596V43.5335H66.0104C66.061 43.1748 66.2636 42.9801 66.5675 42.9801V42.9596ZM66.2636 46.3722H66.527V46.9461H66.2636V46.3722Z" fill="#FF5685"/>
<path d="M308 32C308 32 307.5 44 290 57L296 62C301 55 306.1 53 312.5 47C318.9 41 319.5 34.5 319.5 32H308Z" fill="#FFB950"/>
<path d="M392.969 179C392.969 179 378.077 179 373 171.474L378.077 166C378.077 166 385.185 171.474 395 170.105L392.969 179Z" fill="#FFFA80"/>
<path d="M199.196 513.732C199.196 513.732 165.543 502.317 159 489L159 502.317C159 502.317 176.761 520.39 202 528L199.196 513.732Z" fill="white"/>
<path d="M437 25C432.5 29 420 32 414 25L418 22.5C424 25.5 420.8 22.7 426 23.5C431.2 24.3 434.667 19.6667 437 18V25Z" fill="#8FA7FE"/>
<path d="M337.8 64.6097C337.8 64.6097 352.93 61.7258 366.723 74.7937L367.488 63.8089C367.488 63.8089 355.434 49.6331 334.878 48.0655L337.8 64.6097Z" fill="#FF5685"/>
<path d="M305 475.5C307.683 470.133 326 460 330 436L317.5 439C321.167 447.333 310 461.5 305 466C297.125 473.088 295.667 482.667 294 486L300.5 487C300.5 483.5 301.5 482.5 305 475.5Z" fill="#FFE8AE"/>
<path d="M289 203C288 207.5 285 211.5 277 211.5C285.8 219.5 288.667 227.833 289 231H297C297 231 290.167 211.167 289 203Z" fill="#C2D0FF"/>
<path d="M123.619 352.465L123.585 352.001H123.12H113.56H112.971L113.067 352.583C113.373 354.441 113.607 356.315 113.768 358.199H95.38H94.8693L94.8801 358.709C95.1267 370.348 94.9993 378.715 94.5023 383.828L94.5012 383.84L94.5006 383.852C94.2618 388.765 93.2554 393.581 91.5333 398.06L91.4167 398.363L91.6463 398.592L99.1463 406.098L99.6529 406.605L99.9538 405.954C101.164 403.339 102.214 400.626 103.098 397.838L104.089 400.611L104.202 400.926L104.536 400.942C106.828 401.052 109.12 400.778 111.343 400.128L116.191 405.422L116.486 405.744L116.845 405.495C118.494 404.349 120.079 403.079 121.588 401.694L121.605 401.679L121.62 401.662C122.218 401.005 122.858 400.406 123.534 399.87C124.582 401.712 125.644 403.154 126.724 404.178C127.902 405.294 129.131 405.939 130.409 406.019L130.409 406.019L130.415 406.02C132.082 406.103 133.688 405.401 135.222 404.018C136.751 402.64 138.238 400.561 139.692 397.813L139.799 397.611L139.716 397.398L135.586 386.794L135.179 385.749L134.674 386.75C133.991 388.102 133.384 389.183 132.852 389.998C132.313 390.823 131.874 391.339 131.538 391.598C131.371 391.727 131.264 391.764 131.213 391.772C131.182 391.776 131.172 391.774 131.148 391.754C131.107 391.721 131.033 391.635 130.953 391.44C130.887 391.281 130.826 391.072 130.774 390.807C133.461 385.919 135.648 380.674 137.289 375.183L137.408 374.785L137.038 374.595L128.418 370.177L127.854 369.888L127.704 370.504C127.287 372.222 126.758 373.899 126.121 375.518C125.703 373.253 125.39 371.269 125.183 369.579H136.06H136.56V369.079V365.349L139.356 363.296L139.674 363.062L139.521 362.699C138.521 360.326 137.141 357.439 135.384 354.039L135.373 354.017L135.36 353.997C134.935 353.341 134.571 352.632 134.275 351.882L134.083 351.395L133.605 351.609L125.735 355.144L125.299 355.34L125.475 355.784L126.514 358.411H124.143C123.915 356.108 123.74 354.119 123.619 352.465ZM104.855 383.045H107.086C107.227 385.946 106.992 387.883 106.46 388.95C106.19 389.491 105.87 389.755 105.526 389.854C105.229 389.94 104.841 389.922 104.338 389.739C104.619 386.241 104.793 384.004 104.855 383.045ZM115.07 371.665H104.88V369.579H114.821C114.903 370.137 114.988 370.835 115.07 371.665ZM118.644 389.297C117.937 390.22 117.108 390.991 116.193 391.583C116.428 388.453 116.579 384.817 116.647 380.675C117.223 383.576 117.889 386.452 118.644 389.297Z" fill="white" stroke="#FF2B66"/>
<path d="M173.497 352.776L173.551 352.259L173.032 352.226L162.752 351.566L162.72 352.065L162.221 352.04C162.027 355.901 161.555 359.735 160.81 363.5H157.918L161.015 360.37L161.312 360.07L161.067 359.727C158.997 356.833 156.72 354.151 154.262 351.71L153.884 351.335L153.533 351.736L147.163 359.029L146.846 359.393L147.198 359.723C148.422 360.871 149.507 362.213 150.421 363.713H146.6H146.1V364.213V375.264V375.764H146.6H158.086C155.123 384.103 150.404 391.408 144.38 396.989L144.047 397.298L144.323 397.659L151.073 406.495L151.402 406.927L151.805 406.563C157.368 401.535 162.098 394.603 166.006 385.787C168.256 388.061 170.345 390.549 172.253 393.227L172.615 393.735L173.032 393.271L178.79 386.87C178.731 387.537 178.658 388.149 178.569 388.705C178.259 390.644 177.78 391.809 177.221 392.356L177.184 392.391L177.156 392.433C176.771 393.001 175.941 393.464 174.485 393.714C173.047 393.961 171.095 393.981 168.615 393.759L167.883 393.693L168.09 394.398L171.27 405.225L171.372 405.571L171.732 405.584C175.756 405.726 179.001 405.467 181.447 404.785C183.86 404.113 185.565 403.008 186.415 401.4C186.965 400.77 187.411 399.844 187.777 398.667C188.155 397.452 188.459 395.93 188.693 394.108C189.163 390.467 189.36 385.579 189.29 379.456V364V363.5H188.79H172.087C172.665 359.866 173.136 356.291 173.497 352.776ZM178.928 384.403C177.004 381.842 174.899 379.475 172.634 377.328L172.256 376.97L171.914 377.362L167.367 382.56C168.233 380.397 169.055 378.132 169.833 375.764H178.94V381.002H178.94L178.94 381.011C178.963 382.238 178.959 383.368 178.928 384.403Z" fill="white" stroke="#FF2B66"/>
<path d="M225.139 352.09L225.165 351.565H224.64H214.7V352.065L214.223 351.916C213.969 352.729 213.776 353.566 213.646 354.417L213.646 354.417L213.644 354.426C213.5 355.497 213.236 356.54 212.86 357.527H199.14H198.64V358.027V405.968V406.468H199.14H208.33H208.83V405.968V404.925H230.14V405.744V406.244H230.64H239.26H239.758L239.76 405.746L239.95 358.029L239.952 357.527H239.45H224.346C224.782 355.756 225.049 353.932 225.139 352.09ZM208.83 370.122V368.907H230.14V370.122H208.83ZM230.14 382.045H208.83V380.842H230.14V382.045ZM230.14 394.204H208.83V393.213H230.14V394.204Z" fill="white" stroke="#FF2B66"/>
<path d="M254.251 350.702L253.748 350.554L253.624 351.064C251.379 360.333 249.08 366.821 246.745 370.582L246.65 370.735L246.674 370.913L248.554 384.827L248.643 385.484L249.25 385.219C249.838 384.962 250.362 384.572 250.8 384.083V405.52V406.02H251.3H260.49H260.99V405.52V363.619C261.024 363.494 261.064 363.357 261.11 363.208V367.535V368.035H261.61H293.3H293.8V367.535V358.027V357.527H293.3H282.087C281.669 355.287 281.06 353.102 280.268 351.005L280.106 350.578L279.666 350.7L270.106 353.351L269.577 353.498L269.773 354.011C270.204 355.14 270.537 356.318 270.765 357.527H262.654C262.866 356.803 263.113 355.993 263.397 355.091C263.524 354.692 263.596 354.273 263.61 353.849L263.622 353.462L263.251 353.353L254.251 350.702ZM261.86 386.475V386.975V405.52V406.02H262.36H271.36H271.86V405.52V404.925H282.67V405.52V406.02H283.17H292.36H292.86V405.52V386.975V386.475H292.36H262.36H261.86ZM263.86 368.579H263.36V369.079V376.372V376.872H263.86H291.05H291.55V376.372V369.079V368.579H291.05H263.86ZM291.36 377.915V377.415H290.86H263.86H263.36V377.915V385.208V385.708H263.86H290.86H291.36V385.208V377.915ZM271.86 395.748V394.981H282.67V395.748H271.86Z" fill="white" stroke="#FF2B66"/>
<path d="M307.21 351.789H306.768L306.714 352.228L305.808 359.518H301H300.5V360.018V404.86V405.36H301H309.46H309.96V404.86V403.157H320.71H321.21V402.657V381.141L322.375 382.64L322.808 383.197L323.19 382.604L323.212 382.57C324.539 386.276 325.543 389.405 326.227 391.959L326.375 392.512L326.903 392.291L334.688 389.031C334.738 390.505 334.603 391.673 334.304 392.552C333.964 393.554 333.422 394.157 332.708 394.455L332.63 394.487L332.568 394.542C332.569 394.542 332.569 394.542 332.568 394.542C332.566 394.544 332.534 394.565 332.45 394.593C332.354 394.626 332.217 394.659 332.034 394.689C331.668 394.749 331.158 394.79 330.496 394.808C329.175 394.845 327.302 394.79 324.871 394.641L324.855 394.64H324.84H324.09H323.437L323.607 395.271L326.417 405.651L326.509 405.989L326.858 406.019C330.446 406.319 333.433 406.251 335.806 405.799C338.161 405.351 339.96 404.516 341.121 403.238C342.409 402.104 343.313 400.303 343.884 397.912C344.459 395.502 344.71 392.441 344.65 388.739V359.135V358.635H344.15H333.953C334.264 357.643 334.569 356.605 334.881 355.513L334.893 355.471L334.897 355.426C334.955 354.856 335.072 354.298 335.246 353.763L335.429 353.198L334.841 353.114L325.661 351.794L325.214 351.73L325.105 352.168C324.125 356.093 322.82 359.891 321.21 363.509V360.018V359.518H320.71H316.387C316.734 355.71 316.966 353.324 317.086 352.35L317.155 351.789H316.59H307.21ZM330.329 374.56L330.079 374.142L329.655 374.381L327.322 375.692C328.26 374.014 329.106 372.267 329.855 370.462H334.65V383.314C333.43 380.255 331.985 377.326 330.329 374.56ZM309.96 375.424V370.674H311.77V375.424H309.96ZM309.96 391.777V387.028H311.77V391.777H309.96Z" fill="white" stroke="#FF2B66"/>
<path d="M377.681 353.705L377.781 353.194L377.267 353.115L367.327 351.571L367.25 352.065L366.757 351.984C366.24 355.122 365.588 358.227 364.803 361.285H351.12H350.62V361.785V372.165V372.665H351.12H361.699C360.476 376.512 359.048 380.263 357.424 383.897L357.225 384.341L357.665 384.552C363.017 387.11 366.9 389.104 369.329 390.538C365.767 392.865 360.202 394.473 352.565 395.315L351.734 395.406L352.208 396.095L358.588 405.368L358.759 405.616L359.058 405.581C366.217 404.753 373.061 401.746 378.918 396.869C382.673 399.326 386.185 402.272 389.387 405.652L389.787 406.074L390.144 405.616L396.704 397.215L396.928 396.929L396.724 396.627C395.938 395.467 394.588 394.052 392.704 392.388C390.885 390.783 388.548 388.927 385.696 386.822C387.873 382.42 389.446 377.642 390.358 372.665H396.5H397V372.165V362.009V361.509H396.5H375.789C376.533 358.948 377.165 356.343 377.681 353.705ZM375.011 380.576L374.983 380.558L374.952 380.545L370.9 378.751C371.715 376.771 372.437 374.739 373.063 372.665H379.753C379.036 375.704 377.96 378.608 376.559 381.291C376.025 381.118 375.506 380.879 375.011 380.576Z" fill="white" stroke="#FF2B66"/>
<path d="M429.85 352.301L429.862 351.789H429.35H419.41V352.289L418.91 352.295C418.981 358.692 418.731 365.089 418.163 371.451C416.687 382.781 411.15 391.257 401.536 396.925L401.115 397.173L401.354 397.599L406.414 406.659L406.681 407.138L407.133 406.828C416.05 400.723 422.277 392.973 425.794 383.581C429.04 392.11 434.629 399.484 442.541 405.701L443.005 406.066L443.289 405.548L449.099 394.945L449.342 394.499L448.894 394.262C443.165 391.236 437.851 384.582 432.993 374.169L432.989 374.159L432.984 374.15C430.672 369.696 429.604 362.44 429.85 352.301Z" fill="white" stroke="#FF2B66"/>
<path d="M455.14 408.619V409.165L455.684 409.117C459.083 408.815 461.717 407.694 463.512 405.695C465.305 403.7 466.199 400.9 466.26 397.364L466.26 397.364V397.355V387.411V386.911H465.76H455.64H455.14V387.411V399.123V399.623H455.64H459.724C459.526 400.404 459.152 401.103 458.646 401.643C457.781 402.557 456.706 403.115 455.578 403.257L455.14 403.312V403.753V408.619Z" fill="white" stroke="#FF2B66"/>
<path d="M96.8801 419.654H96.3801V420.154V428.266H92.9401H92.4401V428.766V439.146V439.646H92.9401H96.3801V445.331C96.1223 445.372 95.8675 445.436 95.6179 445.52C94.5954 445.732 93.5633 445.872 92.5271 445.94L92.0426 445.972L92.0604 446.457L92.4404 456.837L92.4617 457.418L93.0327 457.31C93.7096 457.183 94.8252 456.935 96.3801 456.568V462.345V462.39L96.388 462.434C96.4336 462.687 96.3993 462.845 96.3423 462.948C96.2853 463.052 96.1703 463.166 95.9319 463.264C95.4283 463.47 94.5356 463.537 93.1733 463.391L92.5007 463.319L92.6292 463.983L94.5092 473.703L94.5845 474.093L94.9811 474.108C98.9357 474.258 101.915 473.896 103.844 472.956C104.722 472.528 105.403 471.971 105.849 471.27C105.827 471.332 105.804 471.394 105.781 471.456L105.59 471.972L106.122 472.113L115.312 474.54L115.794 474.667L115.923 474.186C117.293 469.072 118.111 463.778 118.359 458.427H119.25V472.242V472.742H119.75H127.62H128.12V472.242V469.724L128.818 473.488L128.891 473.877L129.286 473.896C132.276 474.04 134.598 473.542 136.144 472.287C137.712 471.014 138.377 469.053 138.25 466.527V421.037V420.537H137.75H110H109.5V421.037V442.923L108.926 443.083L106.38 443.79V439.646H108.88H109.38V439.146V428.766V428.266H108.88H106.38V420.154V419.654H105.88H96.8801ZM109.253 453.819C108.836 459.777 107.891 465.033 106.423 469.594C106.467 469.173 106.452 468.73 106.38 468.267V454.766C107.601 454.405 108.557 454.084 109.253 453.819ZM129 459.694V459.757L129.016 459.819C129.196 460.516 129.074 460.78 128.972 460.876C128.87 460.971 128.626 461.067 128.12 461.025V458.427H129V459.694ZM118.38 434.676V432.577H119.25V434.676H118.38ZM119.25 447.294H118.38V444.948H119.25V447.294ZM128.12 434.676V432.577H129V434.676H128.12ZM128.12 447.294V444.948H129V447.294H128.12Z" fill="white" stroke="#FF2B66"/>
<path d="M161.6 419.43H161.269L161.14 419.734L159.389 423.848H145.1H144.6V424.348V434.068V434.568H145.1H155.123C151.854 440.013 147.922 444.858 143.453 448.945L143.194 449.182L143.328 449.506L147.638 459.886L147.907 460.534L148.432 460.068C149.931 458.737 151.155 457.614 152.1 456.699V473.832V474.332H152.6H161.22H161.72V473.832V463.729H176.5V464.289C176.5 464.29 176.5 464.291 176.5 464.291C176.499 464.293 176.497 464.296 176.493 464.302C176.477 464.323 176.433 464.367 176.329 464.422C176.116 464.534 175.747 464.64 175.184 464.715C174.068 464.864 172.358 464.87 170.032 464.721L169.302 464.674L169.523 465.371L172.183 473.76L172.286 474.082L172.623 474.107C177.638 474.477 181.343 474.176 183.654 473.127C184.824 472.596 185.673 471.856 186.128 470.882C186.574 469.925 186.606 468.812 186.29 467.583V435.399V434.899H185.79H166.766L166.952 434.568H190.47H190.97V434.068V424.348V423.848H190.47H170.515C170.905 422.564 171.398 421.327 171.987 420.154L172.351 419.43H171.54H161.6ZM176.66 444.832H161.72V444.288H176.66V444.832ZM176.5 454.363H161.91V453.785H176.5V454.363Z" fill="white" stroke="#FF2B66"/>
<path d="M214.14 419.206H213.64V419.706V422.304H199.89H199.39V422.804V432.301V432.801H199.89H213.64V433.156H196.7H196.2V433.656V443.081V443.581H196.7H205.483L205.836 445.279H198.58H198.08V445.779V455.5V456H198.58H213.64V456.543H196.33H195.83V457.043V466.763V467.263H196.33H213.64V474.056V474.556H214.14H223.33H223.83V474.056V467.263H240.76H241.26V466.763V456.996V456.496H240.76H223.64V455.952H239.26H239.76V455.452V445.732V445.232H239.26H231.111L231.578 443.581H240.76H241.26V443.081V433.844V433.344H240.76H223.83V432.801H237.76H238.26V432.301V422.804V422.304H237.76H223.64V419.706V419.206H223.14H214.14ZM216.045 445.232L215.697 443.581H221.729L221.262 445.232H216.045Z" fill="white" stroke="#FF2B66"/>
<path d="M292.67 446.215V445.715H292.17H266.737L266.321 445.172H291.05H291.55V444.672V429.874V429.374H291.05H266.11H265.61V429.874V444.242L263.733 441.788C264.205 441.104 264.594 440.348 264.889 439.542L264.92 439.459V439.37V428.83H265.17H292.74H293.24V428.33V420.154V419.654H292.74H265.17H264.67V420.154V426.723H264.42H262.177C261.552 424.569 260.712 422.027 259.64 419.098L259.469 418.632L259.001 418.799L250.381 421.886L249.888 422.063L250.088 422.547C250.64 423.888 251.088 425.286 251.426 426.723H248.3H247.8V427.223V437.603V438.103H248.3H254.195C251.967 441.997 249.362 445.57 246.432 448.751L246.257 448.942L246.311 449.196L248.931 461.343L249.137 462.295L249.791 461.573L251.92 459.223V473.609V474.109H252.42H261.05H261.55V473.609V455.164L262.694 456.884L263.151 457.572L263.549 456.847L264.67 454.801V473.609V474.109H265.17H273.05H273.55V473.609V472.789H283.42V473.609V474.109H283.92H292.17H292.67V473.609V446.215ZM273.55 455.436V454.008H274.99V455.436H273.55ZM273.55 464.06V462.621H274.99V464.06H273.55ZM281.92 437.762H275.05V436.783H281.92V437.762ZM283.42 455.436H282.17V454.008H283.42V455.436ZM282.17 462.621H283.42V464.06H282.17V462.621Z" fill="white" stroke="#FF2B66"/>
<path d="M307.21 419.654H306.768L306.714 420.092L305.808 427.382H301H300.5V427.882V472.725V473.225H301H309.46H309.96V472.725V471.022H320.71H321.21V470.522V449.005L322.375 450.504L322.808 451.061L323.19 450.469L323.212 450.434C324.539 454.14 325.543 457.269 326.227 459.823L326.375 460.376L326.903 460.155L334.687 456.895C334.736 458.371 334.601 459.539 334.302 460.42C333.961 461.422 333.42 462.029 332.705 462.332L332.63 462.364L332.572 462.415C332.572 462.415 332.572 462.415 332.572 462.415C332.569 462.417 332.538 462.437 332.452 462.466C332.356 462.498 332.219 462.53 332.036 462.56C331.669 462.618 331.159 462.658 330.497 462.676C329.175 462.71 327.302 462.655 324.871 462.506L324.855 462.505H324.84H324.09H323.437L323.607 463.135L326.417 473.527L326.509 473.866L326.859 473.895C330.446 474.191 333.434 474.12 335.806 473.667C338.162 473.216 339.96 472.38 341.121 471.102C342.409 469.968 343.313 468.168 343.884 465.776C344.459 463.366 344.71 460.305 344.65 456.603V427.022V426.522H344.15H333.953C334.264 425.531 334.569 424.493 334.881 423.401L334.893 423.359L334.897 423.314C334.955 422.744 335.072 422.186 335.246 421.651L335.429 421.086L334.841 421.002L325.661 419.682L325.214 419.618L325.105 420.056C324.125 423.981 322.82 427.779 321.21 431.397V427.882V427.382H320.71H316.387C316.734 423.566 316.966 421.181 317.086 420.215L317.156 419.654H316.59H307.21ZM330.329 442.424L330.079 442.006L329.655 442.245L327.322 443.556C328.26 441.879 329.106 440.132 329.855 438.327H334.65V451.184C333.431 448.123 331.986 445.191 330.329 442.424ZM309.96 443.288V438.55H311.77V443.288H309.96ZM309.96 459.642V454.892H311.77V459.642H309.96Z" fill="white" stroke="#FF2B66"/>
<path d="M357.348 419.431L356.873 419.395L356.814 419.867C356.437 422.871 356.14 425.121 355.923 426.618C355.814 427.367 355.725 427.923 355.658 428.289C355.647 428.346 355.637 428.397 355.628 428.443H351.5H351V428.943V439.37V439.87H351.5H353.675C352.723 443.768 351.589 447.602 350.278 451.352L350.171 451.657L350.405 451.88C353.475 454.8 355.752 457.117 357.244 458.837C355.37 461.398 353.143 463.563 350.66 465.241L350.216 465.541L350.546 465.963L357.106 474.364L357.452 474.808L357.852 474.411C360.176 472.107 362.337 469.585 364.313 466.871C365.525 468.104 366.62 469.493 367.577 471.012L367.959 471.618L368.396 471.051L371.25 467.347V473.632V474.132H371.75H380.38H380.88V473.632V473.036H385.12V473.609V474.109H385.62H393.69H394.19V473.609V454.93C395.335 454.355 396.375 453.535 397.258 452.516L397.437 452.309L397.359 452.047L394.539 442.539L394.316 441.787L393.729 442.306C393.237 442.74 392.875 442.996 392.63 443.112C392.578 443.137 392.536 443.153 392.505 443.162L392.421 443.064H392.279C392.245 443.017 392.195 442.929 392.138 442.78C392.037 442.519 391.937 442.142 391.842 441.637H396.12H396.62V441.137V432.301V431.801H396.12H390.427C390.406 431.214 390.364 430.629 390.3 430.046C390.876 429.936 391.648 429.82 392.616 429.711L392.633 429.709L392.649 429.706C394.279 429.411 395.412 429.185 396.058 429.028L396.664 428.881L396.389 428.321L392.259 419.933L392.09 419.59L391.715 419.663C385.169 420.927 378.557 421.66 371.925 421.857L371.44 421.871V422.357V428.49H371.19H365.202C365.561 426.133 365.972 423.532 366.434 420.669L366.52 420.132L365.978 420.091L357.348 419.431ZM371.014 444.967C371.184 442.959 371.326 440.587 371.44 437.852V443.564V443.59L371.443 443.615C371.495 444.126 371.406 444.478 371.241 444.723C371.182 444.81 371.108 444.892 371.014 444.967ZM361.737 446.506C362.276 444.201 362.733 442.167 363.088 440.415C362.787 442.941 362.392 445.449 361.904 447.933L361.404 447.344C361.449 447.094 361.541 446.862 361.669 446.665L361.717 446.591L361.737 446.506ZM371.25 455.225V457.973C370.57 457.133 369.862 456.325 369.129 455.549C369.415 454.667 369.656 453.767 369.852 452.854L370.124 454.906L370.194 455.434L370.717 455.33L371.25 455.225ZM383.31 445.776C383.644 447.193 384.053 448.585 384.535 449.945H383.31V445.776ZM382.737 442.877L382.677 442.894L380.12 443.602V441.597L382.557 441.631C382.611 442.048 382.671 442.463 382.737 442.877ZM380.31 431.53V430.986H381.248L381.315 431.53H380.31ZM380.69 458.039V457.496H385.12V458.039H380.69ZM380.69 465.332V464.565H385.12V465.332H380.69Z" fill="white" stroke="#FF2B66"/>
<path d="M406.863 419.017L406.341 419.004L406.35 419.526C406.4 422.504 406.288 425.482 406.015 428.443H402.54H402.04V428.943V439.146V439.646H402.54H404.373C403.643 443.701 402.68 447.693 401.492 451.595L401.401 451.894L401.629 452.107C404.469 454.754 406.628 456.868 408.112 458.454C406.999 460.469 404.935 462.592 401.867 464.815L401.464 465.106L401.753 465.511L407.753 473.899L408.069 474.341L408.483 473.99C411.043 471.819 413.356 469.275 415.367 466.422L417.944 468.891L418.371 469.301L418.704 468.811L420.04 466.845V473.396V473.896H420.54H427.85H428.35V473.396V472.341H439.35V473.396V473.896H439.85H446.79H447.29V473.396V420.589V420.089H446.79H420.54H420.04V420.589V428.514H415.085C415.312 425.845 415.478 422.93 415.6 419.748L415.619 419.243L415.113 419.23L406.863 419.017ZM413.275 440.064C413.181 442.77 412.82 445.454 412.2 448.061L411.682 447.54C411.756 446.897 411.87 446.261 412.023 445.638C412.552 443.816 412.97 441.954 413.275 440.064ZM420.04 451.054V456.082L419.206 455.099C419.525 453.761 419.803 452.412 420.04 451.054ZM429.41 434.628H428.35V431.658L429.41 431.682V434.628ZM428.35 449.333V446.232H429.277C429.001 447.28 428.692 448.314 428.35 449.333ZM429.624 461.432H428.35V459.83L429.624 461.432ZM435.804 461.432H432.683C433.235 460.483 433.712 459.478 434.108 458.429L435.804 461.432ZM437.539 446.316L437.562 446.232H438.93V448.595L437.539 446.316ZM438.93 434.628H437.87V431.658L438.93 431.682V434.628ZM438.97 461.432H438.43L438.97 460.412V461.432Z" fill="white" stroke="#FF2B66"/>
<path d="M112.69 158.26H96.9904V134.323L94 117.118L98.4856 114.5V78.9685C107.457 78.9685 126.147 76.9738 134.371 75.9764H150.818L156.051 72.2362C160.5 72.2362 171.751 75.9764 175.489 89C177.881 87.8032 179.974 75.9764 179.974 72.2362L199.412 78.9685H207.636V69.9921H227.073V81.2126H235.297C239.284 76.4751 247.259 69.8425 247.259 81.2126C250.847 78.2205 255.732 70.4908 257.725 67L269.687 75.9764H318.281V111.134H323.514V121.606H328V141.055H313.796C313.297 143.299 311.702 148.535 309.31 151.528C306.918 154.52 301.335 154.27 298.843 153.772H280.153L278.658 145.543L273.425 149.283L265.949 141.055V162H249.502V156.016L242.773 158.26H193.431V162H175.489V139.559L171.751 147.787C169.508 149.782 163.228 153.772 156.051 153.772C148.874 153.772 143.591 149.782 141.847 147.787L132.128 153.772L126.895 147.787V153.772L112.69 158.26Z" fill="#FF5685"/>
<path d="M117.25 94.5C117.25 94.1667 117.167 93.6667 117 93C116.667 90 116.417 87.6667 116.25 86C125.583 85.8333 134 85.25 141.5 84.25L143.25 92.5L135 93.25V99.5H145.5C145.333 97 145.167 93.1667 145 88C144.833 84.5 144.75 82.5833 144.75 82.25H154.25C154.25 88.9167 154.417 94.6667 154.75 99.5H174.75V108H165.75L172.75 113.25C168.083 119.083 163.5 123.917 159 127.75C159.167 127.917 159.333 128.25 159.5 128.75C160 129.417 160.417 130 160.75 130.5C161.917 132.167 163 133 164 133C165 133 165.667 132.167 166 130.5C166.5 128.167 167 125.25 167.5 121.75C169.833 122.917 172.417 124.25 175.25 125.75C174.417 130.75 173.5 134.5 172.5 137C171.167 140.5 168.417 142.25 164.25 142.25C159.25 142.417 155.333 140 152.5 135C152 134.5 151.667 134 151.5 133.5C150.167 134.333 148.167 135.417 145.5 136.75C143.5 137.917 142 138.833 141 139.5C139.333 136.833 137.5 134.25 135.5 131.75C140.333 129.75 144.583 127.333 148.25 124.5C147.25 120.167 146.5 114.667 146 108H135V114.75C138.333 114.417 141.5 114 144.5 113.5C144.5 114.667 144.417 116.333 144.25 118.5C144.25 120.167 144.25 121.417 144.25 122.25L135 123.5V133.25C135.167 138.25 133 140.917 128.5 141.25C126.5 141.417 123.167 141.5 118.5 141.5C118.333 140.667 118 139.417 117.5 137.75C117.167 135.75 116.833 134.25 116.5 133.25C117.167 133.25 118.167 133.25 119.5 133.25C120.833 133.417 121.833 133.5 122.5 133.5C124.667 133.667 125.667 132.5 125.5 130V124.75L116 126L114.5 116.75C114.667 116.75 114.917 116.75 115.25 116.75C118.25 116.583 121.667 116.25 125.5 115.75V108H115V99.5H125.5V94L117.25 94.5ZM166.5 99C166 98.3333 165.167 97.4167 164 96.25C160.5 92.75 157.833 90.25 156 88.75L161.75 83.25C163.083 84.4167 165.333 86.3333 168.5 89C170.5 90.8333 171.917 92.0833 172.75 92.75L166.5 99ZM156.25 118.25C159.583 115.083 162.5 111.667 165 108H155C155.333 112 155.75 115.417 156.25 118.25ZM196.75 94V87H212.5V82.5H221.25V87H238V94H221.25V97.25H235.25V134H239.25V140.5H194.75V134H198.5V97.25H212.5V94H196.75ZM184.5 142V114C184.167 114.667 183.583 115.583 182.75 116.75C181.417 118.75 180.417 120.25 179.75 121.25C179.75 120.917 179.667 120.333 179.5 119.5C179 114.667 178.5 111.167 178 109C182.5 101 186 92.0833 188.5 82.25L197.25 84.5C196.083 89 194.583 93.25 192.75 97.25V142H184.5ZM207.25 112.75V116H226.75V112.75H207.25ZM207.25 121.75V125H226.75V121.75H207.25ZM207.25 104V107H226.75V104H207.25ZM207.25 130.75V134H226.75V130.75H207.25ZM262 118.5V111.5H302V118.5H296V121.25H303.25V128.25H296V132.25C296.333 138.417 293.5 141.5 287.5 141.5C286.333 141.5 284.667 141.583 282.5 141.75C280.333 141.75 278.75 141.75 277.75 141.75L276.25 135.25L271.75 138.75C270.417 137.083 268 134.583 264.5 131.25L268.25 128.25H260.5V121.25H287.25V118.5H262ZM264 109V84.5H300V109H264ZM249.25 142.25V121.5C247.583 123.167 246 124.75 244.5 126.25C243.833 122.917 243.083 119.833 242.25 117C247.75 110.833 252.333 104.833 256 99L262.5 104C261 106.5 259.417 109 257.75 111.5V142.25H249.25ZM246.25 105.5C245.917 104.833 245.5 103.75 245 102.25C244.167 99.5833 243.417 97.6667 242.75 96.5C247.917 92 252.25 87.25 255.75 82.25L263 87.5C258 93.6667 252.417 99.6667 246.25 105.5ZM283.5 134.25C286.333 134.417 287.583 133.167 287.25 130.5V128.25H272.25C273.75 129.583 275.75 131.5 278.25 134L278 134.25C279.833 134.25 281.667 134.25 283.5 134.25ZM272.5 99.75V102.5H291.5V99.75H272.5ZM272.5 91.25V94H291.5V91.25H272.5Z" fill="white"/>
<path d="M634.086 287.892C634.086 303.908 625.35 318.503 609.246 318.503C593.141 318.503 580.086 301.76 580.086 285.744C580.086 269.727 593.141 260.503 609.246 260.503C625.35 260.503 634.086 271.876 634.086 287.892Z" fill="white"/>
<path d="M680.086 287.892C680.086 303.908 671.35 318.503 655.246 318.503C639.141 318.503 626.086 301.76 626.086 285.744C626.086 269.727 639.141 260.503 655.246 260.503C671.35 260.503 680.086 271.876 680.086 287.892Z" fill="white"/>
<path d="M719.086 287.892C719.086 303.908 710.512 318.503 694.706 318.503C678.899 318.503 666.086 301.76 666.086 285.744C666.086 269.727 678.899 260.503 694.706 260.503C710.512 260.503 719.086 271.876 719.086 287.892Z" fill="white"/>
<path d="M593.406 278.743V285.463H595.966V281.343H624.246V285.463H626.926V278.743H593.406ZM598.886 274.783C599.686 276.583 600.526 278.943 600.846 280.383L603.206 279.343C602.886 277.943 601.966 275.663 601.166 273.943L598.886 274.783ZM608.046 274.423C608.686 276.223 609.486 278.703 609.806 280.143L612.246 279.223C611.886 277.823 611.086 275.463 610.366 273.663L608.046 274.423ZM623.606 269.463C616.566 270.583 604.326 271.343 594.406 271.543C594.686 272.183 595.006 273.223 595.046 273.943C604.886 273.823 617.086 273.103 624.566 271.903L623.606 269.463ZM619.406 273.063C618.606 274.943 617.086 277.623 615.926 279.303L618.046 280.103C619.326 278.503 620.806 276.103 622.086 273.943L619.406 273.063ZM604.846 292.503L602.646 293.543C607.206 300.063 615.806 303.823 625.646 305.183C625.966 304.383 626.646 303.183 627.246 302.503C617.486 301.463 608.846 298.103 604.846 292.503ZM603.486 291.623V294.263H620.686V291.623H603.486ZM619.726 291.623V292.103C616.526 298.103 608.566 301.303 600.246 302.623C600.686 303.183 601.406 304.423 601.606 305.143C610.206 303.463 618.566 299.863 622.446 292.703L620.806 291.543L620.326 291.623H619.726ZM596.286 285.823V288.423H623.926V285.823H596.286ZM604.646 282.343C602.926 292.223 599.086 299.103 591.766 302.983C592.326 303.543 593.326 304.783 593.646 305.343C601.326 300.823 605.486 293.543 607.486 282.703L604.646 282.343ZM638.606 283.263V286.063H661.846V283.263H638.606ZM638.606 291.943V294.743H661.846V291.943H638.606ZM638.606 300.703V303.503H661.846V300.703H638.606ZM636.566 274.383V305.743H639.606V277.263H661.046V305.543H664.166V274.383H636.566ZM648.286 268.863C647.886 270.823 647.006 273.623 646.286 275.503L648.966 276.023C649.846 274.303 650.886 271.703 651.766 269.303L648.286 268.863ZM677.726 284.343V287.303H701.326V284.343H677.726ZM675.686 271.303V274.343H700.086V289.823H703.246V271.303H675.686ZM676.166 284.343V299.303C676.166 303.823 678.246 304.863 684.686 304.863C686.166 304.863 698.326 304.863 699.846 304.863C706.326 304.863 707.646 302.943 708.326 295.783C707.446 295.583 706.126 295.063 705.286 294.543C704.806 300.703 704.166 301.863 699.886 301.863C697.166 301.863 686.686 301.863 684.566 301.863C680.166 301.863 679.246 301.383 679.246 299.263V284.343H676.166Z" fill="#FF5685"/>
<path d="M651.585 251.503C644.085 251.503 634.585 255.003 630.085 263.503C617.085 243.003 586.228 250.003 576.585 268.003C566.942 286.003 574.586 305.003 580.586 312.503C586.585 320.003 597.385 326.503 608.585 326.503C619.785 326.503 630.919 320.17 633.085 317.003C637.085 321.003 645.585 326.503 653.585 326.503C661.585 326.503 671.085 322.003 674.085 317.003C677.252 320.503 687.046 326.503 695.085 326.503C705.585 326.503 724.039 323.503 725.086 289.503C726.086 257.003 706.085 251.503 695.085 251.503C686.285 251.503 677.419 257.503 674.085 260.503C670.919 257.836 664.585 251.503 651.585 251.503Z" stroke="#FEDDDE" stroke-linecap="round"/>
<path d="M302.161 559.238C290.467 559.238 279.358 565.981 273.161 578.738C266.965 591.495 269.662 616.238 283.162 623.738C297.479 631.693 314.752 625.315 322.586 620.981C324.919 623.815 333.386 629.481 348.586 629.481C367.586 629.481 380.586 625.481 405.586 625.481C430.586 625.481 436.586 625.981 464.586 629.481C492.586 632.981 503.347 610.568 500.586 590.981C497.661 570.238 490.661 559.966 472.661 557.238C459.461 555.238 447.586 566.315 444.086 571.981C442.252 567.981 436.161 562.238 426.161 562.238C416.161 562.238 409.328 567.981 406.661 571.981C404.828 568.981 398.661 561.738 385.661 562.238C376.168 562.604 366.328 570.405 365.661 574.738C364.495 572.238 360.01 565.225 348.586 563.481C337.161 561.738 329.661 568.238 327.086 571.981C321.661 567.238 313.661 559.238 302.161 559.238Z" fill="white"/>
<path d="M302.161 554.238C290.467 554.238 279.358 560.981 273.161 573.738C266.965 586.495 269.662 611.238 283.162 618.738C297.479 626.693 314.752 620.315 322.586 615.981C324.919 618.815 333.386 624.481 348.586 624.481C367.586 624.481 380.586 620.481 405.586 620.481C430.586 620.481 436.586 620.981 464.586 624.481C492.586 627.981 503.347 605.568 500.586 585.981C497.661 565.238 490.661 554.966 472.661 552.238C459.461 550.238 447.586 561.315 444.086 566.981C442.252 562.981 436.161 557.238 426.161 557.238C416.161 557.238 409.328 562.981 406.661 566.981C404.828 563.981 398.661 556.738 385.661 557.238C376.168 557.604 366.328 565.405 365.661 569.738C364.495 567.238 360.01 560.225 348.586 558.481C337.161 556.738 329.661 563.238 327.086 566.981C321.661 562.238 313.661 554.238 302.161 554.238Z" fill="#FF5685" stroke="white" stroke-linecap="round"/>
<path d="M292.422 575.998V578.878H306.062V575.998H292.422ZM305.062 575.998V576.718C303.542 590.438 298.382 600.398 291.422 604.958C292.142 605.518 293.102 606.638 293.542 607.358C301.102 601.958 306.342 591.998 308.022 576.438L306.102 575.878L305.582 575.998H305.062ZM293.302 586.118C298.662 590.918 304.582 597.718 307.062 602.318L309.422 600.118C306.902 595.518 300.782 588.958 295.382 584.278L293.302 586.118ZM308.942 580.278V583.198H327.982V580.278H308.942ZM320.222 570.638V603.358C320.222 604.078 319.942 604.278 319.262 604.318C318.582 604.358 316.342 604.358 313.822 604.278C314.262 605.198 314.702 606.598 314.822 607.438C318.262 607.438 320.302 607.358 321.502 606.838C322.702 606.278 323.222 605.398 323.222 603.398V570.638H320.222ZM309.702 588.518C311.622 591.318 313.422 595.118 314.022 597.518L316.662 596.238C316.022 593.798 314.102 590.118 312.182 587.358L309.702 588.518ZM338.182 584.998V587.798H361.422V584.998H338.182ZM338.182 593.678V596.478H361.422V593.678H338.182ZM338.182 602.438V605.238H361.422V602.438H338.182ZM336.142 576.118V607.478H339.182V578.998H360.622V607.278H363.742V576.118H336.142ZM347.862 570.598C347.462 572.558 346.582 575.358 345.862 577.238L348.542 577.758C349.422 576.038 350.462 573.438 351.342 571.038L347.862 570.598ZM377.302 586.078V589.038H400.902V586.078H377.302ZM375.262 573.038V576.078H399.662V591.558H402.822V573.038H375.262ZM375.742 586.078V601.038C375.742 605.558 377.822 606.598 384.262 606.598C385.742 606.598 397.902 606.598 399.422 606.598C405.902 606.598 407.222 604.678 407.902 597.518C407.022 597.318 405.702 596.798 404.862 596.278C404.382 602.438 403.742 603.598 399.462 603.598C396.742 603.598 386.262 603.598 384.142 603.598C379.742 603.598 378.822 603.118 378.822 600.998V586.078H375.742ZM424.782 586.958L422.182 587.758C426.222 598.318 433.902 604.878 446.062 607.438C446.462 606.598 447.302 605.358 447.982 604.718C436.062 602.558 428.302 596.438 424.782 586.958ZM439.542 585.558V586.118C436.622 596.598 428.182 602.518 418.622 604.918C419.262 605.518 419.982 606.678 420.342 607.478C430.622 604.518 439.342 598.398 442.702 586.318L440.662 585.398L440.102 585.558H439.542ZM412.422 577.318V580.238H446.982V577.318H412.422ZM423.142 585.558L422.302 588.478H439.862V585.558H423.142ZM423.142 570.638C422.942 574.278 422.582 594.918 411.062 604.078C412.022 604.638 413.062 605.398 413.662 606.158C425.262 596.198 425.942 575.238 426.222 570.638H423.142ZM467.542 572.718V575.518H485.102V572.718H467.542ZM466.182 586.758V589.638H488.182V586.758H466.182ZM475.622 581.438V603.638C475.622 604.238 475.422 604.438 474.742 604.478C474.022 604.518 471.782 604.518 469.262 604.438C469.662 605.238 470.182 606.558 470.342 607.358C473.542 607.398 475.622 607.318 476.942 606.838C478.182 606.358 478.622 605.478 478.622 603.678V581.438H475.622ZM484.022 572.718V573.398C482.422 575.998 479.102 579.758 476.222 581.918C476.742 582.318 477.582 583.118 478.022 583.678C481.222 581.278 484.942 577.398 487.342 573.998L485.382 572.558L484.742 572.718H484.022ZM451.382 578.918V581.718H464.542V578.918H451.382ZM457.422 570.678C456.062 578.278 453.662 588.998 451.902 595.118L454.422 596.438C456.222 589.798 458.742 578.998 460.262 570.998L457.422 570.678ZM453.382 593.838C457.862 596.438 463.022 600.518 465.422 603.518L467.222 601.078C464.822 598.118 459.542 594.278 455.062 591.758L453.382 593.838ZM463.542 578.918V579.518C462.542 593.118 458.382 601.598 451.702 605.118C452.342 605.718 453.182 606.798 453.582 607.518C460.942 603.118 465.302 594.638 466.382 579.158L464.582 578.798L464.022 578.918H463.542Z" fill="white"/>
<path d="M590.8 383.4V420.16H593.76V383.4H590.8ZM587.2 391.12C586.92 394.36 586.16 398.76 585.12 401.44L587.48 402.24C588.52 399.32 589.28 394.72 589.48 391.48L587.2 391.12ZM593.84 390.76C595.04 393.16 596.36 396.36 596.8 398.28L599.08 397.12C598.56 395.28 597.24 392.2 596 389.84L593.84 390.76ZM599.32 389.8V392.64H616.16V403.4H619.12V389.8H599.32ZM597.2 401.8V404.68H622.56V401.8H597.2ZM610.64 402.4L607.96 402.96C610.12 411 614.12 417.44 620.76 420.32C621.24 419.48 622.2 418.2 622.92 417.56C616.64 415.24 612.52 409.32 610.64 402.4ZM607.16 383.4V396.76C607.16 403.76 606.76 412.6 595.88 418.04C596.56 418.64 597.56 419.72 597.96 420.36C609.16 414.24 610.16 404.6 610.16 396.76V383.4H607.16ZM643.24 391.36V416.28C643.24 416.96 643 417.12 642.28 417.16C641.6 417.2 639.24 417.2 636.68 417.12C637.16 418 637.6 419.32 637.76 420.16C641.2 420.16 643.28 420.08 644.6 419.6C645.88 419.12 646.32 418.2 646.32 416.32V391.36H643.24ZM657.24 383.88C651.12 385.48 639.92 386.24 630.8 386.48C631.12 387.16 631.48 388.36 631.52 389.16C640.68 389.04 652.04 388.24 658.96 386.52L657.24 383.88ZM633.44 405.88C631.48 409.44 628.36 413.28 625.52 415.76C626.2 416.2 627.44 417.16 628 417.72C630.76 414.92 634.08 410.72 636.32 406.88L633.44 405.88ZM651.68 407.12C654.56 410.36 658.04 414.84 659.6 417.56L662.4 416.12C660.72 413.44 657.16 409.08 654.24 405.96L651.68 407.12ZM629.16 403C629.16 402.28 631.56 401.16 631.56 401.16V401.08C632.6 397.36 633.68 391.92 633.92 387.12L630.8 386.48C630.76 391.08 629.68 396.24 629.36 397.56C629 399 628.68 399.96 628.12 400.12C628.48 400.92 628.96 402.32 629.16 403ZM629.16 403C629.52 402.64 631.2 402.48 633.84 402.48H660.96V399.44H631.2L629.16 400.52V403Z" fill="white"/>
<path d="M660.844 420.5L660.564 420.086L660.844 420.5ZM582.344 377.5L582.042 377.102L582.344 377.5ZM628.344 369V369.5V369ZM677.344 384L676.881 384.188L677.344 384ZM635.844 435.5L635.781 435.004L635.844 435.5ZM587.341 354.936C587.305 354.662 587.055 354.469 586.781 354.504L582.318 355.079C582.044 355.114 581.85 355.364 581.886 355.638C581.921 355.912 582.171 356.106 582.445 356.07L586.413 355.56L586.923 359.527C586.959 359.801 587.209 359.994 587.483 359.959C587.757 359.924 587.95 359.673 587.915 359.399L587.341 354.936ZM666.093 376.932C668.547 378.358 670.539 380.999 671.863 384.4C673.185 387.796 673.825 391.912 673.601 396.224C673.152 404.85 669.254 414.191 660.564 420.086L661.125 420.914C670.124 414.809 674.138 405.15 674.599 396.276C674.83 391.838 674.174 387.579 672.795 384.037C671.418 380.501 669.305 377.642 666.596 376.068L666.093 376.932ZM660.564 420.086C652.979 425.232 636.82 430.343 620.333 432.474C612.1 433.538 603.816 433.855 596.511 433.07C589.196 432.283 582.919 430.398 578.65 427.104L578.039 427.896C582.52 431.352 589.01 433.269 596.404 434.064C603.809 434.86 612.176 434.537 620.461 433.466C637.009 431.327 653.35 426.188 661.125 420.914L660.564 420.086ZM578.65 427.104C570.069 420.485 567.485 410.929 568.839 401.635C570.196 392.323 575.504 383.317 582.647 377.898L582.042 377.102C574.685 382.683 569.243 391.927 567.85 401.49C566.454 411.071 569.12 421.015 578.039 427.896L578.65 427.104ZM582.647 377.898C588.901 373.154 596.255 371.047 604.093 370.133C611.943 369.217 620.222 369.5 628.344 369.5V368.5C620.272 368.5 611.903 368.215 603.977 369.14C596.04 370.066 588.491 372.209 582.042 377.102L582.647 377.898ZM628.344 369.5C635.656 369.5 645.944 368.627 655.395 370.057C664.83 371.485 673.23 375.183 676.881 384.188L677.808 383.812C673.958 374.317 665.109 370.515 655.544 369.068C645.995 367.623 635.533 368.5 628.344 368.5V369.5ZM676.881 384.188C680.687 393.576 681.043 404.905 675.181 414.553C669.322 424.194 657.185 432.266 635.781 435.004L635.908 435.996C657.503 433.234 669.968 425.056 676.035 415.072C682.098 405.095 681.704 393.424 677.808 383.812L676.881 384.188ZM635.781 435.004C613.693 437.829 590.636 431.963 578.581 418.421C572.568 411.666 569.275 402.988 570.198 392.467C571.121 381.931 576.277 369.509 587.241 355.306L586.449 354.694C575.413 368.991 570.147 381.591 569.201 392.379C568.254 403.182 571.643 412.131 577.834 419.085C590.187 432.962 613.63 438.845 635.908 435.996L635.781 435.004Z" fill="white"/>
<path d="M1171.36 317.362C1148.86 311.362 1094.86 319.862 1072.86 342.862C1050.86 365.862 1056.86 406.362 1099.86 406.362C1135.86 406.362 1179.33 391.224 1191.36 365.362C1203.4 339.5 1193.86 323.362 1171.36 317.362Z" stroke="white"/>
<path d="M1189.9 327.5L1194.9 354.5" stroke="white"/>
<path d="M1183.4 322.5L1192.4 363" stroke="white"/>
<path d="M1178.4 319.5L1189.9 367.5" stroke="white"/>
<path d="M1174.4 318.5L1187.4 372" stroke="white"/>
<path d="M1169.4 317L1183.9 376" stroke="white"/>
<path d="M1164.9 316L1180.9 379.5" stroke="white"/>
<path d="M1160.9 316L1177.4 382" stroke="white"/>
<path d="M1156.4 315.5L1173.9 385.5" stroke="white"/>
<path d="M1152.4 315L1170.4 387.5" stroke="white"/>
<path d="M1147.9 315.5L1166.4 389.5" stroke="white"/>
<path d="M1143.4 316L1162.4 392" stroke="white"/>
<path d="M1138.9 317L1157.9 394.5" stroke="white"/>
<path d="M1134.4 317.5L1152.4 396.5" stroke="white"/>
<path d="M1129.9 317.5L1147.9 398" stroke="white"/>
<path d="M1124.9 318.5L1142.4 399.5" stroke="white"/>
<path d="M1120.4 319.5L1137.4 401.5" stroke="white"/>
<path d="M1116.4 321L1133.4 403" stroke="white"/>
<path d="M1111.9 321.5L1129.4 403" stroke="white"/>
<path d="M1107.9 323L1124.9 404" stroke="white"/>
<path d="M1103.4 325L1120.4 404.5" stroke="white"/>
<path d="M1098.4 326.5L1114.4 405.5" stroke="white"/>
<path d="M1094.4 329L1110.4 405.5" stroke="white"/>
<path d="M1090.4 330.5L1105.4 406.5" stroke="white"/>
<path d="M1086.9 332L1101.4 406" stroke="white"/>
<path d="M1082.9 334.5L1096.9 406.5" stroke="white"/>
<path d="M1078.9 337.5L1092.4 405.5" stroke="white"/>
<path d="M1075.4 340.5L1087.9 405" stroke="white"/>
<path d="M1071.9 344L1083.4 403.5" stroke="white"/>
<path d="M1068.9 348L1078.9 402" stroke="white"/>
<path d="M1065.4 353.5L1073.9 399" stroke="white"/>
<path d="M1062.4 360L1068.4 394.5" stroke="white"/>
<path d="M1075.4 339C1094.9 326.186 1154.73 318 1169.9 328.5C1185.06 339 1183.4 376.5 1152.9 388.5C1122.4 400.5 1083.9 401 1069.9 388.5C1055.9 376 1055.9 351.814 1075.4 339Z" fill="white"/>
<path d="M1082.96 345.36V348.28H1116.08V345.36H1082.96ZM1100.28 358.96V361.92H1114.48V358.96H1100.28ZM1081.44 374.52V377.44H1117.4V374.52H1081.44ZM1098.84 346.44V375.96H1101.96V346.44H1098.84ZM1086.92 355.64V376.08H1090V355.64H1086.92ZM1133.6 360.2V362.68H1144.56V360.2H1133.6ZM1133.6 367.16V369.64H1144.68V367.16H1133.6ZM1125.36 374.32V377.12H1153.6V374.32H1125.36ZM1123.52 352.96V379.24H1126.44V355.76H1152.2V379.24H1155.24V352.96H1123.52ZM1132.2 354.72V375.6H1134.92V354.72H1132.2ZM1143.4 354.72V375.48H1146.16V354.72H1143.4ZM1137.4 346.4C1137.12 348.72 1136.32 352.04 1135.68 354.2L1138.4 354.96C1139.2 352.96 1140.04 349.88 1140.88 347.2L1137.4 346.4ZM1121.72 345.08V347.96H1157.16V345.08H1121.72Z" fill="#FF5685"/>
<path d="M424.5 193.5C438 189 452.5 193.5 457.5 199C460.167 194.5 468 191 476 191C485.2 191 495.667 196.5 498 201C498.667 197.5 503.273 193.5 509 193.5C514.5 193.5 518 196.5 519 199C522 195.5 526.726 190.787 533.5 191.5C543 192.5 550.5 201.404 550.5 218.5C550.5 235 544.5 242 541.5 247.5C538.5 253 533.5 255.5 529 255.5C525.4 255.5 521.333 250.167 520.5 247.5C518.333 249.167 514 252.5 510 252.5C506 252.5 501.333 249.167 500 247.5C494.833 250.833 490 256.5 476 255.5C463.5 254.607 458.833 245.833 457.5 242C457.167 244.833 450.25 251.199 435.5 252.5C418.5 254 406 243.5 406 224C406 211.834 411 198 424.5 193.5Z" stroke="white"/>
<path d="M422.5 228.38V230.94H452.38V228.38H422.5ZM451.1 228.38L451.06 228.78C450.58 233.98 449.98 236.18 449.22 236.82C448.86 237.14 448.42 237.18 447.58 237.18C446.74 237.18 444.26 237.14 441.86 236.9C442.3 237.66 442.66 238.74 442.74 239.54C445.18 239.66 447.54 239.7 448.74 239.62C450.02 239.58 450.9 239.38 451.66 238.66C452.74 237.66 453.42 235.26 454.02 229.66C454.1 229.26 454.14 228.38 454.14 228.38H451.1ZM436.74 224.98C435.78 231.78 433.22 235.58 420.98 237.3C421.54 237.9 422.18 239.1 422.38 239.82C435.46 237.74 438.62 233.1 439.82 224.98H436.74ZM423.5 204.46V206.82H450.14V204.46H423.5ZM449.26 204.46V205.1C446.82 206.86 441.98 209.02 437.94 210.18C438.42 210.58 439.18 211.46 439.54 211.98C444.06 210.62 449.18 208.38 452.78 206.1L450.74 204.3L450.06 204.46H449.26ZM429.7 209.46C434.3 210.66 440.26 212.78 443.26 214.38L445.46 212.46C442.22 210.86 436.26 208.9 431.78 207.82L429.7 209.46ZM427.5 220.02H450.02V223.18H427.5V220.02ZM427.5 214.7H450.02V217.86H427.5V214.7ZM424.62 212.5V225.42H453.06V212.5H424.62ZM437.02 213.14V224.3H439.9V213.14H437.02ZM461.26 204.7V207.34H477.94V204.7H461.26ZM464.14 218.02V220.54H474.7V218.02H464.14ZM464.14 224.5V226.98H474.7V224.5H464.14ZM460.06 211.5V214.18H478.9V211.5H460.06ZM467.98 205.74V212.7H470.82V205.74H467.98ZM462.86 212.62V232.78H465.66V212.62H462.86ZM473.18 212.66V239.7H476.06V212.66H473.18ZM459.9 232.34L460.34 235.22C464.3 234.62 469.66 233.86 474.78 233.06L474.66 230.3C469.22 231.1 463.62 231.86 459.9 232.34ZM481.7 210.38V213.18H496.9V210.38H481.7ZM482.9 202.9C481.74 209.74 479.7 216.38 476.54 220.54C477.26 221.06 478.54 222.06 479.06 222.62C482.34 218.02 484.62 210.9 485.98 203.38L482.9 202.9ZM491.3 211.9C489.66 224.54 485.82 232.62 476.46 237.14C477.02 237.78 477.94 239.14 478.26 239.82C488.22 234.58 492.42 225.98 494.38 212.22L491.3 211.9ZM483.14 212.94L480.42 213.38C482.62 225.62 486.7 235.26 495.1 239.74C495.58 238.94 496.5 237.78 497.22 237.18C489.22 233.34 485.06 224.02 483.14 212.94Z" fill="white"/>
<path d="M507 235.5L504.5 204H517L513 235.5H507Z" fill="white"/>
<circle cx="510.5" cy="241.5" r="4" fill="white"/>
<path d="M525 235.5L522.5 204H535L531 235.5H525Z" fill="white"/>
<circle cx="528.5" cy="241.5" r="4" fill="white"/>
<path d="M556.52 129.76V132.56H579.76V129.76H556.52ZM556.52 138.44V141.24H579.76V138.44H556.52ZM556.52 147.2V150H579.76V147.2H556.52ZM554.48 120.88V152.24H557.52V123.76H578.96V152.04H582.08V120.88H554.48ZM566.2 115.36C565.8 117.32 564.92 120.12 564.2 122L566.88 122.52C567.76 120.8 568.8 118.2 569.68 115.8L566.2 115.36ZM616.12 118.04C618.48 120.12 621.2 123 622.4 124.92L624.88 123.16C623.56 121.32 620.76 118.48 618.4 116.48L616.12 118.04ZM590.2 127.24V130.12H625.84V127.24H590.2ZM589.6 139L590.48 142C595.52 140.88 602.6 139.24 609.16 137.72L608.92 135C601.88 136.52 594.36 138.12 589.6 139ZM598.8 119.48V148.32C598.8 149.04 598.56 149.24 597.84 149.24C597.12 149.28 594.76 149.32 592.2 149.2C592.64 150.08 593.16 151.44 593.32 152.24C596.64 152.28 598.76 152.16 600.04 151.68C601.32 151.2 601.8 150.32 601.8 148.36V119.48H598.8ZM606.4 115.88C602.56 117.32 596.08 118.68 590.44 119.56C590.84 120.24 591.2 121.36 591.36 122.04C597.08 121.24 603.88 120 608.52 118.4L606.4 115.88ZM610.4 115.76C610.56 134.8 614.12 152.36 621.96 152.36C624.96 152.36 626.04 150.4 626.6 143.76C625.76 143.44 624.68 142.76 624.04 142.08C623.8 147.24 623.32 149.32 622.24 149.32C617.36 149.32 613.44 134.12 613.52 115.76H610.4ZM621.24 131.96C617.68 138.72 611.08 144.88 603.96 148.32C604.72 149 605.56 149.96 606.04 150.72C613.4 146.84 620 140.4 623.92 133.08L621.24 131.96ZM644.88 147.72V150.48H661.52V147.72H644.88ZM643.44 136.12V152.28H646.36V138.92H659.96V152.12H663V136.12H643.44ZM640.04 129.52L640.4 132.52C646.24 132.2 654.92 131.72 663.16 131.2L663.2 128.44C654.72 128.88 645.72 129.32 640.04 129.52ZM655.64 122.84C658.8 126.4 662.32 131.36 663.88 134.56L666.64 133C665.04 129.84 661.52 125.04 658.24 121.52L655.64 122.84ZM649.4 115.36C648.08 119.96 645.52 126.36 643.4 130.36L646.08 131.2C648.24 127.32 650.88 121.16 652.8 116.2L649.4 115.36ZM631.72 117.92C634.44 119.08 637.68 120.96 639.28 122.4L641.04 119.88C639.4 118.48 636.04 116.68 633.36 115.68L631.72 117.92ZM629.52 128.84C632.28 129.84 635.64 131.56 637.32 132.88L639 130.28C637.28 129 633.84 127.4 631.16 126.52L629.52 128.84ZM630.84 149.64L633.4 151.68C635.76 147.96 638.52 142.96 640.6 138.72L638.4 136.76C636.08 141.32 632.96 146.6 630.84 149.64ZM673.76 127.24V142.04H676.48V129.32H685.08V127.24H673.76ZM683.64 127.24V138.96C683.64 139.32 683.52 139.44 683.16 139.44C682.76 139.48 681.68 139.48 680.4 139.44C680.72 140 681.08 140.88 681.24 141.56C683.12 141.56 684.44 141.52 685.28 141.16C686.12 140.76 686.36 140.2 686.36 138.96V127.24H683.64ZM680.92 122.8V125H694.96V122.8H680.92ZM676.6 116.48V118.88H688.48V116.48H676.6ZM680.24 142.96V148.24C680.24 151.16 681.28 151.88 685.4 151.88C686.24 151.88 692.2 151.88 693.12 151.88C696.32 151.88 697.2 150.84 697.56 146.52C696.76 146.36 695.6 145.96 694.92 145.52C694.8 148.88 694.48 149.36 692.84 149.36C691.52 149.36 686.56 149.36 685.64 149.36C683.56 149.36 683.2 149.2 683.2 148.2V142.96H680.24ZM684.36 142.36C686.56 143.44 689.08 145.12 690.32 146.36L692.28 144.6C690.96 143.32 688.36 141.72 686.24 140.76L684.36 142.36ZM696.76 143.92C699.56 145.96 702.52 148.96 703.76 151.16L706.32 149.56C705 147.36 701.92 144.4 699.12 142.48L696.76 143.92ZM674.96 142.84C674.2 145.72 672.48 148.28 669.56 149.68L671.92 151.32C675.12 149.72 676.64 146.88 677.56 143.76L674.96 142.84ZM677.04 131.64C678.64 132.28 680.64 133.32 681.64 134.12L682.88 132.6C681.84 131.8 679.8 130.84 678.2 130.28L677.04 131.64ZM676.8 135.84C678.48 136.52 680.52 137.64 681.52 138.48L682.76 137C681.72 136.12 679.68 135.12 678 134.48L676.8 135.84ZM692.44 126.6C691.48 128.56 689.56 131.64 687.84 134.12C690.16 136.88 692.36 140.12 693.44 142.2L695.72 141.12C694.68 139.28 692.6 136.36 690.6 134.04C692 132 693.76 129.44 694.96 127.28L692.44 126.6ZM699.48 126.72C698.44 128.64 696.48 131.72 694.72 134.12C697.16 136.92 699.52 140.08 700.64 142.2L702.96 141.08C701.84 139.28 699.64 136.36 697.56 134.12C699.04 132.08 700.8 129.52 702 127.4L699.48 126.72ZM686.84 116.48V118.12H687.72C691.4 122.28 698.16 125.76 704.36 127.64C704.88 126.88 705.88 125.8 706.6 125.28C700.36 123.72 693.48 120.4 690.12 116.48H686.84ZM685.76 117.16C682.24 120.8 675.32 124.12 669.36 125.64C670 126.24 670.84 127.32 671.28 128C677.24 126.24 684.2 122.52 688.08 118.28L685.76 117.16Z" fill="white"/>
<path d="M559.5 113.5H547V162.5H585.5V157.5H590L591 161L602 160L605.5 162L613 157.5L617 162L627 161L629 156.5L635 161L638 156.5L639 162H666.5V157.5L672.5 161L677.5 156.5L679.5 161H699L702.5 157.5L708.5 161L718.5 154.5L712.5 143L715.5 140.5L710 134L715.5 122V115.5C711.5 115.5 698.167 109.833 694.5 107H672V115.5L664.5 117L656.5 107L647.5 103L643.5 112.5L631.5 107L628 113.5L622 108.5H608L604.5 104.5L583.5 113.5H573L575.5 107L562.5 104.5L559.5 113.5Z" stroke="white"/>
<path d="M1021 215C1021 191.5 1009.5 187 995.5 187C981.5 187 968.6 196.6 969 215C969.5 238 984 246.5 999.5 246.5C1009.7 246.5 1021 238.5 1021 215Z" fill="white"/>
<path d="M1067.01 215C1067.01 191.5 1055.51 187 1041.51 187C1027.51 187 1014.61 196.6 1015.01 215C1015.51 238 1030.01 246.5 1045.51 246.5C1055.71 246.5 1067.01 238.5 1067.01 215Z" fill="white"/>
<path d="M985.62 202.68V205.36H1013.42V202.68H985.62ZM981.46 209.92V212.56H1017.62V209.92H981.46ZM982.5 218.36V221.04H1016.46V218.36H982.5ZM984.66 225.76V228.4H1014.58V225.76H984.66ZM997.82 198.44V211.08H1000.9V198.44H997.82ZM997.82 220.68V235.24H1000.9V220.68H997.82ZM989.06 213.08C990.18 214.92 991.3 217.4 991.74 219L994.54 218.04C994.1 216.52 992.9 214.08 991.74 212.28L989.06 213.08ZM1007.06 211.96C1006.34 213.84 1005.06 216.52 1003.98 218.24L1006.54 219.04C1007.66 217.44 1009.1 215 1010.38 212.84L1007.06 211.96ZM1044.86 218.96V232.48H1047.58V218.96H1044.86ZM1040.82 208.08H1052.26V212.52H1040.82V208.08ZM1038.1 205.68V214.92H1055.06V205.68H1038.1ZM1036.02 217.52V235.2H1038.82V220.04H1054.02V235.08H1056.9V217.52H1036.02ZM1037.66 224.2V226.56H1055.38V224.2H1037.66ZM1037.7 230.84V233.32H1055.38V230.84H1037.7ZM1035.86 200.36V202.96H1057.14V200.36H1035.86ZM1021.7 205.92V208.68H1033.78V205.92H1021.7ZM1027.18 198.44V207.28H1030.1V198.44H1027.18ZM1030.42 215L1028.7 216.52C1029.98 217.76 1033.14 221.04 1034.3 222.52L1036.06 220.08C1035.18 219.2 1031.5 215.8 1030.42 215ZM1032.7 205.92V206.56C1030.46 212.6 1025.22 218.68 1020.22 221.92C1020.74 222.44 1021.5 223.84 1021.78 224.6C1027.1 220.88 1032.78 214.16 1035.54 206.88L1033.86 205.8L1033.34 205.92H1032.7ZM1027.18 217.96V235.16H1030.1V214.36L1027.18 217.96Z" fill="#FF5685"/>
<path d="M974 243C968.005 237.057 962.344 231.609 957.016 223.685C952.353 216.751 945.526 202.884 946.026 193.969C946.525 185.055 957.515 184.559 959.513 193.251C962.011 188.522 968.021 189.385 969.504 193.251C971.476 198.391 965.539 206.905 964.509 215.761C963.01 228.637 970.004 238.047 974 243Z" stroke="white"/>
<path d="M1062 243C1067.99 237.057 1073.66 231.609 1078.98 223.685C1083.65 216.751 1090.47 202.884 1089.97 193.969C1089.47 185.055 1078.48 184.559 1076.49 193.251C1073.99 188.522 1067.98 189.385 1066.5 193.251C1064.52 198.391 1070.46 206.905 1071.49 215.761C1072.99 228.637 1066 238.047 1062 243Z" stroke="white"/>
<path d="M539.659 503.034C539.659 512.034 540.659 523.034 532.659 528.703C553.659 528.703 618.159 536.534 628.159 525.034C638.16 513.534 642.659 481.534 628.159 472.534C613.659 463.534 558.795 464.114 548.159 472.534C536.159 482.035 539.659 494.034 539.659 503.034Z" fill="white"/>
<path d="M532.659 528.703C540.659 523.034 539.659 512.034 539.659 503.034C539.659 494.034 536.159 482.035 548.159 472.534C558.795 464.114 613.659 463.534 628.159 472.534C642.659 481.534 638.16 513.534 628.159 525.034C618.159 536.534 553.659 528.703 532.659 528.703ZM532.659 528.703C511.659 528.703 469.159 531.534 452.659 525.034C436.159 518.534 431.488 489.803 449.659 477.034C468.159 464.034 510.659 475.534 541.659 472.534" stroke="white"/>
<path d="M554.179 494.794V497.594H577.419V494.794H554.179ZM554.179 503.474V506.274H577.419V503.474H554.179ZM554.179 512.234V515.034H577.419V512.234H554.179ZM552.139 485.914V517.274H555.179V488.794H576.619V517.074H579.739V485.914H552.139ZM563.859 480.394C563.459 482.354 562.579 485.154 561.859 487.034L564.539 487.554C565.419 485.834 566.459 483.234 567.339 480.834L563.859 480.394ZM593.299 495.874V498.834H616.899V495.874H593.299ZM591.259 482.834V485.874H615.659V501.354H618.819V482.834H591.259ZM591.739 495.874V510.834C591.739 515.354 593.819 516.394 600.259 516.394C601.739 516.394 613.899 516.394 615.419 516.394C621.899 516.394 623.219 514.474 623.899 507.314C623.019 507.114 621.699 506.594 620.859 506.074C620.379 512.234 619.739 513.394 615.459 513.394C612.739 513.394 602.259 513.394 600.139 513.394C595.739 513.394 594.819 512.914 594.819 510.794V495.874H591.739Z" fill="#FF5685"/>
<path d="M462.659 513.794V515.994H484.779V513.794H462.659ZM460.819 507.594V517.274H463.779V509.794H483.619V517.234H486.699V507.594H460.819ZM456.819 483.274V485.594H490.619V483.274H456.819ZM459.659 488.314V490.554H487.939V488.314H459.659ZM455.579 502.954V505.354H491.699V502.954H455.579ZM472.019 480.394V489.274H475.059V480.394H472.019ZM464.379 500.354C465.099 501.434 465.819 502.994 466.019 504.034L468.899 503.154C468.579 502.154 467.899 500.674 467.099 499.594L464.379 500.354ZM479.859 499.394C479.499 500.554 478.659 502.234 477.979 503.354L480.539 504.034C481.259 503.034 482.219 501.594 483.059 500.074L479.859 499.394ZM464.379 494.674H482.859V497.874H464.379V494.674ZM461.539 492.594V499.914H485.859V492.594H461.539ZM495.659 485.034V487.754H508.819V485.034H495.659ZM507.939 485.034V485.714C506.339 498.154 501.059 507.994 494.659 512.274C495.299 512.794 496.219 513.874 496.699 514.594C503.619 509.474 508.939 499.634 510.779 485.554L508.939 484.914L508.459 485.034H507.939ZM495.739 492.074C500.299 497.994 505.499 506.074 507.659 511.114L510.019 509.114C507.859 504.194 502.499 496.314 497.899 490.434L495.739 492.074ZM515.619 486.514V489.274H529.219V486.514H515.619ZM515.539 480.514C514.739 486.354 513.299 491.914 510.739 495.474C511.419 495.874 512.659 496.714 513.179 497.194C515.779 493.274 517.419 487.314 518.379 480.874L515.539 480.514ZM528.539 486.514V486.994C528.059 489.674 527.179 492.994 526.419 495.034L528.779 495.794C529.779 493.594 530.779 490.034 531.499 486.954L529.539 486.394L529.019 486.514H528.539ZM521.419 495.674L518.939 496.074C520.499 506.034 523.659 513.714 530.459 517.274C530.899 516.474 531.779 515.314 532.459 514.714C526.019 511.794 522.819 504.554 521.419 495.674ZM518.899 491.674V494.474C518.899 500.354 518.139 508.954 507.939 515.274C508.619 515.754 509.579 516.674 510.059 517.354C520.859 510.554 521.739 501.114 521.739 494.514V491.674H518.899Z" fill="white"/>
<path d="M1012.8 463.76L1013.56 466.6C1017.4 465.52 1022.6 464.08 1027.52 462.68L1027.2 459.92C1021.92 461.4 1016.4 462.88 1012.8 463.76ZM1013.64 453.04V455.8H1027.08V453.04H1013.64ZM1019.6 447.44V470.96C1019.6 471.48 1019.44 471.6 1018.92 471.64C1018.44 471.64 1016.76 471.64 1014.88 471.6C1015.28 472.36 1015.68 473.52 1015.8 474.28C1018.4 474.28 1020 474.24 1021.04 473.76C1022.08 473.32 1022.44 472.56 1022.44 470.96V447.44H1019.6ZM1028.08 453.2V455.8H1043.44V453.2H1028.08ZM1027.84 462.84C1031.64 465.08 1036.6 468.4 1039.04 470.48L1040.6 468.08C1038.08 466.08 1033.08 462.92 1029.32 460.8L1027.84 462.84ZM1041.72 453.2C1041.6 466.56 1041.16 474.64 1046.24 474.6C1048.6 474.6 1049.52 473.28 1049.84 468.72C1049.16 468.52 1048.12 468 1047.48 467.52C1047.36 470.84 1047.08 471.92 1046.36 471.92C1044.2 471.92 1044.24 465.72 1044.52 453.2H1041.72ZM1033.64 447.36C1033.52 461 1033.28 468.16 1025.72 472.24C1026.36 472.76 1027.24 473.76 1027.6 474.44C1035.84 469.88 1036.32 461.84 1036.48 447.36H1033.64ZM1024.72 476.56C1025.2 478.96 1025.48 482.08 1025.52 483.96L1028.44 483.52C1028.4 481.72 1028 478.68 1027.48 476.32L1024.72 476.56ZM1032.96 476.48C1034 478.88 1035 482 1035.36 483.92L1038.32 483.28C1037.92 481.4 1036.84 478.28 1035.76 476L1032.96 476.48ZM1041.2 476.32C1043.2 478.8 1045.48 482.24 1046.48 484.36L1049.28 483.08C1048.24 480.92 1045.88 477.6 1043.88 475.2L1041.2 476.32ZM1017.96 475.44C1016.6 478.2 1014.52 481.28 1012.68 483.16L1015.52 484.32C1017.36 482.24 1019.36 478.96 1020.72 476.2L1017.96 475.44ZM1054.32 457.24V463.96H1056.88V459.84H1085.16V463.96H1087.84V457.24H1054.32ZM1059.8 453.28C1060.6 455.08 1061.44 457.44 1061.76 458.88L1064.12 457.84C1063.8 456.44 1062.88 454.16 1062.08 452.44L1059.8 453.28ZM1068.96 452.92C1069.6 454.72 1070.4 457.2 1070.72 458.64L1073.16 457.72C1072.8 456.32 1072 453.96 1071.28 452.16L1068.96 452.92ZM1084.52 447.96C1077.48 449.08 1065.24 449.84 1055.32 450.04C1055.6 450.68 1055.92 451.72 1055.96 452.44C1065.8 452.32 1078 451.6 1085.48 450.4L1084.52 447.96ZM1080.32 451.56C1079.52 453.44 1078 456.12 1076.84 457.8L1078.96 458.6C1080.24 457 1081.72 454.6 1083 452.44L1080.32 451.56ZM1065.76 471L1063.56 472.04C1068.12 478.56 1076.72 482.32 1086.56 483.68C1086.88 482.88 1087.56 481.68 1088.16 481C1078.4 479.96 1069.76 476.6 1065.76 471ZM1064.4 470.12V472.76H1081.6V470.12H1064.4ZM1080.64 470.12V470.6C1077.44 476.6 1069.48 479.8 1061.16 481.12C1061.6 481.68 1062.32 482.92 1062.52 483.64C1071.12 481.96 1079.48 478.36 1083.36 471.2L1081.72 470.04L1081.24 470.12H1080.64ZM1057.2 464.32V466.92H1084.84V464.32H1057.2ZM1065.56 460.84C1063.84 470.72 1060 477.6 1052.68 481.48C1053.24 482.04 1054.24 483.28 1054.56 483.84C1062.24 479.32 1066.4 472.04 1068.4 461.2L1065.56 460.84Z" fill="white"/>
<path d="M1010.5 493C1016 493 1017 490.5 1021 490.5C1025 490.5 1024.5 493 1029 493C1033.5 493 1034.5 490.5 1039.5 490.5C1044.5 490.5 1045.5 494 1050 494C1054.5 494 1054.5 490.5 1059.5 490.5C1064.5 490.5 1065 494 1070 494C1075 494 1077 491.5 1081.5 491.5C1085.1 491.5 1087.5 494 1091.5 494" stroke="white"/>
<path d="M1008.5 498.5C1014 498.5 1014.5 496 1019 496C1023.5 496 1024.5 498.5 1029 498.5C1033.5 498.5 1034.5 496 1039.5 496C1044.5 496 1045.5 499.5 1050 499.5C1054.5 499.5 1054.5 496 1059.5 496C1064.5 496 1065 499.5 1070 499.5C1075 499.5 1077 497 1081.5 497C1085.1 497 1087.5 499.5 1091.5 499.5" stroke="white"/>
<path d="M996 487.593C996 484.093 1000.5 483.723 1002 485.223C1002.5 483.093 1003.9 480.472 1007 481.093C1012 482.093 1009.5 494.093 1004.5 501.093C1005.5 496.093 996 491.593 996 487.593Z" fill="white" stroke="white"/>
<path d="M985.214 457.805C986.5 452.659 993.5 453.683 994.714 457.805C993.206 452.683 996.556 446.891 1002.5 448.183C1014 450.683 1006.71 476.304 1000.21 481.805C999.213 470.305 982.963 466.804 985.214 457.805Z" fill="#FFD39F"/>
<path d="M949.56 283.04V285.88H982.68V283.04H949.56ZM948.08 297.32V300.2H983.96V297.32H948.08ZM971.92 284.52V317.24H975V284.52H971.92ZM957.68 284.52V295.6C957.68 302.52 956.76 309.84 948.16 315.16C948.92 315.64 950 316.68 950.52 317.36C959.72 311.56 960.72 303.36 960.72 295.6V284.52H957.68ZM998.16 291.6V311.68C998.16 315.6 999.4 316.68 1003.64 316.68C1004.56 316.68 1010.52 316.68 1011.48 316.68C1015.84 316.68 1016.76 314.44 1017.2 306.88C1016.32 306.68 1015.08 306.12 1014.36 305.52C1014.04 312.44 1013.68 313.92 1011.32 313.92C1009.96 313.92 1004.92 313.92 1003.92 313.92C1001.72 313.92 1001.24 313.56 1001.24 311.68V291.6H998.16ZM998.48 282.88C1003.32 284.6 1009.16 287.6 1012.24 289.92L1014.16 287.28C1011 285.12 1005.2 282.24 1000.36 280.6L998.48 282.88ZM991.48 294.8C990.92 300 989.6 305.84 986.92 309.36L989.64 311C992.52 307.16 993.76 300.76 994.36 295.4L991.48 294.8ZM1014.8 294.84C1018.2 299.36 1021.2 305.6 1022.08 309.8L1025.08 308.36C1024.08 304.12 1021.08 298.08 1017.48 293.52L1014.8 294.84Z" fill="white"/>
<path d="M938 295C938 292.791 936.209 291 934 291C931.791 291 930 292.791 930 295" stroke="white" stroke-linecap="round"/>
<path d="M1044 293C1044 290.791 1042.21 289 1040 289C1037.79 289 1036 290.791 1036 293" stroke="white" stroke-linecap="round"/>
<path d="M1040 303C1034 329.5 1003.5 330.5 987.5 330.5C971.5 330.5 940.5 332 934.5 303" stroke="white" stroke-linecap="round"/>
<path d="M523.283 673.5C526.083 687.5 527.283 696.5 523.283 703C532.783 696.5 546.283 700.5 556.783 701.5C568.231 702.59 584.681 698.5 595.783 698.5C606.885 698.5 623.783 701.5 638.783 700.5C633.283 690.5 640.283 677.5 636.283 666C633.153 657 637.783 648.833 638.783 645C628.283 646.5 599.635 649.847 570.783 646C548.283 643 531.283 651 521.783 645C520.616 647 520.483 659.5 523.283 673.5Z" fill="white" stroke="white" stroke-linecap="round"/>
<path d="M524.283 708C526.616 706.5 532.483 703.8 537.283 705C543.283 706.5 553.283 709 560.283 709C567.283 709 584.283 705 594.283 705C606.283 705 624.283 708 649.283 708C645.783 701.5 642.783 693 642.783 686C642.783 679 645.768 675.927 644.783 671C643.783 666 641.783 665 641.783 659C641.783 655 644.283 649 645.783 645" stroke="white" stroke-linecap="round"/>
<path d="M558.643 677.84V688.48H561.603V677.84H558.643ZM548.843 662.32V664.48H571.803V662.32H548.843ZM551.883 669H568.803V672.4H551.883V669ZM549.083 666.84V674.56H571.723V666.84H549.083ZM546.483 676.8V691.24H549.323V679.12H571.363V691.04H574.283V676.8H546.483ZM548.003 682.24V684.32H572.723V682.24H548.003ZM548.043 687.64V689.92H572.643V687.64H548.043ZM558.643 654.4V658.88H561.723V654.4H558.643ZM543.483 657.04V664.64H546.363V659.64H574.203V664.64H577.203V657.04H543.483ZM582.803 659.6V662.44H617.843V659.6H582.803ZM592.563 673.88V676.48H611.363V673.88H592.563ZM590.443 667.08V691.2H593.403V669.76H610.883V667.08H590.443ZM610.203 667.08V687.44C610.203 688.04 609.963 688.24 609.283 688.28C608.563 688.28 606.123 688.32 603.443 688.2C603.883 689.04 604.323 690.28 604.443 691.12C607.883 691.12 610.123 691.12 611.403 690.64C612.763 690.16 613.123 689.24 613.123 687.48V667.08H610.203ZM595.883 654.4C593.723 662.44 589.003 670.92 581.843 675.84C582.443 676.44 583.363 677.48 583.763 678.16C591.403 672.8 596.203 663.92 598.923 655.12L595.883 654.4ZM592.563 680.64V683.24H611.363V680.64H592.563Z" fill="#FF5685"/>
<path d="M960 684.5C956.5 668 955.667 639.167 954 623C969.5 642.5 1042 643.5 1051 623C1050 632.5 1047.32 673.244 1043.5 684.5C1033.5 714 1026.5 737 1032 753.5H971.5C976 736.5 963.5 701 960 684.5Z" stroke="white" stroke-linecap="round"/>
<path d="M964.5 687C961.238 671.658 961 661 960 646C971 660.5 1032 664 1046 646C1044 657.5 1042.93 674.5 1038 689C1028.68 716.43 1023 738.5 1027.5 751H975.5C979.694 735.193 967.762 702.342 964.5 687Z" fill="white"/>
<path d="M975.76 609.72V630.08H978.64V612.36H998.08V609.72H975.76ZM974.92 596.64V599.24H1000.76V596.64H974.92ZM997.08 609.72V627.2C997.08 627.68 996.92 627.8 996.36 627.84C995.88 627.88 994.12 627.88 992.16 627.84C992.48 628.44 992.84 629.28 992.96 629.92C995.76 629.92 997.52 629.92 998.52 629.56C999.56 629.16 999.88 628.56 999.88 627.16V609.72H997.08ZM981.6 593.44V602.32H984.44V593.44H981.6ZM991.04 593.44V602.32H993.88V593.44H991.04ZM974.68 603.56V606.12H1001.04V603.56H974.68ZM983 616.88C984.28 618.24 985.72 620.2 986.36 621.44L988.12 619.72C987.44 618.52 985.92 616.68 984.64 615.4L983 616.88ZM983.32 604.92C983.36 613.2 982.84 619.32 978.84 623.04C979.44 623.44 980.48 624.32 980.84 624.76C985 620.36 985.8 614.08 985.84 604.92H983.32ZM990.16 616.56C991.8 618.68 993.56 621.6 994.32 623.44L996.32 621.84C995.6 620.08 993.72 617.28 992.12 615.2L990.16 616.56ZM990.44 604.76C990.44 613.56 989.84 620.04 985.88 624.12C986.52 624.48 987.56 625.28 987.96 625.68C992.04 621 992.8 614.32 992.92 604.84L990.44 604.76ZM966.6 596.32C968.72 597.6 971.36 599.52 972.64 600.8L974.56 598.56C973.24 597.28 970.56 595.52 968.48 594.32L966.6 596.32ZM964.64 607.36C966.84 608.48 969.56 610.2 970.88 611.44L972.72 609.08C971.32 607.92 968.56 606.32 966.44 605.28L964.64 607.36ZM965.48 627.4L968.12 629.32C970.12 625.72 972.44 620.92 974.16 616.8L971.84 614.96C969.92 619.32 967.32 624.4 965.48 627.4ZM1023 615.2V618.04H1038.28V615.2H1023ZM1014.04 616.92L1011.56 617.92C1015.16 627.64 1021.84 629.68 1031.56 629.68H1040.44C1040.6 628.84 1041.08 627.48 1041.52 626.76C1039.8 626.8 1033 626.8 1031.72 626.8C1023.36 626.8 1016.92 625.2 1014.04 616.92ZM1021.64 608.16V627.04L1024.72 628.04V608.16H1021.64ZM1012.68 598.24H1034V606.12H1012.68V598.24ZM1009.72 595.4V609H1037.12V595.4H1009.72ZM1012.04 612C1011.44 617.76 1009.48 624.56 1004.72 628.2C1005.36 628.64 1006.36 629.64 1006.88 630.24C1012 626.28 1014.24 618.92 1015.2 612.36L1012.04 612Z" fill="white"/>
<path d="M1029.84 649.125C1029.34 646.125 1025.34 646.625 1024.34 648.625C1023.34 650.625 1024.74 652.225 1026.34 652.625C1028.34 653.125 1030.34 652.125 1029.84 649.125Z" stroke="white" stroke-linecap="round"/>
<path d="M1039.89 640.958C1039.22 636.782 1033.81 637.478 1032.45 640.262C1031.1 643.045 1033 645.272 1035.16 645.829C1037.87 646.525 1040.57 645.133 1039.89 640.958Z" stroke="white" stroke-linecap="round"/>
<path d="M1059.82 605.176C1058.63 597.869 1049.16 599.086 1046.8 603.958C1044.43 608.83 1047.74 612.727 1051.53 613.701C1056.27 614.919 1061 612.483 1059.82 605.176Z" stroke="white" stroke-linecap="round"/>
<path d="M1027.84 666.125C1027.34 663.125 1023.34 663.625 1022.34 665.625C1021.34 667.625 1022.74 669.225 1024.34 669.625C1026.34 670.125 1028.34 669.125 1027.84 666.125Z" fill="#FF5685"/>
</svg>
