<svg width="48" height="42" viewBox="0 0 48 42" fill="none" xmlns="http://www.w3.org/2000/svg">
<path d="M21.8307 18.3395C23.8058 17.5284 26.0277 17.5284 28.0027 18.3748C28.7786 18.6922 29.6604 18.3395 29.9777 17.5636C30.2952 16.7877 29.9425 15.906 29.1665 15.5885C26.4156 14.4247 23.4179 14.4247 20.6669 15.5532C17.916 16.6819 15.7647 18.7979 14.6361 21.5489C14.3893 22.1485 14.5303 22.7832 14.9535 23.2066C15.0947 23.3476 15.2357 23.4534 15.4473 23.524C16.2232 23.8414 17.1049 23.4887 17.4223 22.7128C18.2688 20.7025 19.8205 19.186 21.8307 18.3395V18.3395Z" fill="#FF5685"/>
<path d="M21.2671 25.0404C21.6551 24.1234 22.3956 23.3828 23.3126 22.9949C24.2296 22.6069 25.2877 22.6069 26.2046 22.9949C26.9804 23.3476 27.8622 22.9949 28.2148 22.2189C28.5322 21.4431 28.1796 20.5614 27.4036 20.244C25.7107 19.5386 23.8768 19.5386 22.184 20.2087C20.4911 20.9141 19.1862 22.1837 18.4809 23.8766C18.234 24.4761 18.375 25.1109 18.7983 25.5342C18.9393 25.6753 19.0804 25.7811 19.2919 25.8516C20.068 26.169 20.9497 25.8163 21.2671 25.0404V25.0404Z" fill="#FF5685"/>
<path d="M34.492 0.0352417C30.3659 -1.53303e-07 26.5216 2.0808 24.0176 5.50177C21.4783 2.0808 17.6694 0 13.5077 0C6.06613 0 0 6.63038 0 14.7773C0 19.4671 2.06 22.8277 3.7613 25.5367C3.15507 27.015 3.44428 28.802 4.65542 30.0132L6.80676 32.1642C8.3939 33.7513 11.0037 33.7513 12.5908 32.1642L14.0368 30.7184C15.6238 29.1314 15.6238 26.5215 14.0368 24.9345L11.8855 22.7831C10.2983 21.1961 7.68857 21.1961 6.10148 22.7831L6.03089 22.8537L5.84604 23.0545C4.30393 20.564 2.99791 18.0681 2.99791 14.7773C2.99791 8.42909 7.68857 3.31514 13.5078 3.31514C17.7752 3.31514 21.4784 6.13656 23.1008 10.1572V10.122C23.2066 10.5451 23.5592 10.8625 23.9824 10.8625C24.4057 10.8625 24.7584 10.5451 24.8642 10.122C26.4865 6.10132 30.1544 3.31514 34.4569 3.31514C40.2408 3.31514 44.9669 8.46433 44.9669 14.7773C44.9669 18.4453 43.3798 21.0904 41.5811 23.9118L41.5903 23.9187C41.4435 24.1516 40.626 25.3831 38.2306 27.9677C35.0576 30.8868 34.2454 31.1417 34.2454 31.1417C34.2454 31.1417 33.0205 27.8085 30.5073 26.5922C27.5201 25.0669 23.8414 25.4635 21.3727 27.9324C18.3396 30.9301 18.3044 35.8674 21.3023 38.9006C24.3352 41.9688 29.3081 42.004 32.3409 38.9357C33.3636 37.8777 34.0691 36.6434 34.3864 35.3032L34.457 35.2326C34.457 35.2326 39.8415 31.7962 43.9089 25.9926C43.9701 25.9241 44.0259 25.851 44.0757 25.7739L44.0853 25.7811C45.8135 23.0301 48 19.6444 48 14.7773C47.9997 6.63044 41.9336 0.0352417 34.4921 0.0352417H34.492ZM6.77152 26.3806L8.21752 24.9345C8.6407 24.5113 9.31079 24.5113 9.73402 24.9345L11.8854 27.0859C12.3086 27.5091 12.3086 28.1793 11.8854 28.6023L10.4393 30.0485C10.0162 30.4716 9.34608 30.4716 8.92285 30.0485L6.77146 27.8971C6.34823 27.4738 6.34823 26.8038 6.77152 26.3806ZM30.1895 36.8197C28.3204 38.6536 25.3226 38.6536 23.4534 36.8197C21.6194 34.9858 21.5841 31.9527 23.4534 30.0837C25.2873 28.2498 28.3204 28.2145 30.1895 30.0837C32.0232 31.9174 32.0586 34.9505 30.1895 36.8197Z" fill="#FF5685"/>
</svg>
