<svg width="164" height="41" viewBox="0 0 164 41" fill="none" xmlns="http://www.w3.org/2000/svg">
<path d="M79.1221 21.187C79.1709 23.0601 78.6844 24.9084 77.7198 26.5147C76.7264 28.0996 75.2317 29.3068 73.4733 29.9445C72.2118 30.4326 70.3345 30.6767 67.8415 30.6767H61.2297C60.9593 30.6767 60.8242 30.6035 60.8242 30.4627C60.8242 30.3219 61.072 30.198 61.5788 30.2149C62.356 30.2149 62.8235 30.1022 62.9868 29.815C63.0935 29.2719 63.1295 28.7172 63.0938 28.1649V14.4006C63.1409 13.9136 63.0931 13.422 62.953 12.9532C62.7728 12.6322 62.311 12.4801 61.5732 12.497C61.1977 12.497 61.0006 12.4069 60.9818 12.2267C60.9818 12.0634 61.1057 11.9789 61.3592 11.9789H61.8266C62.9079 11.9789 63.9555 11.9789 64.9636 12.007C66.4053 12.007 67.5204 12.0352 68.3427 12.0352C71.6242 12.0352 74.1379 12.711 75.8838 14.0627C78.0464 15.7522 79.1259 18.127 79.1221 21.187ZM74.4476 21.187C74.4476 18.2096 74.0065 16.0301 73.1242 14.6484C72.24 13.263 70.8714 12.5759 68.9566 12.5759C68.4953 12.535 68.031 12.6085 67.6049 12.7899C67.3177 12.9701 67.1769 13.3981 67.1769 14.0627V27.9452C67.1769 29.1336 67.2445 29.7925 67.3909 29.922C67.8234 30.1722 68.3254 30.275 68.8214 30.2149C72.5722 30.2149 74.4476 27.2112 74.4476 21.2039V21.187Z" fill="#120A28"/>
<path d="M90.583 20.6463C90.6018 21.1171 90.4384 21.577 90.1268 21.9304C89.9761 22.0941 89.7921 22.2236 89.5871 22.3101C89.382 22.3965 89.1609 22.438 88.9385 22.4316C87.9641 22.4316 87.4742 21.9811 87.4742 21.08C87.4857 20.7427 87.6107 20.4193 87.829 20.162C87.8737 20.1074 87.9012 20.0407 87.9078 19.9705C87.9078 19.8072 87.7952 19.7283 87.5643 19.7283C86.956 19.7283 86.4942 20.207 86.1732 21.1588C85.9351 22.4585 85.8463 23.7812 85.9085 25.1011V29.4377C85.896 29.5391 85.9059 29.6421 85.9375 29.7393C85.9691 29.8365 86.0217 29.9256 86.0916 30.0003C86.1614 30.0749 86.2468 30.1333 86.3416 30.1714C86.4365 30.2094 86.5386 30.2262 86.6407 30.2205C86.9279 30.2205 87.2714 30.2205 87.6657 30.2205C87.8628 30.2205 87.9641 30.305 87.9641 30.412C87.9641 30.519 87.8797 30.626 87.722 30.626H80.6371C80.44 30.626 80.3386 30.5697 80.3386 30.4514C80.3386 30.3331 80.4625 30.2768 80.7159 30.2768C81.1752 30.3184 81.6374 30.2388 82.0563 30.0459C82.2084 29.9107 82.2872 29.5109 82.2872 28.8463L82.2591 21.5643C82.2984 21.1257 82.2084 20.6851 82 20.2971C81.8497 20.1552 81.6728 20.0443 81.4795 19.9709C81.2862 19.8974 81.0803 19.8628 80.8736 19.8691C80.6078 19.8564 80.3427 19.8301 80.0795 19.7903C80.012 19.7903 79.9838 19.7171 79.9838 19.6157C79.9838 19.5143 80.057 19.4636 80.1978 19.4636H81.2003C82.7411 19.4386 84.2658 19.1451 85.7058 18.5963C85.8011 19.0042 85.8465 19.4221 85.8409 19.841V20.9673C86.0685 20.2744 86.4541 19.6439 86.9673 19.1257C87.406 18.7469 87.9705 18.546 88.5499 18.5625C88.8245 18.5515 89.0986 18.5956 89.356 18.6923C89.6133 18.7891 89.8486 18.9364 90.0479 19.1257C90.2426 19.3248 90.3914 19.5641 90.4838 19.8268C90.5762 20.0895 90.6101 20.3692 90.583 20.6463Z" fill="#120A28"/>
<path d="M95.8882 28.9759C95.8977 29.2306 95.8545 29.4846 95.7613 29.7218C95.6682 29.9591 95.5271 30.1746 95.3468 30.3549C95.1665 30.5352 94.951 30.6763 94.7137 30.7694C94.4765 30.8626 94.2225 30.9058 93.9678 30.8963C93.7073 30.9016 93.4484 30.8545 93.2066 30.7578C92.9647 30.661 92.7447 30.5166 92.5598 30.3331C92.3762 30.1576 92.2313 29.9458 92.1344 29.7111C92.0374 29.4764 91.9905 29.2241 91.9966 28.9702C91.9905 28.7094 92.0372 28.4501 92.134 28.2078C92.2308 27.9656 92.3757 27.7455 92.5599 27.5608C92.7441 27.376 92.9638 27.2305 93.2058 27.133C93.4477 27.0355 93.7069 26.988 93.9678 26.9934C94.2195 26.9902 94.4693 27.0385 94.7018 27.1354C94.9342 27.2322 95.1444 27.3756 95.3194 27.5566C95.5063 27.7416 95.6533 27.9631 95.7511 28.2072C95.849 28.4513 95.8956 28.7129 95.8882 28.9759Z" fill="#120A28"/>
<path d="M111.443 16.2704C111.465 16.9867 111.318 17.6981 111.014 18.3474C110.711 18.9968 110.26 19.5662 109.698 20.0099C108.38 21.0092 106.753 21.5117 105.102 21.4291C104.415 21.4119 103.73 21.3498 103.052 21.2433V28.1592C102.993 28.7504 103.06 29.3474 103.249 29.9107C103.384 30.0797 103.885 30.1867 104.753 30.2205C105.237 30.2205 105.479 30.2824 105.479 30.4514C105.479 30.6204 105.338 30.6823 105.051 30.6823H97.9269C97.5826 30.6993 97.2374 30.6823 96.8963 30.6316C96.8062 30.5978 96.7611 30.5471 96.7611 30.4796C96.7611 30.3444 96.9076 30.2768 97.1948 30.2768C97.7341 30.324 98.2768 30.241 98.7773 30.0346C98.9463 29.8882 99.0308 29.4715 99.0308 28.7844V14.8737C99.0695 14.1743 99.0241 13.4728 98.8956 12.7842C98.8055 12.5477 98.3324 12.4294 97.5158 12.4294C97.0315 12.4294 96.7893 12.3562 96.7893 12.2154C96.7893 12.0746 97.0146 11.9676 97.4651 11.9676H105.198C107.075 11.9676 108.489 12.2548 109.438 12.8293C110.052 13.1686 110.562 13.6677 110.915 14.2735C111.268 14.8793 111.451 15.5693 111.443 16.2704ZM107.09 16.4168C107.09 13.7435 106.251 12.405 104.573 12.4013C103.564 12.4013 103.063 12.8462 103.063 13.7304V20.8378C103.568 20.8531 104.073 20.8248 104.573 20.7533C105.071 20.6738 105.538 20.4596 105.924 20.1338C106.701 19.4467 107.09 18.2077 107.09 16.4168Z" fill="#120A28"/>
<path d="M122.212 27.3539C122.139 27.9312 121.9 28.4751 121.524 28.9195C121.093 29.5681 120.507 30.0985 119.818 30.4625C119.13 30.8264 118.361 31.0124 117.582 31.0033C116.754 31.0363 115.928 30.901 115.154 30.6058C114.379 30.3106 113.673 29.8615 113.077 29.2856C112.494 28.7082 112.036 28.0163 111.734 27.2534C111.432 26.4906 111.29 25.6734 111.32 24.8533C111.295 24.0413 111.432 23.2326 111.722 22.4738C112.012 21.715 112.449 21.0211 113.009 20.4323C113.554 19.857 114.213 19.4024 114.945 19.0978C115.676 18.7931 116.463 18.6453 117.256 18.6639C118.289 18.6332 119.31 18.8948 120.201 19.4186C120.638 19.6846 121.019 20.0345 121.32 20.4482C121.622 20.8619 121.839 21.3312 121.958 21.829C122.041 22.2112 122.096 22.599 122.121 22.9892C121.705 23.0399 120.043 23.0736 117.12 23.0962C116.67 23.0962 116.101 23.0962 115.431 23.1525C115.363 23.787 115.329 24.3296 115.329 24.7801C115.329 26.8789 115.772 28.3695 116.659 29.2518C116.907 29.5068 117.205 29.708 117.534 29.8426C117.864 29.9773 118.218 30.0427 118.573 30.0346C119.237 30.0229 119.878 29.7934 120.398 29.3813C120.985 28.9449 121.447 28.3624 121.738 27.6918C121.879 27.3482 121.998 27.1793 122.088 27.1793C122.178 27.1793 122.212 27.2412 122.212 27.3539ZM118.804 22.6231C118.87 21.6556 118.769 20.684 118.506 19.7508C118.435 19.5104 118.285 19.3005 118.081 19.1546C117.877 19.0088 117.63 18.9352 117.379 18.9455C116.279 18.9455 115.649 20.1714 115.487 22.6231H118.816H118.804Z" fill="#120A28"/>
<path d="M137.294 30.4852C137.294 30.6316 137.068 30.7048 136.618 30.7048H130.806C130.552 30.7048 130.428 30.6372 130.428 30.5021C130.428 30.3669 130.53 30.3275 130.744 30.3275H130.958C131.414 30.3275 131.684 30.2655 131.769 30.1473C131.884 29.7565 131.924 29.3477 131.887 28.9421V23.6932C131.887 21.7558 131.763 20.5975 131.515 20.2183C131.385 20.0478 131.213 19.9134 131.016 19.8277C130.818 19.742 130.603 19.7078 130.389 19.7283C130.14 19.7187 129.892 19.7591 129.658 19.8471C129.425 19.9351 129.212 20.069 129.032 20.2408C128.852 20.4047 128.708 20.6049 128.611 20.8281C128.514 21.0514 128.466 21.2927 128.469 21.5361V29.708C128.472 29.7907 128.494 29.8714 128.534 29.9438C128.575 30.0162 128.631 30.0782 128.699 30.1247C128.984 30.2132 129.281 30.2532 129.578 30.243C129.719 30.243 129.792 30.2993 129.792 30.4063C129.792 30.5133 129.73 30.5809 129.606 30.5978C129.482 30.6147 129.043 30.5978 128.255 30.5978C127.466 30.5978 126.835 30.5978 126.334 30.626C125.343 30.6654 124.335 30.6823 123.304 30.6823C123.09 30.6823 122.983 30.6203 122.983 30.4908C122.983 30.3613 123.253 30.2768 123.805 30.2768C124.357 30.2768 124.673 30.1698 124.763 29.9558L124.847 29.5785V23.3834C124.875 22.4763 124.857 21.5684 124.791 20.6632C124.74 20.3929 124.492 20.2577 124.064 20.2577H123.141C122.854 20.2577 122.713 20.2014 122.713 20.0831C122.713 19.9649 122.82 19.8973 123.034 19.8804C124.722 19.8802 126.381 19.4416 127.849 18.6076C127.942 18.5555 128.043 18.5193 128.148 18.5006C128.288 18.5006 128.362 18.647 128.362 18.9342V20.4717C128.778 19.887 129.331 19.4119 129.971 19.0873C130.612 18.7626 131.321 18.598 132.039 18.6076C133.59 18.6076 134.598 19.1482 135.063 20.2296C135.269 20.7107 135.393 21.2227 135.43 21.7445C135.475 22.3002 135.497 23.4547 135.497 25.2081V29.1504C135.457 29.4851 135.504 29.8244 135.632 30.136C135.722 30.2317 136.015 30.2824 136.511 30.2824C137.006 30.2824 137.294 30.3444 137.294 30.4852Z" fill="#120A28"/>
<path d="M151.937 30.4852C151.937 30.6316 151.706 30.7048 151.255 30.7048H145.482C145.229 30.7048 145.105 30.6372 145.105 30.5021C145.105 30.3669 145.212 30.3275 145.426 30.3275H145.634C146.096 30.3275 146.367 30.2655 146.445 30.1473C146.56 29.7565 146.6 29.3477 146.564 28.9421V23.6932C146.564 21.7558 146.44 20.5975 146.192 20.2183C146.062 20.0474 145.89 19.9127 145.693 19.827C145.495 19.7412 145.28 19.7072 145.066 19.7283C144.817 19.7187 144.568 19.7591 144.335 19.8471C144.102 19.9351 143.889 20.069 143.708 20.2408C143.533 20.4072 143.395 20.6085 143.303 20.8316C143.211 21.0548 143.167 21.2948 143.173 21.5361V29.708C143.179 29.7901 143.203 29.87 143.243 29.942C143.282 30.014 143.338 30.0764 143.404 30.1247C143.688 30.2132 143.985 30.2532 144.283 30.243C144.429 30.243 144.502 30.2993 144.502 30.4063C144.502 30.5133 144.435 30.5809 144.311 30.5978C144.187 30.6147 143.748 30.5978 142.959 30.5978C142.171 30.5978 141.546 30.5978 141.039 30.626C140.048 30.6654 139.04 30.6823 138.015 30.6823C137.795 30.6823 137.688 30.6203 137.688 30.4908C137.688 30.3613 137.964 30.2768 138.516 30.2768C139.068 30.2768 139.383 30.1698 139.473 29.9558L139.552 29.5785V23.3834C139.552 21.645 139.535 20.7383 139.501 20.6632C139.445 20.3929 139.203 20.2577 138.769 20.2577H137.857C137.57 20.2577 137.423 20.2014 137.423 20.0831C137.423 19.9649 137.53 19.8973 137.744 19.8804C139.432 19.8802 141.092 19.4416 142.559 18.6076C142.652 18.5555 142.753 18.5193 142.858 18.5006C143.004 18.5006 143.072 18.647 143.072 18.9342V20.4717C143.489 19.8873 144.041 19.4125 144.682 19.0879C145.322 18.7633 146.032 18.5985 146.75 18.6076C148.3 18.6076 149.31 19.1482 149.78 20.2296C149.983 20.711 150.105 21.223 150.14 21.7445C150.185 22.3002 150.208 23.4547 150.208 25.2081V29.1504C150.165 29.4856 150.214 29.826 150.348 30.136C150.433 30.2317 150.726 30.2824 151.221 30.2824C151.717 30.2824 151.937 30.3444 151.937 30.4852Z" fill="#120A28"/>
<path d="M164 19.1482C164 19.2778 163.966 19.351 163.893 19.3791C163.644 19.4191 163.391 19.4323 163.138 19.4186C162.846 19.3933 162.552 19.4219 162.271 19.503L162.108 19.8015L161.787 20.7477C161.64 21.1757 161.314 22.0543 160.812 23.3665L159.624 26.6949C157.841 31.6848 156.686 34.7035 156.16 35.751C155.515 37.0463 154.687 37.694 153.677 37.694C153.422 37.7066 153.168 37.6677 152.929 37.5796C152.69 37.4916 152.471 37.3561 152.286 37.1815C152.108 37.0054 151.97 36.7942 151.878 36.5615C151.787 36.3288 151.746 36.0796 151.756 35.8298C151.756 34.9456 152.241 34.5063 153.215 34.5063C153.361 34.4999 153.508 34.5258 153.643 34.5822C153.778 34.6387 153.899 34.7243 153.998 34.833C154.183 35.0642 154.338 35.3177 154.46 35.5877C154.515 35.6729 154.591 35.7426 154.68 35.7899C154.77 35.8372 154.871 35.8607 154.972 35.858C155.333 35.858 155.682 35.5539 156.014 34.9513C156.551 33.8485 157.007 32.7078 157.377 31.5383C157.236 31.2511 156.955 30.6091 156.543 29.6179C156.003 28.2512 155.28 26.4584 154.375 24.2394C154.161 23.6988 153.677 22.518 152.922 20.697C152.797 20.2749 152.573 19.8887 152.269 19.5706C151.877 19.402 151.45 19.3287 151.024 19.3566C150.81 19.3566 150.703 19.2947 150.703 19.1651C150.703 19.0356 150.81 18.9793 151.024 18.9793H157.647C157.844 18.9793 157.946 19.0412 157.946 19.1651C157.946 19.289 157.675 19.4017 157.135 19.3848C156.594 19.3679 156.324 19.4805 156.324 19.734C156.35 20.0238 156.425 20.3074 156.543 20.5731C156.741 21.08 156.848 21.3785 156.864 21.4629C157.75 23.9184 158.471 25.7845 159.027 27.061C160.705 22.7921 161.544 20.3516 161.544 19.7396C161.544 19.5425 161.336 19.4411 160.919 19.4411C160.058 19.4411 159.624 19.3623 159.624 19.1989C159.624 19.0356 159.731 18.9568 159.945 18.9568C160.133 18.9446 160.321 18.9446 160.508 18.9568C160.852 18.9905 161.319 19.0074 161.916 19.0074L162.716 18.968C163.172 18.9399 163.476 18.9286 163.617 18.9286H163.763C163.921 18.9455 164 19.0074 164 19.1482Z" fill="#120A28"/>
<path opacity="0.6" d="M26.4698 16.7378C23.4849 13.3136 15.8706 8.79124 9.24753 8.79124C2.62445 8.79124 0 12.7617 0 15.4143C0 18.0669 2.64698 24.6844 13.2462 28.6605C23.8453 32.6366 37.1703 36.0889 41.0619 40.5775C40.6283 35.7791 43.7371 23.1525 43.7371 17.8529C43.7371 12.5533 42.9711 0.698242 35.4808 0.0393134C25.5968 -0.833626 25.0618 13.0827 26.4698 16.7378Z" fill="#FF5685"/>
<path opacity="0.6" d="M43.7146 17.8529C43.7146 17.8529 43.264 9.15733 37.8011 6.44277C31.3639 3.23824 24.0143 9.66983 26.5374 16.7829C30.3445 27.5961 37.4012 33.1435 41.0676 40.5831C48.9973 28.2606 54.1673 25.5968 56.4764 17.8811C58.3799 11.534 55.1698 7.74373 52.2187 7.97464C49.414 8.19428 45.9898 10.2443 43.7146 17.8529Z" fill="#FF5685"/>
</svg>
