<svg width="130" height="130" viewBox="0 0 130 130" fill="none" xmlns="http://www.w3.org/2000/svg">
<path d="M12.6094 69.1719V59.75H3.1875V69.1719H12.6094ZM15.7344 113.562H34.6875V94.4062H15.7344V113.562ZM69.3438 28.375H59.8594V37.7656H69.3438V28.375ZM34.7031 15.7031H15.7344V34.8594H34.6875V15.7031H34.7031ZM91.3281 81.8594H81.9219V91.25H110.203V81.8594H100.828V72.3437H91.3438V81.8594H91.3281ZM69.3438 3.0625H59.8594V22H69.3438V3.0625ZM69.2969 75.5469H78.7812V66.2031H88.2188V56.6094H78.7344V66.0469H69.2969V75.5469ZM100.828 107.031V97.625H91.3438V107.016H100.828V107.031ZM110.266 62.9062H100.781V72.2969H110.266V62.9062ZM50.3906 0H0.0156248V50.2812H50.3906V0ZM44.1562 44.0312H6.35938V6.34375H44.1562V44.0312ZM116.516 69.1562H126V59.9531H116.516V69.1562ZM116.516 116.422H110.266V107.078H100.781V116.422H91.3281V126.016H126V116.766H126.016V97.5312H116.531V116.422H116.516ZM116.516 91.1875H126V81.7969H116.516V91.1875ZM113.406 15.7031H94.4375V34.8594H113.391V15.7031H113.406ZM78.7656 0V50.2812H129.141V0H78.7656ZM122.812 44.0312H85.0156V6.34375H122.812V44.0312ZM69.3438 97.4844H78.7812V88.2812H69.3438V75.5625H59.8594V125.781H69.2969V125.906H78.7812V116.516H69.3438V97.4844ZM22.0781 69.2812H53.5938V59.75H22.0781V69.2812ZM69.3438 44.0781H59.8125V53.4687H69.3438V44.0781ZM78.7344 116.375H88.2188V106.984H78.7344V116.375ZM0 129.047H50.375V78.7656H0V129.047ZM6.35938 85.1094H44.1562V122.797H6.35938V85.1094Z" fill="#3B5AFA"/>
</svg>
