<svg width="1104" height="418" viewBox="0 0 1104 418" fill="none" xmlns="http://www.w3.org/2000/svg">
<path d="M15.1919 298.008C-14.8081 259.508 -0.808266 176.007 91.6918 148.007C184.192 120.007 182.192 245.508 261.192 314.008C324.692 369.068 177.192 424.508 75.1919 409.008C-26.8081 393.508 45.1919 336.508 15.1919 298.008Z" fill="#FFEDF3" stroke="#3F3F3F"/>
<path d="M852.192 292.008C822.192 253.508 918 184 1010.5 156C1103 128 1067.53 227.976 1098 328C1128.31 427.492 1008.5 424.5 906.5 409C847.5 400.034 882.192 330.508 852.192 292.008Z" fill="#E2EEFF" stroke="#3F3F3F"/>
<path fill-rule="evenodd" clip-rule="evenodd" d="M878.812 207.068C878.812 207.068 873.756 206.501 872.151 203.741C870.546 200.981 871.485 199.084 871.485 199.084C871.485 199.084 867.795 196.412 867.488 193.761C867.182 191.11 870.088 188.147 869.487 186.443C868.885 184.738 863.258 184.55 862.159 183.781C861.061 183.012 859.891 181.897 859.495 179.124C858.323 178.799 853.635 179.282 852.168 177.793C850.701 176.305 855.296 165.318 856.831 162.491C858.116 160.122 855.139 159.551 854.166 156.503C853.193 153.455 853.549 150.265 855.498 146.523C857.447 142.781 857.497 140.535 857.497 140.535C857.497 140.535 852.096 141.079 846.839 139.204C841.582 137.33 843.508 132.551 843.508 132.551C843.508 132.551 846.831 124.88 860.827 119.91C874.823 114.94 874.183 113.405 879.478 111.926C884.773 110.447 896.482 106.045 904.124 108.599C905.824 106.814 904.192 106.78 906.789 107.269C909.385 107.757 912.993 109.001 916.114 115.253C917.649 118.328 920.782 117.06 922.109 117.914C923.436 118.768 929.436 121.241 929.436 121.241C929.436 121.241 923.806 121.686 924.107 122.571C924.408 123.456 932.817 128.31 932.767 147.188C932.752 152.74 928.648 157.064 928.77 161.16C928.831 163.187 928.486 171.137 929.436 173.801C930.387 176.466 929.436 176.463 929.436 176.463L947.421 186.443L951.418 188.438C951.418 188.438 959.494 188.87 964.074 190.434C968.654 191.999 971.731 190.134 974.732 191.1C977.732 192.065 988.95 193.236 992.05 194.426C995.151 195.617 1002.28 196.334 1006.7 209.064C1011.13 221.793 1012.36 217.824 1013.37 221.705C1014.38 225.586 1023.35 235.531 1024.02 236.342C1024.7 237.153 1044.36 282.655 1048 288.903C1051.65 295.151 1051.99 313.17 1052 318.842C1052.01 324.515 1050.21 367.294 1050.67 372.734C1051.12 378.173 1053 411 1053 411C1053 411 1025.5 418 978 416C930.5 414 902.126 408 902.126 408C902.126 408 902.696 396.224 902.126 392.694C901.556 389.163 900.128 378.722 900.128 378.722C900.128 378.722 899.339 377.808 898.795 376.726C898.252 375.643 896.952 364.461 896.797 361.423C896.642 358.385 897.451 355.055 897.463 353.439C897.475 351.824 888.88 327.601 887.471 322.834C886.063 318.067 872.817 296.887 872.817 296.887C872.817 296.887 869.03 300.359 868.154 304.205C867.278 308.051 864.631 311.59 863.492 312.189C862.353 312.788 858.573 317.757 857.497 319.508C856.42 321.259 851.878 329.036 850.169 330.153C848.461 331.27 848.035 334.877 846.173 336.141C844.311 337.404 842.285 337.133 840.178 338.137C838.07 339.141 834.345 339.909 832.185 339.467C830.024 339.026 798.515 316.148 792.218 311.524C785.921 306.9 765.574 292.895 765.574 292.895C765.574 292.895 769.528 280.084 772.901 276.927C770.193 275.055 765.304 271.806 763.576 269.608C761.847 267.41 760.911 268.278 760.911 268.278C760.911 268.278 756.62 263.187 756.914 260.294C757.209 257.4 758.913 256.967 758.913 256.967C758.913 256.967 758.471 254.298 759.579 252.975C760.687 251.652 760.911 250.979 760.911 250.979C760.911 250.979 756.784 248.899 756.248 246.322C755.713 243.745 758.495 241.573 760.245 241.665C761.995 241.756 764.908 242.33 764.908 242.33C764.908 242.33 755.243 232.778 752.252 231.019C749.26 229.26 747.246 228.085 746.257 226.362C745.268 224.64 747.298 222.148 749.587 222.37C751.877 222.592 763.985 230.148 769.571 235.677C775.157 241.205 776.314 239.957 778.23 240.999C780.146 242.041 780.876 243.253 782.893 244.326C784.909 245.398 787.169 247.358 792.218 262.29C793.325 265.562 794.883 266.282 794.883 266.282C794.883 266.282 795.672 265.986 797.547 266.947C799.422 267.908 815.178 282.521 818.196 283.58C821.214 284.639 824.191 290.899 824.191 290.899C824.191 290.899 827.251 292.05 828.188 292.895C829.124 293.74 827.544 290.277 829.52 288.903C831.496 287.528 832.851 285.576 832.851 285.576L838.846 280.919C838.846 280.919 839.124 275.732 840.178 273.6C841.232 271.468 842.842 270.274 842.842 270.274C842.842 270.274 843.993 264.791 846.173 263.62C848.352 262.45 849.503 256.967 849.503 256.967L850.836 250.979C850.836 250.979 852.145 239.788 854.166 235.677C856.187 231.566 857.497 220.374 857.497 220.374L878.812 207.068Z" fill="#83C3FF"/>
<path fill-rule="evenodd" clip-rule="evenodd" d="M225.144 149.508C225.144 149.508 226.908 155.42 228.48 158.159C230.052 160.899 230.922 166.642 229.814 169.473C228.707 172.304 228.282 173.057 229.147 174.797C230.012 176.536 235.005 183.851 233.818 185.444C232.631 187.038 227.512 187.15 226.478 188.106C225.444 189.063 225.811 193.43 225.811 193.43C225.811 193.43 224.905 193.696 223.809 194.096C222.713 194.496 223.809 196.092 223.809 196.092C223.809 196.092 217.838 196.704 215.802 196.092C214.544 196.577 211.779 198.513 211.799 202.081C211.813 204.589 213.058 210.432 211.131 211.398C209.205 212.365 206.924 211.712 206.461 212.729C205.997 213.747 206.076 219.93 202.457 220.05C198.838 220.169 194.016 218.124 188.445 212.729C186.775 211.113 183.048 216.463 182.44 218.719C181.831 220.974 186.348 235.76 188.445 242.676C190.541 249.592 197.862 273.493 187.778 289.925C194.5 287.801 198.847 288.65 201.123 288.594C203.398 288.539 205.795 285.033 209.13 284.602C212.465 284.17 215.975 285.31 218.471 284.602C220.967 283.893 222.382 281.942 225.811 281.274C229.24 280.607 229.453 280.535 230.482 279.943C231.51 279.351 232.404 278.785 233.818 278.612C235.232 278.44 237.522 278.649 242.492 273.288C247.16 268.253 247.144 269.432 253.168 266.633C260.348 263.299 267.657 256.641 269.182 255.32C270.707 253.999 273.057 251.475 275.187 252.658C277.481 253.932 275.279 260.184 269.182 263.306C263.085 266.428 263.722 270.419 267.18 273.288C270.639 276.158 278.882 277.163 286.531 273.288C294.179 269.414 295.755 267.592 297.207 267.964C298.659 268.337 298.65 271.776 292.536 276.616C286.422 281.455 281.752 281.684 278.524 281.274C275.295 280.864 276.522 283.271 276.522 283.271C276.522 283.271 282.072 284.417 283.862 283.936C285.651 283.456 285.863 283.271 285.863 283.271C285.863 283.271 286.684 281.509 287.865 281.274C289.046 281.039 291.201 281.274 291.201 281.274C291.201 281.274 292.762 277.154 295.205 277.281C297.648 277.408 296.592 281.415 293.87 284.602C291.805 287.019 289.838 287.061 287.198 289.26C284.558 291.459 280.804 292.334 279.858 293.253C278.913 294.172 273.309 292.868 270.517 292.587C268.808 292.416 268.583 293.759 267.18 293.918C264.347 294.24 260.424 291.398 257.172 291.256C251.614 291.015 247.52 290.566 244.494 291.256C242.728 291.66 239.156 293.253 239.156 293.253L238.489 300.573C238.489 300.573 240.123 301.835 240.49 305.897C241.918 304.8 246.783 306.557 249.165 306.563C251.546 306.569 257.381 304.766 260.508 303.235C263.635 301.704 269.5 298.89 271.184 300.573C272.944 302.333 267.155 305.542 262.51 307.894C257.864 310.245 258.506 311.221 258.506 311.221C258.506 311.221 262.291 311.403 265.846 310.555C269.4 309.708 273.853 309.224 273.853 309.224C273.853 309.224 278.016 305.466 281.193 306.563C283.641 307.408 282.527 310.555 282.527 310.555C282.527 310.555 284.923 313.138 281.86 314.548C278.797 315.959 273.759 318.06 269.849 319.872C265.939 321.684 266.077 321.709 265.179 321.869C264.28 322.028 254.822 321.274 250.499 321.203C246.176 321.132 227.636 318.46 223.809 319.207C219.976 319.955 217.361 320.262 213.598 321.483C209.275 322.886 203.124 325.196 203.124 325.196C203.124 325.196 204.622 333.817 201.79 335.844C198.957 337.871 178.955 337.553 168.427 344.495C157.9 351.437 162.841 368.413 163.757 377.104C164.672 385.795 166.5 406.5 166.5 406.5C166.5 406.5 144.5 411 111.5 411C78.5 411 61.0001 405.72 61.0001 405.72C61.0001 405.72 60.8393 364.992 71.6761 349.154C82.5129 333.315 79.0159 331.851 79.0159 331.851L82.3521 328.524C82.3521 328.524 82.0712 319.249 87.6901 315.879C93.309 312.51 82.9006 313.419 85.6884 307.894C88.4761 302.368 90.7208 277.354 91.0264 267.299C91.6142 247.969 96.9402 233.582 108.375 218.053C121.752 199.887 124.474 202.411 129.727 201.416C134.979 200.421 133.73 200.085 133.73 200.085C133.73 200.085 127.76 197.926 125.056 188.772C122.352 179.617 125.056 183.448 125.056 183.448L124.389 179.455H129.727C129.727 179.455 133.056 176.981 136.399 175.462C139.742 173.943 147.326 172.836 149.744 172.135C152.163 171.433 154.11 155.544 159.086 148.177C164.062 140.81 170.026 128.728 179.771 125.551C189.515 122.373 203.535 129.067 209.797 132.871C216.059 136.676 229.732 142.651 225.144 149.508Z" fill="#FF83A5"/>
<path d="M313.639 112.326C314.138 104.826 306.239 95.626 294.639 96.826C286.139 96.826 276.639 112.326 285.639 122.326C292.839 130.326 313.139 119.826 313.639 112.326Z" fill="#FFEDF3" stroke="#3F3F3F"/>
<path d="M279.5 142.22C279.816 137.742 281.311 131.067 273.984 131.783C268.614 131.783 262.613 141.037 268.298 147.008C272.847 151.784 279.184 146.697 279.5 142.22Z" fill="#FFEDF3" stroke="#3F3F3F"/>
<path d="M912.5 77.2261C911.5 67.7261 891.5 61.7261 885 77.2261C885 83.3927 887.9 96.1261 899.5 97.7261C914 99.7261 913.5 86.7261 912.5 77.2261Z" fill="#E2EEFF" stroke="#3F3F3F"/>
<path d="M950.438 5.76387C945.652 -2.50308 904.938 -1.23613 898.438 14.2639C890.26 33.7639 903.938 50.7639 920.438 50.7639C935.075 50.7639 961.438 24.7639 950.438 5.76387Z" fill="#E2EEFF" stroke="#3F3F3F"/>
</svg>
