<svg width="1202" height="527" viewBox="0 0 1202 527" fill="none" xmlns="http://www.w3.org/2000/svg">
<path d="M282.292 1.51638C225.744 -0.109821 19.6809 2.73596 1 1.51631C5.37571 44.8816 7.91812 117.63 7.91843 178.491C7.91864 221.21 1 314.29 1 354.948C1 401.693 8.40504 487.904 1 525.714C36.4595 523.274 120.659 525.714 170.643 525.714H548.805C599.294 525.714 842.366 524.087 891.34 525.714C930.52 527.015 1127.17 523.764 1200.11 518.396C1202.11 477.684 1200.11 408.155 1200.11 392.544C1200.11 373.03 1196.11 192.013 1196.11 164.774C1196.11 142.983 1188.03 48.3844 1196.11 1.51631C1075.53 7.72604 992.249 1.51633 918.211 1.51631C791.031 1.51628 629.219 8.09933 563.583 8.09933C497.948 8.09933 338.839 3.14258 282.292 1.51638Z" fill="white" stroke="#FF5685"/>
</svg>
