<svg width="578" height="97" viewBox="0 0 578 97" fill="none" xmlns="http://www.w3.org/2000/svg">
<path d="M67.5 15.7197C112.184 9.21225 426.174 -6.63472 558.225 17.2382C573.201 32.441 572.616 60.7193 559.5 71.7201C544 84.7201 235.999 85.2202 160.999 86.2202C85.9995 87.2202 40.589 78.547 29 65.2197C19 53.7197 16 23.2197 67.5 15.7197Z" fill="#FF5685"/>
<path d="M577 21.2199C459 -8.28033 114.47 8.87939 67.5 15.7197C16 23.2197 19 53.7197 29 65.2197C40.5889 78.547 85.9995 87.2202 160.999 86.2202C235.999 85.2202 544 84.7201 559.5 71.7201C575 58.7201 573 21.5921 548.5 10.4273C509 -7.57275 137.922 5.40672 91.5 7.22003C27.5004 9.71997 0.999794 30.3812 1 49.2201C1.00034 80.7201 52.5 95.7201 125 95.7201C177.693 95.7201 487 74.7202 553.5 86.2202" stroke="#FF5685"/>
</svg>
