<svg width="27" height="23" viewBox="0 0 27 23" fill="none" xmlns="http://www.w3.org/2000/svg">
<path d="M18.0564 7.10629C18.3638 7.10629 18.666 7.13313 18.9682 7.16534C18.1502 3.24665 14.0835 0.334473 9.44113 0.334473C4.25164 0.334473 0 3.97671 0 8.60667C0 11.2773 1.41461 13.4701 3.7775 15.1745L2.83442 18.0974L6.13517 16.393C7.31532 16.6319 8.2636 16.8789 9.44113 16.8789C9.73812 16.8789 10.0325 16.8654 10.3217 16.844C10.1315 16.181 10.0325 15.4939 10.0299 14.8041C10.0325 10.5553 13.5729 7.10629 18.0564 7.10629ZM12.9816 4.47325C13.6954 4.47325 14.1643 4.9537 14.1643 5.68644C14.1643 6.41381 13.6954 6.9023 12.9816 6.9023C12.2756 6.9023 11.567 6.41381 11.567 5.68644C11.567 4.9537 12.2756 4.47325 12.9816 4.47325ZM6.37485 6.89962C5.66624 6.89962 4.95243 6.41113 4.95243 5.68375C4.95243 4.95101 5.66624 4.47057 6.37485 4.47057C7.08346 4.47057 7.55239 4.95101 7.55239 5.68375C7.55239 6.41113 7.08346 6.89962 6.37485 6.89962ZM26.6769 14.6887C26.6769 10.7995 22.8994 7.62968 18.6556 7.62968C14.1617 7.62968 10.6265 10.8022 10.6265 14.6887C10.6265 18.5886 14.1643 21.7477 18.6556 21.7477C19.5961 21.7477 20.5444 21.5061 21.4874 21.2619L24.077 22.7247L23.3684 20.2929C25.2623 18.8248 26.6769 16.8842 26.6769 14.6887ZM16.0504 13.4701C15.5815 13.4701 15.1074 12.9897 15.1074 12.4985C15.1074 12.0154 15.5815 11.5269 16.0504 11.5269C16.7669 11.5269 17.2332 12.0154 17.2332 12.4985C17.2332 12.9897 16.7669 13.4728 16.0504 13.4701ZM21.2452 13.4701C20.7788 13.4701 20.3073 12.9897 20.3073 12.4985C20.3073 12.0154 20.7788 11.5269 21.2452 11.5269C21.9564 11.5269 22.4279 12.0154 22.4279 12.4985C22.4279 12.9897 21.9564 13.4728 21.2452 13.4701Z" fill="white"/>
</svg>
