<svg width="27" height="23" viewBox="0 0 27 23" fill="none" xmlns="http://www.w3.org/2000/svg">
<path d="M19.8403 11.1473C19.5354 11.0856 19.3374 10.9889 19.2462 10.8654C19.155 10.7393 19.1394 10.6238 19.1993 10.5191L19.2905 10.3634C19.3113 10.342 19.3322 10.3124 19.353 10.2695C19.3739 10.2265 19.4156 10.1379 19.4755 10.001C19.5354 9.86413 19.5823 9.7299 19.6136 9.593C19.6449 9.45609 19.6709 9.28965 19.6892 9.091C19.7074 8.89235 19.7022 8.70444 19.6735 8.52458C19.6449 8.3474 19.5823 8.15143 19.4911 7.94473C19.3999 7.73534 19.2723 7.54743 19.1107 7.37831C18.8267 7.0857 18.4541 6.8951 17.9981 6.81188C17.5395 6.72866 17.0835 6.7233 16.6249 6.79578C16.1663 6.86826 15.7364 6.96221 15.3299 7.07765C14.9234 7.19308 14.5873 7.30314 14.3241 7.40784L13.9281 7.59575C13.7248 7.65749 13.5555 7.70044 13.4252 7.72192C13.2923 7.74339 13.1907 7.73803 13.1203 7.70581C13.05 7.6736 12.9926 7.64407 12.9536 7.61186C12.9119 7.57964 12.8988 7.50716 12.9067 7.39173C12.9171 7.2763 12.9275 7.17697 12.9379 7.09375C12.9483 7.01053 12.9744 6.87899 13.0135 6.70182C13.0526 6.52464 13.0838 6.38237 13.1047 6.27767C13.1047 6.02533 13.089 5.79178 13.0578 5.57166C13.0265 5.35153 12.9614 5.10456 12.8598 4.83343C12.7581 4.5623 12.6096 4.34217 12.4168 4.17305C12.224 4.00661 11.979 3.8697 11.6846 3.76501C11.3902 3.66031 11.0097 3.6281 10.5407 3.67105C10.0717 3.71132 9.54537 3.83749 8.95388 4.04688C8.24254 4.29922 7.52078 4.66967 6.78859 5.16093C6.0564 5.65219 5.42062 6.16493 4.88386 6.69914C4.34449 7.23335 3.85202 7.75145 3.40385 8.25344C2.95568 8.75544 2.61173 9.16348 2.3668 9.48025L2.03067 9.98224C1.36102 10.8842 0.860737 11.7835 0.537637 12.6855C0.209325 13.5875 0.0581971 14.2667 0.0790423 14.7284V15.3888C0.201508 16.3954 0.501157 17.2947 0.977991 18.092C1.45482 18.8893 2.02546 19.5336 2.68469 20.0249C3.34653 20.5161 4.12301 20.9349 5.01675 21.2812C5.91048 21.6275 6.77035 21.8771 7.59373 22.0355C8.41712 22.1912 9.28741 22.3013 10.202 22.3657C11.7081 22.4919 13.2662 22.3711 14.8843 22.006C16.5024 21.6409 18.0059 21.0047 19.3973 20.1054C20.7913 19.2034 21.7711 18.1269 22.3417 16.8679C22.6883 16.1351 22.8654 15.4425 22.8759 14.7928C22.8863 14.1432 22.7795 13.6143 22.5554 13.2063C22.3313 12.7983 22.0421 12.4359 21.6851 12.1218C21.3281 11.8077 20.9946 11.5768 20.6793 11.4292C20.364 11.2815 20.0852 11.1876 19.8403 11.1473ZM10.5407 20.9188C8.34416 21.0235 6.48112 20.5832 4.94379 19.598C3.40906 18.6128 2.643 17.3672 2.643 15.8586C2.643 14.3714 3.40646 13.0882 4.93076 12.009C6.45507 10.9299 8.32592 10.3393 10.5407 10.2346C12.7555 10.1299 14.6264 10.5057 16.1507 11.3647C17.675 12.2238 18.4384 13.3969 18.4384 14.8841C18.4384 16.3928 17.662 17.7484 16.1064 18.9537C14.5508 20.1591 12.6956 20.8141 10.5407 20.9188ZM9.65741 12.2157C9.06853 12.2775 8.53958 12.4197 8.07057 12.6399C7.60155 12.86 7.23676 13.1123 6.97359 13.3942C6.71042 13.6761 6.48633 13.9794 6.30133 14.3042C6.11894 14.6291 5.99126 14.9485 5.92091 15.2626C5.85055 15.5767 5.80365 15.8639 5.78281 16.127C5.76196 16.3874 5.75154 16.5914 5.75154 16.7391L5.78281 16.9914V17.1176C5.78281 17.1793 5.80365 17.3055 5.84534 17.4934C5.88703 17.6813 5.94175 17.8558 6.01211 18.0115C6.08246 18.1699 6.19971 18.3417 6.36126 18.5296C6.52281 18.7175 6.71824 18.8759 6.93972 19.0021C8.28162 19.6732 9.53234 19.8772 10.6919 19.6141C11.8514 19.3511 12.7868 18.7497 13.4981 17.8075C13.7821 17.4504 13.9724 17.0129 14.061 16.4867C14.1522 15.9632 14.1313 15.4344 13.9984 14.9002C13.8655 14.366 13.6388 13.8801 13.3131 13.4398C12.9874 12.9996 12.5054 12.6587 11.8644 12.4171C11.226 12.1781 10.4886 12.111 9.65741 12.2157ZM8.55782 18.1538C8.43536 18.1753 8.3181 18.1806 8.20867 18.1699C8.09662 18.1591 7.995 18.1377 7.90381 18.1055C7.81 18.0732 7.7188 18.0357 7.63021 17.9954C7.53901 17.9551 7.46345 17.8961 7.40092 17.8236C7.34099 17.7538 7.28627 17.6786 7.23416 17.6035C7.18465 17.531 7.14296 17.4478 7.11169 17.3511C7.08042 17.2572 7.06479 17.1552 7.06479 17.0531C7.06479 16.8223 7.12472 16.5968 7.24718 16.3767C7.36965 16.1565 7.53641 15.9686 7.75007 15.8102C7.96374 15.6518 8.20346 15.5633 8.46663 15.5418C8.64902 15.5203 8.82621 15.5257 9.00078 15.5579C9.17276 15.5901 9.32128 15.6411 9.44374 15.7136C9.56621 15.7861 9.67304 15.8693 9.76424 15.9659C9.85544 16.0626 9.92318 16.17 9.96227 16.2961C10.0014 16.4223 10.0222 16.5565 10.0248 16.7042C10.0248 16.935 9.95966 17.1552 9.82678 17.3645C9.69389 17.5739 9.5167 17.7511 9.29262 17.8988C9.06853 18.0491 8.8236 18.1323 8.55782 18.1538ZM11.1504 15.8935C11.0071 15.9981 10.8612 16.0465 10.7075 16.0357C10.5564 16.025 10.4495 15.9579 10.387 15.8317L10.3245 15.7055C10.3036 15.6626 10.2932 15.6223 10.2932 15.5794V15.4532C10.2932 15.3915 10.3036 15.3378 10.3245 15.2975L10.387 15.1713C10.4052 15.1311 10.4391 15.0962 10.4782 15.0774L10.5694 14.9512C10.7309 14.825 10.8899 14.774 11.041 14.7955C11.1921 14.817 11.299 14.9002 11.3615 15.0478C11.4214 15.1311 11.4475 15.225 11.4371 15.3297C11.4266 15.4344 11.3954 15.5337 11.3459 15.6277C11.2964 15.7216 11.2312 15.8102 11.1504 15.8935ZM21.9769 9.32455C22.0994 9.32455 22.2114 9.29234 22.313 9.23059C22.4147 9.16885 22.4954 9.08832 22.558 8.99436C22.6179 8.9004 22.6596 8.80108 22.6804 8.69638C22.7013 8.67491 22.7117 8.64538 22.7117 8.60243C22.9566 6.21325 22.1437 4.85222 20.2728 4.51666C19.723 4.41197 19.2149 4.40123 18.7485 4.48445C18.6052 4.48445 18.4853 4.52203 18.3837 4.59451C18.2821 4.66699 18.1961 4.76095 18.1232 4.87638C18.0528 4.99181 18.0163 5.11261 18.0163 5.2361C18.0163 5.44549 18.0867 5.62266 18.23 5.77031C18.3733 5.91527 18.5453 5.99043 18.7485 5.99043C20.3354 5.61192 21.1874 6.13808 21.3099 7.56085C21.3516 7.91789 21.3307 8.25076 21.2473 8.56753C21.2473 8.77692 21.3177 8.95409 21.461 9.10174C21.5991 9.24938 21.7737 9.32455 21.9769 9.32455ZM21.4584 0.465792C20.5647 0.256403 19.3634 0.29667 17.86 0.591962C17.8391 0.591962 17.8183 0.6027 17.7975 0.624176L17.7662 0.688603L17.7349 0.720816C17.5108 0.782559 17.3284 0.914099 17.1851 1.11275C17.0418 1.3114 16.9715 1.52616 16.9715 1.75702C16.9715 2.07111 17.0731 2.33418 17.2763 2.54357C17.4796 2.75296 17.7245 2.85766 18.0085 2.85766H18.0997C18.1206 2.85766 18.1649 2.84692 18.2378 2.82544C18.3082 2.80397 18.3863 2.78786 18.4671 2.77712C18.5479 2.76638 18.6339 2.74491 18.7277 2.71269C18.8189 2.68048 18.9023 2.65095 18.9726 2.61874C19.043 2.58652 19.1811 2.57042 19.3843 2.57042C19.5875 2.57042 19.8377 2.58652 20.1321 2.61874C20.4266 2.65095 20.7523 2.7288 21.1092 2.85497C21.4662 2.98114 21.8206 3.13684 22.1776 3.32744C22.5319 3.51535 22.8889 3.77843 23.2459 4.1113C23.6028 4.44686 23.9129 4.83343 24.1761 5.27368C24.705 6.50854 24.8066 7.70313 24.4809 8.85477C24.4809 8.87624 24.4757 8.89772 24.4653 8.91919C24.4549 8.94067 24.4393 8.99167 24.4184 9.07489C24.3976 9.15811 24.3767 9.23596 24.3559 9.31113C24.335 9.38361 24.3142 9.48025 24.2933 9.593C24.2725 9.70843 24.2621 9.80775 24.2621 9.89097C24.2621 10.0789 24.3116 10.2373 24.4132 10.3634C24.5148 10.4896 24.6425 10.5782 24.7936 10.6319C24.9474 10.6829 25.1245 10.7097 25.3278 10.7097C25.8958 10.7097 26.2319 10.3527 26.3336 9.64132C26.5785 8.82524 26.714 8.04406 26.7453 7.30046C26.7765 6.55686 26.7244 5.90185 26.5941 5.33811C26.4612 4.77169 26.2632 4.24284 26 3.75159C25.7369 3.26033 25.432 2.84155 25.0855 2.49525C24.7389 2.14896 24.3533 1.83487 23.9259 1.553C23.4986 1.27113 23.0869 1.04564 22.6909 0.876516C22.2974 0.707394 21.8831 0.570486 21.4584 0.465792Z" fill="white"/>
</svg>
