<svg width="19" height="22" viewBox="0 0 19 22" fill="none" xmlns="http://www.w3.org/2000/svg">
<path d="M18.7012 8.9686C16.8957 8.9686 15.1397 8.41906 13.6954 7.4025V14.4943C13.6954 18.1156 10.7164 21.0485 7.04098 21.0485C3.36559 21.0485 0.386597 18.1156 0.386597 14.4943C0.386597 10.8729 3.36559 7.93997 7.04098 7.93997C7.40852 7.93997 7.76531 7.97016 8.11351 8.02652V11.7828C7.78036 11.66 7.42571 11.5976 7.06892 11.5976C5.42897 11.5976 4.09852 12.906 4.09852 14.5224C4.09852 16.1369 5.42897 17.4473 7.06892 17.4473C8.70673 17.4473 10.0372 16.1369 10.0372 14.5224V0.435547H13.7491C13.7491 3.14302 15.978 5.33717 18.727 5.33717V8.96659L18.7012 8.9686Z" fill="white"/>
</svg>
