<svg width="403" height="103" viewBox="0 0 403 103" fill="none" xmlns="http://www.w3.org/2000/svg">
<path d="M134.833 13.8616C84.8481 6.51099 31.5 10.3618 20.5003 35.8617C9.5007 61.3616 29.0007 80.373 61.5004 84.5C124.501 92.5 256.501 92.4999 309.5 84.5L310.193 84.3955C339.324 80.0005 390.769 72.2391 383 39.5C376 9.99999 322.081 6.41957 291.333 10.3617C252.333 15.3617 168.832 18.8615 134.833 13.8616Z" fill="#3B5AFA"/>
<path d="M69.1 46.9641V50.9601H88.684V46.9641H69.1ZM69.1 54.6681V58.6641H88.684V54.6681H69.1ZM69.1 62.4081V66.4041H88.684V62.4081H69.1ZM66.148 39.1161V68.2041H70.54V43.2561H87.712V68.1321H92.32V39.1161H66.148ZM76.372 34.4001C76.12 36.2721 75.508 38.7921 74.932 40.5921L78.892 41.3121C79.684 39.7281 80.728 37.3521 81.592 34.9401L76.372 34.4001ZM112.228 35.8401V39.2241H128.824V35.8401H112.228ZM111.652 46.2081V49.5921H129.472V46.2081H111.652ZM111.652 51.3561V54.7401H129.328V51.3561H111.652ZM113.38 63.3801V66.8001H127.708V63.3801H113.38ZM108.808 40.9881V44.4801H131.992V40.9881H108.808ZM111.076 56.5401V68.2041H115.216V59.8881H125.62V68.0961H129.976V56.5401H111.076ZM106.144 34.5081C104.2 39.6561 100.852 44.7681 97.432 48.0081C98.152 49.0521 99.304 51.4281 99.664 52.4361C103.768 48.3681 107.728 41.9241 110.176 35.8041L106.144 34.5081ZM102.688 44.4801V68.1321H106.792V40.4121L106.756 40.3761L102.688 44.4801ZM135.412 43.4001V50.1321H138.94V47.0001H162.952V50.1321H166.66V43.4001H135.412ZM140.524 40.9161C141.136 42.3921 141.856 44.3721 142.108 45.5961L145.384 44.0121C145.096 42.8601 144.304 40.9881 143.62 39.5481L140.524 40.9161ZM148.732 40.5201C149.272 42.0321 149.92 44.0841 150.172 45.3081L153.592 43.9041C153.268 42.7161 152.584 40.7721 151.972 39.3321L148.732 40.5201ZM163.348 34.9401C156.4 35.9481 145.636 36.5601 136.456 36.7401C136.816 37.6401 137.248 39.0441 137.32 40.0521C146.32 40.0161 157.12 39.4401 164.536 38.3961L163.348 34.9401ZM158.704 38.9001C158.128 40.4481 157.048 42.6081 156.148 44.0481L159.136 45.0921C160.144 43.7961 161.332 41.8881 162.484 40.0161L158.704 38.9001ZM147.112 56.3961L143.98 57.7641C148.336 63.7041 155.536 66.9081 164.644 68.0241C165.112 66.9441 166.084 65.2161 166.876 64.2801C158.02 63.5601 150.64 60.9681 147.112 56.3961ZM145.456 54.9201V58.5561H160.468V54.9201H145.456ZM159.208 54.9201V55.5321C156.616 60.7521 149.74 63.4521 142.072 64.4961C142.72 65.2881 143.728 67.0521 144.052 68.0241C152.044 66.5841 159.46 63.2001 162.988 56.4321L160.648 54.8121L160 54.9201H159.208ZM138.472 49.5921V53.1561H163.636V49.5921H138.472ZM144.7 47.2881C143.512 55.6761 140.452 61.5441 134.152 64.7481C134.944 65.5041 136.384 67.1961 136.852 68.0241C143.62 64.0641 147.184 57.4401 148.804 47.7921L144.7 47.2881ZM177.1 46.9641V50.9601H196.684V46.9641H177.1ZM177.1 54.6681V58.6641H196.684V54.6681H177.1ZM177.1 62.4081V66.4041H196.684V62.4081H177.1ZM174.148 39.1161V68.2041H178.54V43.2561H195.712V68.1321H200.32V39.1161H174.148ZM184.372 34.4001C184.12 36.2721 183.508 38.7921 182.932 40.5921L186.892 41.3121C187.684 39.7281 188.728 37.3521 189.592 34.9401L184.372 34.4001ZM212.452 48.0801V52.3281H232.864V48.0801H212.452ZM209.788 36.4881V40.9161H230.812V54.3801H235.42V36.4881H209.788ZM210.22 48.0801V61.0761C210.22 66.2601 212.416 67.5561 219.184 67.5561C220.732 67.5561 229.264 67.5561 230.884 67.5561C237.4 67.5561 238.984 65.7201 239.74 58.8081C238.48 58.5561 236.536 57.8001 235.384 57.1161C234.916 62.3721 234.412 63.2721 230.776 63.2721C228.652 63.2721 221.056 63.2721 219.256 63.2721C215.368 63.2721 214.72 62.9481 214.72 61.0041V48.0801H210.22ZM252.634 65.3581C250.733 65.3581 249.045 65.0385 247.571 64.3993C246.105 63.7601 244.955 62.8865 244.119 61.7785C243.293 60.6621 242.884 59.3964 242.892 57.9817C242.884 56.8822 243.122 55.8723 243.608 54.9518C244.094 54.0314 244.75 53.2643 245.577 52.6507C246.412 52.0285 247.341 51.6322 248.364 51.4618V51.2828C247.017 50.9845 245.926 50.2984 245.091 49.2246C244.264 48.1422 243.855 46.8936 243.864 45.4788C243.855 44.1322 244.23 42.9305 244.989 41.8737C245.747 40.8169 246.787 39.9859 248.108 39.3808C249.429 38.7672 250.938 38.4603 252.634 38.4603C254.313 38.4603 255.808 38.7672 257.121 39.3808C258.442 39.9859 259.482 40.8169 260.24 41.8737C261.007 42.9305 261.391 44.1322 261.391 45.4788C261.391 46.8936 260.969 48.1422 260.125 49.2246C259.29 50.2984 258.212 50.9845 256.891 51.2828V51.4618C257.913 51.6322 258.834 52.0285 259.652 52.6507C260.479 53.2643 261.135 54.0314 261.621 54.9518C262.115 55.8723 262.362 56.8822 262.362 57.9817C262.362 59.3964 261.945 60.6621 261.109 61.7785C260.274 62.8865 259.124 63.7601 257.658 64.3993C256.2 65.0385 254.526 65.3581 252.634 65.3581ZM252.634 61.7018C253.614 61.7018 254.466 61.5356 255.19 61.2032C255.915 60.8623 256.477 60.3851 256.878 59.7714C257.278 59.1578 257.483 58.4504 257.491 57.6493C257.483 56.814 257.266 56.0768 256.839 55.4376C256.422 54.7899 255.847 54.2828 255.114 53.9163C254.389 53.5498 253.563 53.3666 252.634 53.3666C251.696 53.3666 250.861 53.5498 250.128 53.9163C249.395 54.2828 248.815 54.7899 248.389 55.4376C247.972 56.0768 247.767 56.814 247.776 57.6493C247.767 58.4504 247.963 59.1578 248.364 59.7714C248.764 60.3765 249.327 60.8496 250.051 61.1905C250.784 61.5314 251.645 61.7018 252.634 61.7018ZM252.634 49.7743C253.435 49.7743 254.142 49.6123 254.756 49.2885C255.378 48.9646 255.868 48.5129 256.226 47.9334C256.584 47.3538 256.767 46.6848 256.776 45.9263C256.767 45.1763 256.588 44.52 256.239 43.9575C255.889 43.3865 255.403 42.9476 254.781 42.6407C254.159 42.3254 253.443 42.1677 252.634 42.1677C251.807 42.1677 251.078 42.3254 250.447 42.6407C249.825 42.9476 249.339 43.3865 248.99 43.9575C248.649 44.52 248.483 45.1763 248.491 45.9263C248.483 46.6848 248.653 47.3538 249.003 47.9334C249.361 48.5044 249.851 48.9561 250.473 49.2885C251.104 49.6123 251.824 49.7743 252.634 49.7743ZM280.15 48.2601V55.4961C280.15 55.8921 280.006 56.0001 279.502 56.0001C278.962 56.0361 277.054 56.0361 275.542 55.9641C276.046 57.0441 276.658 58.6641 276.838 59.8161C279.322 59.8161 281.23 59.8161 282.67 59.2401C284.11 58.6281 284.506 57.5841 284.506 55.6041V48.2601H280.15ZM272.734 49.2321C271.15 51.8601 268.27 54.4881 265.462 56.1081C266.542 56.7921 268.378 58.1961 269.242 59.0241C271.978 57.0801 275.218 53.8761 277.234 50.7081L272.734 49.2321ZM290.842 50.3121C287.638 59.4201 280.654 62.8401 268.558 64.2081C269.458 65.2521 270.322 66.9801 270.754 68.2761C283.822 66.2961 291.346 62.2641 295.27 51.7161L290.842 50.3121ZM265.966 44.6241V48.6921H298.51V44.6241H265.966ZM282.742 37.8921V41.9241H294.73V37.8921H282.742ZM280.114 34.4361V47.1801H284.578V34.4361H280.114ZM270.898 36.7761V46.8201H275.29V36.7761H270.898ZM306.034 61.9041V66.1161H330.334V61.9041H306.034ZM306.034 51.7881V55.8921H331.054V51.7881H306.034ZM303.298 41.5281V68.1681H307.366V45.7401H329.074V68.0961H333.322V41.5281H303.298ZM311.686 34.7601V64.8201H315.934V34.7601H311.686ZM320.29 34.7601V64.5681H324.538V34.7601H320.29Z" fill="white"/>
<path d="M393 66.5C334.5 95 214.746 93.0835 183.746 92.0835C152.746 91.0835 12.746 112.083 11.246 45.0835C10.7554 23.1683 23.9593 12.059 43.2464 7.1013C82.9247 -3.09795 145.348 12.2377 170.246 13.5835C207.246 15.5835 312.254 2.42797 352 6.00003C403 10.5835 398 68.5 365.5 83C336.992 95.7193 196.746 101.084 134.246 102.084C71.7459 103.084 30.9142 90.3937 11.2454 73.0835C-1.25332 62.0836 -11.2534 29.548 37.7462 14.5481C81.582 1.12894 242.246 -0.628031 273.746 2.08349C305.246 4.795 384.5 -13.4999 402.5 38.0001" stroke="#3B5AFA"/>
</svg>
