<svg width="403" height="103" viewBox="0 0 403 103" fill="none" xmlns="http://www.w3.org/2000/svg">
<path d="M134.832 13.8616C84.8476 6.51099 31.4995 10.3618 20.4998 35.8617C9.50021 61.3616 29.0002 80.373 61.5 84.5C124.5 92.5 256.5 92.4999 309.5 84.5L310.192 84.3955C339.324 80.0005 390.769 72.2391 383 39.5C376 9.99999 322.081 6.41957 291.333 10.3617C252.332 15.3617 168.832 18.8615 134.832 13.8616Z" fill="#3B5AFA"/>
<path d="M393 66.5C334.5 95 214.746 93.0835 183.746 92.0835C152.746 91.0835 12.746 112.083 11.246 45.0835C10.7554 23.1683 23.9593 12.059 43.2464 7.1013C82.9247 -3.09795 145.348 12.2377 170.246 13.5835C207.246 15.5835 312.254 2.42797 352 6.00003C403 10.5835 398 68.5 365.5 83C336.992 95.7193 196.746 101.084 134.246 102.084C71.7459 103.084 30.9142 90.3937 11.2454 73.0835C-1.25332 62.0836 -11.2534 29.548 37.7462 14.5481C81.582 1.12894 242.246 -0.628031 273.746 2.08349C305.246 4.795 384.5 -13.4999 402.5 38.0001" stroke="#3B5AFA"/>
</svg>
