<svg width="1202" height="822" viewBox="0 0 1202 822" fill="none" xmlns="http://www.w3.org/2000/svg">
<path d="M516.5 20.6879C418.511 20.6874 139.418 10.0232 1 10.0232C1 105.074 32.6384 647.309 3.46326 818.204C48.3764 810.944 543.594 811.822 620.531 818.204C735.463 827.738 1097.61 809.832 1201 809.832V1C1069 10.0232 688.825 20.6888 516.5 20.6879Z" stroke="#7086FF"/>
<path d="M592.5 35.4539C494.397 35.4534 46.3723 36.9341 13 23.149C13 48.251 44 575.886 21.5 802.297C66.4657 795.039 547.473 794.44 624.5 800.82C720.362 808.76 1022.1 780.061 1183 792.945C1162.5 469.079 1187 137.831 1178 20.1958C1040 45.2978 765.026 35.4548 592.5 35.4539Z" fill="white" stroke="#7086FF"/>
</svg>
