<svg width="469" height="83" viewBox="0 0 469 83" fill="none" xmlns="http://www.w3.org/2000/svg">
<path d="M311.5 10.4546C343.84 13.1965 377.125 14.017 366.536 66.0467C383.983 59.3465 394.54 51.8468 399.98 45.4702C398.801 45.5213 397.638 45.5149 396.5 45.4479C386.941 44.8857 385 36.9479 388 31.9479C391.801 25.6134 402.799 26.3687 404.5 34.4479C405.069 37.1494 403.76 41.0386 399.98 45.4702C412.89 44.9104 427.749 37.4526 433.525 27.0443C429.266 27.3371 425.266 27.1545 422 26.4546C415 24.9546 411.32 18.267 417 11.4479C422.68 4.62884 436 6.7676 436 17.9479C436 21.1462 435.1 24.205 433.525 27.0443C427.749 37.4526 412.89 44.9104 399.98 45.4702C394.54 51.8468 383.983 59.3465 366.536 66.0467C353.469 71.0647 336.539 75.6343 315 78.9479C276 84.9479 69.3282 81.4035 29 73.448C-3.33149 67.0699 -3.99996 22.9479 26.0001 7.44794C54.6939 -7.3772 277.987 7.61333 311.5 10.4546Z" fill="#FFDBDB"/>
<path d="M366.5 66.2217C377.2 14.0189 343.877 13.1996 311.5 10.4546C277.987 7.61333 54.6939 -7.37719 26.0001 7.44794C-3.99996 22.9479 -3.33149 67.0699 29 73.448C69.3282 81.4035 276 84.9479 315 78.9479C385.286 68.1348 406.5 43.9479 404.5 34.4479C402.799 26.3687 391.801 25.6134 388 31.9479C385 36.9479 386.941 44.8857 396.5 45.4479C413.5 46.4479 436 33.9413 436 17.9479C436 6.7676 422.68 4.62884 417 11.4479C411.32 18.267 415 24.9546 422 26.4546C437.5 29.776 469.5 21.4479 467.5 5.94794" stroke="#FF5685"/>
<path d="M341.052 10.46C311.491 2.3873 48.4475 -2.55109 20.3895 10.46C-7.66854 23.471 -3.15956 52.7619 20.3893 63.9744C43.9383 75.1869 312.994 69.5806 339.048 63.9744C365.102 58.3681 370.613 18.5326 341.052 10.46Z" fill="white" stroke="#FF5685"/>
<path d="M70.553 22.0879C72.497 23.8519 74.765 26.3719 75.701 28.0999L79.193 25.6519C78.113 23.9599 75.773 21.5479 73.793 19.8559L70.553 22.0879ZM46.973 29.1079V33.2119H79.481V29.1079H46.973ZM46.289 39.2959L47.369 43.6519C52.013 42.7159 58.277 41.4559 64.109 40.2319L63.785 36.3079C57.485 37.4599 50.645 38.6479 46.289 39.2959ZM53.813 23.3119V47.5759C53.813 48.1879 53.597 48.3679 52.949 48.3679C52.301 48.4039 50.213 48.4039 48.161 48.2959C48.809 49.5199 49.529 51.4639 49.709 52.6879C52.661 52.6879 54.785 52.5439 56.225 51.8599C57.701 51.1759 58.169 49.9879 58.169 47.6479V23.3119H53.813ZM61.193 19.0999C57.485 20.3599 51.869 21.4759 46.793 22.1599C47.297 23.1319 47.837 24.7519 48.053 25.7599C53.273 25.1839 59.429 24.2119 64.109 22.7719L61.193 19.0999ZM64.721 19.1719C64.829 35.3359 67.637 52.8319 75.089 52.8319C78.365 52.8319 79.733 51.2479 80.417 44.8759C79.265 44.4079 77.789 43.3999 76.889 42.3919C76.673 46.6759 76.277 48.4399 75.521 48.4399C72.245 48.4399 69.005 33.6799 69.257 19.1719H64.721ZM74.513 34.3999C71.309 40.3399 65.441 45.2359 59.285 48.0439C60.365 49.0159 61.553 50.4559 62.201 51.5359C68.717 48.0799 74.585 42.7159 78.329 36.0199L74.513 34.3999ZM101.801 20.0719V23.9599H112.169V20.0719H101.801ZM110.549 20.0719V47.8999C110.549 48.4759 110.369 48.6559 109.793 48.6919C109.217 48.7279 107.309 48.7279 105.653 48.6199C106.193 49.6639 106.805 51.4999 106.949 52.5799C109.793 52.5799 111.737 52.5079 113.069 51.8599C114.401 51.1759 114.833 50.0959 114.833 47.9719V20.0719H110.549ZM94.133 20.7559C95.681 22.9519 97.553 25.9399 98.309 27.8119L101.837 25.6519C100.973 23.8159 98.957 20.9359 97.409 18.8479L94.133 20.7559ZM92.549 26.8399V52.6519H96.761V26.8399H92.549ZM88.445 18.9919C87.077 24.2479 84.701 29.5039 82.037 32.9599C82.721 34.0759 83.837 36.5599 84.125 37.6039C87.581 33.2479 90.605 26.4439 92.441 20.1439L88.445 18.9919ZM85.529 28.9279V52.6519H89.633V25.0039L89.489 24.9319L85.529 28.9279ZM142.841 22.4839V47.1439C142.841 47.8999 142.553 48.1519 141.689 48.1879C140.825 48.1879 137.693 48.2239 135.101 48.0439C135.785 49.2319 136.649 51.3559 136.901 52.6519C140.609 52.6519 143.237 52.5799 145.037 51.8239C146.765 51.1399 147.377 49.8439 147.377 47.2519V22.4839H142.841ZM122.249 29.6839V46.4599H126.461V29.6839H122.249ZM124.049 29.6839V33.7879H133.337V39.5839H124.049V43.6879H137.621V29.6839H124.049ZM118.937 21.2959V25.6519H151.553V21.2959H118.937ZM165.809 25.0759C168.005 27.8119 170.309 31.5919 171.245 34.1119L175.457 31.8439C174.413 29.3239 172.109 25.7959 169.769 23.1679L165.809 25.0759ZM154.109 44.0119L155.621 48.6199C159.689 46.8919 165.017 44.6599 169.805 42.4999L168.797 38.2519C163.541 40.4479 157.817 42.7519 154.109 44.0119ZM175.205 40.7719C178.517 44.4439 182.909 49.4479 184.817 52.6519L188.489 49.0879C186.437 45.9559 181.829 41.1679 178.553 37.7479L175.205 40.7719ZM180.101 20.9359C178.769 35.8039 175.061 44.5879 163.577 48.9079C164.621 49.8439 166.421 51.7879 167.033 52.7599C178.841 47.4319 183.197 37.6759 184.889 21.3679L180.101 20.9359ZM158.213 21.0799L159.041 44.4799L163.541 44.2999L162.749 20.8999L158.213 21.0799ZM203.429 19.3159V37.0999H207.533V19.3159H203.429ZM199.289 25.3999V29.2879H211.313V25.3999H199.289ZM199.829 35.2279V51.2479H203.573V35.2279H199.829ZM202.133 35.2279V38.8999H207.245V45.0199H202.133V48.6919H211.025V35.2279H202.133ZM214.013 18.9199C213.293 24.7159 211.889 30.4039 209.405 34.0039C210.125 34.8679 211.349 36.8119 211.745 37.6759C214.913 33.3199 216.821 26.4439 217.865 19.5679L214.013 18.9199ZM214.697 25.5439L213.617 29.1799H224.093V25.5439H214.697ZM218.873 27.0559C218.189 37.9999 215.957 45.5239 208.973 49.6639C209.765 50.3119 211.097 51.8599 211.565 52.5799C218.981 47.6119 221.609 39.4759 222.581 27.2719L218.873 27.0559ZM215.129 28.0279L212.105 29.3959C212.969 37.2799 214.841 47.5039 221.717 52.5439C222.257 51.4999 223.481 49.9159 224.237 49.1599C217.685 44.9839 215.885 35.4439 215.129 28.0279ZM196.733 18.9559C195.185 24.2119 192.521 29.4679 189.605 32.8519C190.289 34.0039 191.333 36.4879 191.693 37.5319C195.365 33.2119 198.677 26.4079 200.729 20.1079L196.733 18.9559ZM193.889 28.8199V52.6519H197.849V25.0399L197.741 24.9679L193.889 28.8199ZM234.425 19.0279C232.553 24.2119 229.421 29.4319 226.109 32.7439C226.829 33.7879 228.017 36.1639 228.413 37.2079C232.373 33.0319 236.153 26.4799 238.493 20.2879L234.425 19.0279ZM231.113 28.9639V52.6519H235.325V24.7879V24.7519L231.113 28.9639ZM237.125 30.8359V35.0839H259.805V30.8359H237.125ZM246.413 19.4239V52.6879H250.913V19.4239H246.413ZM280.577 27.7039C277.697 34.1479 272.729 42.2479 268.553 47.5039L272.297 49.3759C276.509 44.3359 281.693 36.5239 285.437 29.7559L280.577 27.7039ZM264.809 46.5319L265.529 51.1039C272.441 50.5999 282.557 49.8799 291.917 49.0519L291.989 44.8039C282.413 45.5239 271.721 46.2079 264.809 46.5319ZM282.953 39.7639C286.337 43.6159 290.045 49.0879 291.629 52.6519L295.949 49.9159C294.221 46.3879 290.513 41.3119 286.985 37.4959L282.953 39.7639ZM275.861 19.0639C273.233 23.9959 267.797 30.2599 262.361 33.8959C263.441 34.7239 265.061 36.1999 265.889 37.1719C271.505 33.0679 276.941 26.6239 280.541 20.7919L275.861 19.0639ZM304.01 41.7519V41.4195C304.019 39.8769 304.164 38.6496 304.445 37.7377C304.735 36.8258 305.144 36.0928 305.672 35.5388C306.2 34.9763 306.844 34.4607 307.602 33.992C308.122 33.6681 308.587 33.3144 308.996 32.9309C309.414 32.5388 309.742 32.1042 309.98 31.6269C310.219 31.1411 310.338 30.5999 310.338 30.0033C310.338 29.33 310.181 28.7462 309.865 28.2519C309.55 27.7576 309.124 27.3741 308.587 27.1013C308.058 26.8286 307.466 26.6923 306.81 26.6923C306.205 26.6923 305.629 26.8244 305.084 27.0886C304.547 27.3442 304.1 27.7363 303.742 28.2647C303.392 28.7846 303.196 29.4451 303.154 30.2462H298.602C298.645 28.6269 299.037 27.2718 299.779 26.1809C300.529 25.09 301.517 24.2718 302.744 23.7263C303.98 23.1809 305.344 22.9082 306.835 22.9082C308.463 22.9082 309.895 23.1937 311.131 23.7647C312.375 24.3357 313.343 25.1496 314.033 26.2065C314.732 27.2548 315.081 28.4991 315.081 29.9394C315.081 30.911 314.923 31.7803 314.608 32.5474C314.301 33.3144 313.862 33.9962 313.291 34.5928C312.72 35.1894 312.043 35.7221 311.259 36.1908C310.568 36.617 310.002 37.0602 309.558 37.5204C309.124 37.9806 308.8 38.5218 308.587 39.144C308.382 39.7576 308.276 40.5161 308.267 41.4195V41.7519H304.01ZM306.235 49.7292C305.468 49.7292 304.807 49.4565 304.253 48.911C303.699 48.3656 303.422 47.7008 303.422 46.9167C303.422 46.1496 303.699 45.4934 304.253 44.9479C304.807 44.4025 305.468 44.1298 306.235 44.1298C306.993 44.1298 307.649 44.4025 308.203 44.9479C308.766 45.4934 309.047 46.1496 309.047 46.9167C309.047 47.4366 308.915 47.9096 308.651 48.3357C308.395 48.7619 308.054 49.1028 307.628 49.3584C307.21 49.6056 306.746 49.7292 306.235 49.7292Z" fill="#FF5685"/>
</svg>
