<svg xmlns="http://www.w3.org/2000/svg" width="48" height="48" fill="none"><path fill="#ff5787" d="M8.08 27.44c-.64 0-1.44-.16-2.24-.56-1.6-.8-2.72-2.48-3.28-4.96-1.28-5.36 0-8.88 3.92-11.04.4-2 2.16-8.08 7.52-8.16h.4c7.76 0 8 5.76 8 5.84 0 .64-.48 1.2-1.12 1.28-.64 0-1.2-.48-1.28-1.12 0-.4-.32-3.68-5.92-3.52-4.32.08-5.36 6.72-5.36 6.8l-.08.64-.56.24c-2.4 1.2-4.48 3.12-3.12 8.64.4 1.76 1.12 2.96 2.08 3.44 1.04.48 2.08.16 2.08.16.64-.24 1.28.08 1.6.64.24.64-.08 1.28-.64 1.6-.16-.16-.96.08-2 .08Z"/><path fill="#ff5787" d="M30.56 9.68c-.4 0-.8-.24-1.04-.64C27.84 5.92 26 4.24 24.08 4c-2.32-.32-4.16 1.6-4.16 1.6-.48.48-1.2.48-1.68.08-.48-.48-.48-1.2-.08-1.68.08-.08 2.72-2.8 6.24-2.32 2.72.32 5.2 2.48 7.28 6.24.32.56.08 1.28-.48 1.6-.24.16-.48.16-.64.16Z"/><path fill="#ff5787" d="M38.56 12.32c-.56 0-1.12-.4-1.2-1.04-.4-2.32-1.28-3.92-2.64-4.72-2.4-1.28-5.6.08-5.6.08-.64.24-1.28 0-1.6-.64-.24-.64 0-1.28.64-1.6.16-.08 4.32-1.84 7.76 0 2.08 1.12 3.36 3.28 3.92 6.4.08.64-.32 1.28-.96 1.36-.16.16-.24.16-.32.16Z"/><path fill="#ff5787" d="M38.32 28.72c-1.28 0-2.64-.16-4.24-.48-.64-.16-1.04-.8-.96-1.44.16-.64.8-1.04 1.44-.96 3.44.72 6 .56 7.52-.48.8-.56 1.2-1.36 1.36-2.4.16-1.2-.72-3.36-1.36-4.4l-.32-.56.32-.56c.88-1.76 1.04-3.2.48-4.4-1.12-2.32-4.8-3.12-4.88-3.12-.64-.16-1.04-.8-.96-1.44.16-.64.8-1.04 1.44-.96.16 0 4.88 1.04 6.56 4.48.88 1.76.8 3.76-.24 6 .56 1.12 1.52 3.44 1.36 5.28-.24 1.68-1.04 3.12-2.32 4.08-1.28.88-3.04 1.36-5.2 1.36Z"/><path fill="#ff5787" d="M18 36c-2.56 0-4.8-.56-6.16-2-1.04-1.12-1.92-3.28-.24-6.96.24-.64.96-.88 1.6-.56.64.24.88.96.56 1.6-.96 2.08-.96 3.52-.24 4.4 1.68 1.76 7.28 1.6 13.04-.48 6.96-2.48 8.24-9.68 8.32-10 .08-.64.72-1.12 1.36-.96.64.08 1.12.72.96 1.36-.08.4-1.52 8.88-9.84 11.84C24.56 35.2 21.12 36 18 36Z"/><path fill="#ff5787" d="M13.36 28.72c-1.04 0-2-.24-2.8-.64-1.36-.64-2.24-1.84-2.72-3.6-.88-3.12 2.56-5.84 2.96-6.08.56-.4 1.28-.32 1.68.24.4.56.32 1.28-.24 1.68-.64.48-2.48 2.24-2.08 3.52.32 1.04.8 1.68 1.52 2.08 1.2.64 3.36.4 6.08-.64 2.96-1.12 4.24-.96 5.6-.56.64.16.96.24 1.76-.08 1.12-.4 1.44-1.52 1.6-1.92.24-1.04 0-2.08-.56-2.72-.56-.4-.56-1.12-.08-1.6.48-.48 1.28-.4 1.68.08 1.12 1.2 1.6 3.04 1.12 4.88-.4 1.76-1.52 3.04-3.04 3.6s-2.4.32-3.2.08c-.88-.24-1.68-.48-4.16.48-2 .8-3.68 1.2-5.12 1.2Z"/><path fill="#ff5787" d="M13.52 21.12c-2.32 0-4.24-1.92-4.24-4.24 0-2.32 1.92-4.24 4.24-4.24 2.32 0 4.24 1.92 4.24 4.24 0 2.32-1.92 4.24-4.24 4.24Zm0-6c-.96 0-1.84.8-1.84 1.84s.8 1.84 1.84 1.84 1.84-.8 1.84-1.84-.8-1.84-1.84-1.84Zm11.36 6c-2.32 0-4.24-1.92-4.24-4.24 0-2.32 1.92-4.24 4.24-4.24 2.32 0 4.24 1.92 4.24 4.24 0 2.32-1.92 4.24-4.24 4.24Zm0-6c-.96 0-1.84.8-1.84 1.84s.8 1.84 1.84 1.84c.96 0 1.84-.8 1.84-1.84s-.88-1.84-1.84-1.84Zm11.44 8c-2.32 0-4.24-1.92-4.24-4.24 0-2.32 1.92-4.24 4.24-4.24 2.32 0 4.24 1.92 4.24 4.24 0 2.32-1.92 4.24-4.24 4.24Zm0-6c-.96 0-1.84.8-1.84 1.84s.8 1.84 1.84 1.84c.96 0 1.84-.8 1.84-1.84s-.8-1.84-1.84-1.84ZM23.84 46.4c-2.32 0-4.24-1.92-4.24-4.24 0-2.32 1.92-4.24 4.24-4.24 2.32 0 4.24 1.92 4.24 4.24 0 2.32-1.92 4.24-4.24 4.24Zm0-6c-.96 0-1.84.8-1.84 1.84s.8 1.84 1.84 1.84c.96 0 1.84-.8 1.84-1.84s-.8-1.84-1.84-1.84Z"/><path fill="#ff5787" d="M26.88 43.36c-.56 0-1.04-.4-1.2-.96-.08-.64.32-1.28.96-1.36.08 0 2.8-.56 4-3.12.96-2.24-2.48-4.32-2.48-4.32-.56-.32-.72-1.04-.4-1.68.32-.56 1.04-.72 1.68-.4 2 1.2 4.96 4.08 3.44 7.36-1.68 3.76-5.6 4.48-5.76 4.56-.08-.08-.16-.08-.24-.08Z"/></svg>