<svg width="501" height="522" viewBox="0 0 501 522" fill="none" xmlns="http://www.w3.org/2000/svg">
<path d="M275.245 521.659C133.572 521.659 17.9994 344.659 18 228.159C18.0006 111.658 157.744 -10.0485 275.245 0.658754C407.141 12.6778 483 77.6587 476 192.159C468.069 321.89 458.745 521.659 275.245 521.659Z" fill="#3B5AFA" fill-opacity="0.1"/>
<path d="M481.245 285.658C526.271 234.526 482.902 144.001 444.744 80.6589C406.587 17.3166 274.386 17.3214 181.744 40.6587C116.244 57.1587 48.2446 90.6586 17.7447 162.158C-19.6693 249.866 7.99998 377.159 77.0001 447.659C146 518.159 272.158 498.646 335.5 477.659C398.842 456.672 436.219 336.789 481.245 285.658Z" stroke="#3B5AFA"/>
<path d="M116.912 142.324V109.612L138.684 105.479L186.375 112.022L188.103 102.725H227.5V109.612H242.015H289.36L296.272 100.659L310.787 105.479L327.721 112.022L332.559 102.725L351.221 105.479L386.125 107.201L392 117.187L388.89 136.814V177.446L368.5 187.777V226.295L363.316 236.281L305.603 237.659L286.25 227.673L266.206 237.659L257.912 229.395L248.581 237.659L237.176 227.673L206.419 234.215L204.346 226.295L179.463 232.494H141.103L134.882 212.569L141.103 203.961V181.578L123.478 177.446L110 149.555L116.912 142.324Z" fill="#3B5AFA"/>
<path d="M174.44 135.587V143.219H171.848V137.987H138.248V143.219H135.656V135.587H143C142.488 133.795 141.928 132.131 141.32 130.595L143.864 130.211C144.28 131.299 144.84 133.091 145.544 135.587H154.28C153.64 133.411 153.032 131.619 152.456 130.211L154.952 129.827C155.624 131.491 156.248 133.411 156.824 135.587H163.448C164.728 133.507 165.832 131.283 166.76 128.915L169.256 129.827C168.36 131.939 167.32 133.859 166.136 135.587H174.44ZM173.864 126.803C164.392 128.307 151.96 129.059 136.568 129.059L135.752 126.611C150.696 126.611 162.968 125.891 172.568 124.451L173.864 126.803ZM151.064 139.811L150.248 143.603H171.032V146.099H149.576C148.968 147.987 148.456 149.475 148.04 150.563H169.352V152.579C166.984 155.779 164.072 158.579 160.616 160.979C164.936 162.835 169.736 164.099 175.016 164.771L173.864 167.075C168.072 166.307 162.872 164.771 158.264 162.467C154.04 164.803 149.448 166.451 144.488 167.411L143.336 165.059C148.072 164.227 152.2 162.915 155.72 161.123C152.328 159.139 149.24 156.771 146.456 154.019C143.672 159.427 140.008 163.683 135.464 166.787L134.216 164.531C140.232 160.211 144.472 154.067 146.936 146.099H139.112V143.603H147.608C147.928 142.323 148.216 140.963 148.472 139.523L151.064 139.811ZM148.184 152.867C151.128 155.651 154.392 157.955 157.976 159.779C161.176 157.795 163.944 155.491 166.28 152.867H148.184ZM218.84 129.491V167.315H216.248V164.051H189.752V167.315H187.16V129.491H197.288C198.472 127.475 199.32 125.443 199.832 123.395L202.472 123.779C201.896 125.827 201.08 127.731 200.024 129.491H218.84ZM189.752 161.555H216.248V152.963H189.752V161.555ZM189.752 150.467H216.248V142.451H189.752V150.467ZM189.752 139.955H216.248V131.987H189.752V139.955ZM272.12 153.539C271.736 158.755 271.128 162.083 270.296 163.523C269.432 165.027 267.8 165.779 265.4 165.779H239.048C235.752 165.779 234.104 164.259 234.104 161.219V142.307H264.008V128.867H231.272V126.371H266.648V144.851H236.744V160.403C236.744 162.291 237.832 163.251 240.008 163.283H264.92C266.744 163.283 267.944 162.563 268.52 161.123C269.032 159.683 269.384 156.883 269.576 152.723L272.12 153.539ZM314.84 129.491V167.315H312.248V164.051H285.752V167.315H283.16V129.491H293.288C294.472 127.475 295.32 125.443 295.832 123.395L298.472 123.779C297.896 125.827 297.08 127.731 296.024 129.491H314.84ZM285.752 161.555H312.248V152.963H285.752V161.555ZM285.752 150.467H312.248V142.451H285.752V150.467ZM285.752 139.955H312.248V131.987H285.752V139.955ZM330.824 139.187C329.064 141.875 327.272 144.243 325.448 146.291L324.584 143.555C329.512 137.475 333.048 130.675 335.192 123.155L337.64 124.307C336.552 127.891 335.128 131.379 333.368 134.771V167.459H330.824V139.187ZM337.928 130.307H368.936V132.803H337.928V130.307ZM342.392 137.411H364.76V139.763H342.392V137.411ZM342.392 144.179H364.76V146.579H342.392V144.179ZM365.576 151.235V167.315H363.032V164.675H344.168V167.315H341.576V151.235H365.576ZM344.168 162.179H363.032V153.683H344.168V162.179ZM353 123.443C354.056 125.459 354.872 127.331 355.448 129.059L353.144 129.971C352.376 127.827 351.496 125.875 350.504 124.115L353 123.443ZM192.968 199.075C195.656 206.147 197.976 214.019 199.928 222.691L197.384 223.363L196.232 218.371C189.256 219.747 182.344 220.915 175.496 221.875L175.016 219.379C175.816 219.123 176.28 218.787 176.408 218.371L187.256 180.595L189.848 180.931L178.904 218.803C185.528 217.843 191.096 216.883 195.608 215.923C194.232 210.611 192.568 205.251 190.616 199.843L192.968 199.075ZM158.312 192.787H167.192V184.867C164.024 185.347 161.352 185.699 159.176 185.923L158.648 183.427C165.624 182.723 171.656 181.587 176.744 180.019L177.656 182.419C175.032 183.187 172.392 183.843 169.736 184.387V192.787H177.848V195.331H169.736V197.347C172.328 200.003 174.808 202.803 177.176 205.747L175.688 207.859C173.416 204.467 171.432 201.747 169.736 199.699V223.219H167.192V199.843C165.208 204.835 162.36 209.347 158.648 213.379L157.544 210.547C162.024 206.067 165.176 200.995 167 195.331H158.312V192.787ZM247.64 223.219C243.896 219.731 240.84 215.987 238.472 211.987C235.656 216.467 231.88 220.211 227.144 223.219L225.656 220.867C230.552 217.955 234.36 214.179 237.08 209.539C234.84 205.443 233.128 200.915 231.944 195.955C230.92 198.067 229.768 200.019 228.488 201.811L226.856 199.891C230.312 194.867 232.664 188.067 233.912 179.491L236.456 179.971C236.072 182.627 235.592 185.043 235.016 187.219H247.832V189.667H244.472C244.216 197.443 242.664 204.099 239.816 209.635C242.376 214.051 245.496 217.843 249.176 221.011L247.64 223.219ZM234.344 189.667L233.288 192.787C234.504 198.131 236.2 202.883 238.376 207.043C240.648 202.083 241.864 196.291 242.024 189.667H234.344ZM207.992 184.387H214.664V179.779H217.112V184.387H222.488V186.787H217.112V192.451H220.472C223.032 189.155 225.256 185.619 227.144 181.843L229.256 182.899C227.368 186.483 225.416 189.667 223.4 192.451H227.624V194.899H221.528C220.056 196.659 218.552 198.307 217.016 199.843H225.56V201.763C224.056 203.619 222.104 205.603 219.704 207.715V210.643C222.84 210.131 225.8 209.523 228.584 208.819V211.267C225.928 211.907 222.968 212.483 219.704 212.995V219.235C219.704 221.635 218.52 222.835 216.152 222.835H211.208L210.536 220.483C212.68 220.643 214.232 220.723 215.192 220.723C216.536 220.723 217.208 219.987 217.208 218.515V213.331C214.296 213.715 210.632 214.115 206.216 214.531L205.832 211.987C209.96 211.731 213.752 211.395 217.208 210.979V207.139C219.128 205.667 220.872 204.035 222.44 202.243H214.376C211.944 204.291 209.304 206.131 206.456 207.763L204.824 205.891C206.904 204.675 208.776 203.459 210.44 202.243H208.136V199.843H213.416C215.304 198.211 216.984 196.563 218.456 194.899H205.736V192.451H214.664V186.787H207.992V184.387ZM259.832 187.123H253.784V184.531H268.376V187.123H262.424V209.923C265.144 208.963 267.272 208.179 268.808 207.571V210.163C264.584 211.891 259.64 213.523 253.976 215.059L253.304 212.515C255.832 211.875 258.008 211.283 259.832 210.739V187.123ZM270.392 181.891H296.792V184.483H285.032C284.712 186.691 284.312 188.643 283.832 190.339H294.2V212.467H291.608V192.835H275.432V212.467H272.888V190.339H281.288C281.768 188.611 282.168 186.659 282.488 184.483H270.392V181.891ZM286.952 212.851C291.08 215.891 294.52 218.899 297.272 221.875L295.448 223.699C292.856 220.787 289.448 217.731 285.224 214.531L286.952 212.851ZM281.96 196.387H284.552V204.499C284.456 209.619 283.112 213.715 280.52 216.787C278.024 219.635 273.896 221.875 268.136 223.507L266.648 221.299C272.248 219.763 276.248 217.699 278.648 215.107C280.76 212.387 281.864 208.851 281.96 204.499V196.387ZM339.272 182.371V223.315H336.728V219.955H309.272V223.315H306.728V182.371H339.272ZM309.272 217.411H336.728V208.195H309.272V217.411ZM309.272 205.747H336.728V196.483H309.272V205.747ZM309.272 194.035H336.728V184.915H309.272V194.035Z" fill="white"/>
<path d="M165.464 292.667V295.675H172.984C170.904 297.147 168.184 298.363 164.824 299.291L166.328 302.267C171.128 300.539 174.808 298.331 177.4 295.675H183C185.08 298.331 188.44 300.507 193.048 302.171L194.488 299.131C191.16 298.267 188.568 297.115 186.712 295.675H193.784V292.667H179.704C180.088 292.027 180.408 291.355 180.696 290.651C182.936 290.523 185.144 290.427 187.256 290.299C187.928 290.939 188.536 291.579 189.112 292.219L191.896 290.299C190.232 288.571 187.832 286.523 184.728 284.187L182.168 285.819C182.936 286.427 183.64 287.035 184.344 287.643C181.176 287.835 177.944 287.995 174.68 288.123C176.28 286.971 177.848 285.659 179.384 284.187L176.088 283.067C172.696 286.267 170.104 287.963 168.344 288.155L168.824 291.035C171.736 290.971 174.552 290.875 177.24 290.779C176.92 291.419 176.568 292.059 176.12 292.667H165.464ZM179.384 296.123C177.496 298.363 174.52 300.155 170.456 301.499L171.928 304.091C176.472 302.491 179.8 300.379 181.976 297.691L179.384 296.123ZM187.672 301.115C185.048 305.627 178.968 308.859 169.4 310.843L171.32 313.467C181.208 311.387 187.64 307.707 190.584 302.459L187.672 301.115ZM183.448 298.811C180.248 302.619 175.704 304.987 169.784 305.947L171.64 308.475C177.304 307.451 182.104 304.827 186.04 300.539L183.448 298.811ZM225.144 287.803H214.04V312.507H217.24V310.555H221.88V312.507H225.144V287.803ZM217.24 307.355V290.971H221.88V307.355H217.24ZM202.072 283.451V289.563H197.336V292.827H202.072C201.912 301.147 200.088 307.195 196.6 311.003L199.128 313.243C203.096 308.891 205.208 302.107 205.4 292.827H208.504C208.44 301.275 208.344 306.235 208.184 307.675C207.96 309.019 207.224 309.723 206.008 309.723C205.208 309.723 204.28 309.659 203.192 309.531L204.024 312.571C205.176 312.699 206.04 312.763 206.552 312.763C209.368 312.763 210.968 311.579 211.288 309.243C211.608 306.747 211.768 300.187 211.768 289.563H205.4V283.451H202.072ZM241.784 291.131C239.672 299.195 235.288 305.371 228.664 309.723L230.712 312.603C237.112 308.443 241.368 302.555 243.544 294.971L243.64 295.259C247.064 303.835 251.256 309.627 256.216 312.571L258.296 309.915C253.496 306.843 249.592 301.595 246.552 294.171C244.44 288.827 242.072 285.211 239.448 283.355L236.664 285.147C238.648 286.555 240.344 288.539 241.784 291.131ZM285.144 312.731C287.672 312.731 288.952 311.451 288.952 308.923V284.699H273.784V287.771H285.688V307.995C285.688 309.115 285.272 309.691 284.472 309.691L281.688 309.595L282.584 312.731H285.144ZM262.328 288.699V313.019H265.592V288.699H262.328ZM267.992 283.035L264.952 284.411C266.36 286.107 267.672 288.059 268.856 290.299L271.864 288.731C270.744 286.651 269.464 284.763 267.992 283.035ZM304.024 284.443V297.435H310.712V299.675H302.744V302.747H308.088C306.68 305.275 304.536 307.387 301.72 309.115L303.448 311.931C306.776 309.499 309.176 306.459 310.68 302.747H310.712V312.955H313.816V302.747H313.88C315.224 306.075 317.464 309.147 320.664 311.931L322.808 309.275C319.928 307.323 317.784 305.147 316.44 302.747H321.912V299.675H313.816V297.435H320.568V284.443H304.024ZM317.528 294.619H313.816V292.347H317.528V294.619ZM310.712 294.619H307.064V292.347H310.712V294.619ZM307.064 289.659V287.323H310.712V289.659H307.064ZM313.816 287.323H317.528V289.659H313.816V287.323ZM297.368 283.611L295 285.883C297.272 287.547 299.032 289.083 300.248 290.555L302.52 288.251C301.112 286.715 299.384 285.147 297.368 283.611ZM292.824 292.827V296.027H296.984V307.131C296.984 307.803 296.696 308.379 296.12 308.827L297.4 311.803C299.416 310.395 301.336 308.795 303.16 307.003L302.296 303.579C301.56 304.315 300.856 304.987 300.184 305.627V292.827H292.824Z" fill="#3B5AFA"/>
<path d="M163.672 315.739H323.672V318.299H163.672V315.739Z" fill="#3B5AFA"/>
<path d="M165.652 379.611V396.891H167.924V375.899C169.172 373.531 170.196 371.003 171.028 368.347L168.948 367.387C167.476 372.667 165.076 377.339 161.748 381.435L162.42 383.739C163.572 382.427 164.66 381.051 165.652 379.611ZM170.484 372.987V375.227H176.724C175.188 381.115 172.66 385.915 169.076 389.627L170.26 391.611C174.196 387.355 176.98 381.883 178.58 375.227H178.964V388.059H174.068V390.267H178.964V396.859H181.236V390.267H186.196V388.059H181.236V375.227H181.62C183.092 381.147 185.812 386.491 189.716 391.227L191.22 389.339C187.508 385.211 184.916 380.507 183.444 375.227H189.972V372.987H181.236V367.483H178.964V372.987H170.484ZM209.556 376.923V378.907H218.548V376.923C219.636 378.107 220.852 379.227 222.228 380.283L223.476 378.363C219.508 375.291 216.692 371.739 215.092 367.643H212.98C211.06 372.091 208.276 375.707 204.692 378.491L205.908 380.347C207.188 379.355 208.404 378.203 209.556 376.923ZM218.452 376.795H209.652C211.316 374.875 212.756 372.571 214.036 369.883C215.124 372.379 216.596 374.683 218.452 376.795ZM205.62 393.531V395.739H223.092V393.531H218.26C219.54 390.011 220.596 385.979 221.492 381.435L219.284 380.891C218.324 385.915 217.236 390.139 216.02 393.531H205.62ZM208.564 381.819L206.58 382.491C207.7 385.371 208.628 388.347 209.332 391.483L211.316 391.003C210.484 387.547 209.588 384.475 208.564 381.819ZM213.492 380.891L211.508 381.499C212.468 384.251 213.236 387.131 213.812 390.107L215.828 389.627C215.124 386.331 214.356 383.419 213.492 380.891ZM202.036 371.099L200.628 382.171H196.852L198.132 373.371L196.02 373.243L194.516 384.219H202.676C202.676 389.083 202.484 391.995 202.164 393.019C201.844 393.979 200.916 394.491 199.38 394.491C198.932 394.491 198.132 394.427 197.012 394.299L197.62 396.347C198.388 396.411 199.156 396.443 199.892 396.443C201.908 396.443 203.22 395.867 203.86 394.779C204.468 393.659 204.788 389.467 204.788 382.171H202.804L204.34 368.987H194.292V371.099H202.036ZM200.852 387.067C198.74 387.835 196.244 388.443 193.428 388.923L193.716 391.099C196.372 390.587 198.74 389.947 200.852 389.147V387.067ZM228.404 373.403V375.387H237.492C237.076 376.091 236.596 376.827 236.084 377.563H226.676V379.611H234.484C232.212 382.299 229.332 384.795 225.844 387.163L227.092 389.147C229.076 387.803 230.868 386.363 232.5 384.891V396.891H234.708V395.515H249.172V396.891H251.38V381.819H235.508C236.116 381.115 236.692 380.379 237.268 379.611H254.58V377.563H238.676C239.092 376.859 239.508 376.155 239.892 375.387H252.724V373.403H240.82C241.14 372.603 241.46 371.771 241.748 370.907C245.78 370.587 249.3 370.107 252.34 369.435L251.284 367.611C245.3 368.827 237.78 369.435 228.692 369.435L229.364 371.355C233.012 371.355 236.404 371.259 239.54 371.067C239.22 371.835 238.9 372.635 238.548 373.403H228.404ZM234.708 387.643H249.172V389.659H234.708V387.643ZM249.172 385.851H234.708V383.707H249.172V385.851ZM234.708 391.451H249.172V393.627H234.708V391.451ZM269.428 373.051H264.276C264.916 371.451 265.396 369.691 265.78 367.803L263.476 367.483C263.188 369.403 262.74 371.259 262.1 373.051H259.124V395.803H261.364V393.051H267.188V394.875H269.428V373.051ZM261.364 390.907V383.899H267.188V390.907H261.364ZM261.364 381.819V375.227H267.188V381.819H261.364ZM274.996 380.475L273.14 381.627C275.348 384.251 277.108 386.619 278.42 388.731L280.244 387.451C279.028 385.467 277.3 383.131 274.996 380.475ZM285.972 373.083H275.764C276.34 371.419 276.788 369.627 277.172 367.739L274.9 367.451C274.068 371.995 272.564 375.835 270.324 378.971L271.7 380.795C272.948 379.163 274.004 377.339 274.9 375.323H283.7C283.636 384.539 283.508 390.075 283.316 391.867C283.06 393.499 282.196 394.331 280.692 394.331C279.7 394.331 278.548 394.299 277.204 394.235L277.748 396.347C279.284 396.411 280.372 396.475 281.012 396.475C283.7 396.475 285.172 395.227 285.492 392.795C285.812 390.299 285.972 383.707 285.972 373.083ZM313.748 368.859H294.9V386.491H297.204V371.099H311.412V386.459H313.748V368.859ZM302.964 373.243V379.259C302.836 383.291 301.908 386.587 300.18 389.115C298.324 391.547 295.028 393.499 290.292 394.971L291.54 396.923C296.308 395.419 299.732 393.339 301.812 390.683C303.956 387.835 305.108 384.027 305.236 379.259V373.243H302.964ZM314.356 396.251C315.444 396.219 316.276 395.963 316.852 395.451C317.46 394.811 317.908 392.955 318.196 389.947L315.988 389.243C315.86 391.739 315.54 393.211 315.092 393.627C314.74 393.915 314.292 394.075 313.748 394.075H308.724C307.764 394.075 307.316 393.467 307.316 392.315V384.155H305.044V392.731C305.044 395.067 306.036 396.251 308.084 396.251H314.356ZM205.428 421.051H200.276C200.916 419.451 201.396 417.691 201.78 415.803L199.476 415.483C199.188 417.403 198.74 419.259 198.1 421.051H195.124V443.803H197.364V441.051H203.188V442.875H205.428V421.051ZM197.364 438.907V431.899H203.188V438.907H197.364ZM197.364 429.819V423.227H203.188V429.819H197.364ZM210.996 428.475L209.14 429.627C211.348 432.251 213.108 434.619 214.42 436.731L216.244 435.451C215.028 433.467 213.3 431.131 210.996 428.475ZM221.972 421.083H211.764C212.34 419.419 212.788 417.627 213.172 415.739L210.9 415.451C210.068 419.995 208.564 423.835 206.324 426.971L207.7 428.795C208.948 427.163 210.004 425.339 210.9 423.323H219.7C219.636 432.539 219.508 438.075 219.316 439.867C219.06 441.499 218.196 442.331 216.692 442.331C215.7 442.331 214.548 442.299 213.204 442.235L213.748 444.347C215.284 444.411 216.372 444.475 217.012 444.475C219.7 444.475 221.172 443.227 221.492 440.795C221.812 438.299 221.972 431.707 221.972 421.083ZM238.804 415.483V419.515H228.404V422.779H238.804V427.419H226.484V430.683H236.116C233.876 434.587 230.42 437.787 225.812 440.347L227.732 443.515C232.82 440.155 236.5 435.867 238.772 430.683H238.804V444.923H242.196V430.683H242.26C244.34 435.355 247.892 439.643 252.948 443.483L255.316 440.475C250.484 437.595 246.996 434.331 244.884 430.683H254.516V427.419H242.196V422.779H252.82V419.515H242.196V415.483H238.804ZM265.108 422.651L262.164 424.059C263.156 425.499 264.084 427.163 264.98 429.051H258.42V432.283H268.18C266.26 435.419 262.644 438.299 257.396 440.891L259.252 443.899C264.884 440.731 268.724 436.955 270.804 432.539V444.955H274.196V432.571C276.404 436.699 280.116 440.475 285.3 443.867L287.604 440.987C282.612 438.427 278.996 435.515 276.756 432.283H286.516V429.051H280.052C281.076 427.419 282.004 425.595 282.836 423.579L279.572 422.427C278.772 424.763 277.844 426.971 276.756 429.051H274.196V422.043H285.62V418.811H274.196V415.483H270.804V418.811H259.668V422.043H270.804V429.051H265.684L267.956 427.899C267.028 425.979 266.068 424.219 265.108 422.651Z" fill="#3B5AFA"/>
</svg>
