<svg width="537" height="499" viewBox="0 0 537 499" fill="none" xmlns="http://www.w3.org/2000/svg">
<path d="M20 497.5L94 14H536.5V481.5L20 497.5Z" fill="#EBEEFE" stroke="#3B5AFA"/>
<path d="M1.5 482.5L71 1L518 41V466.5L1.5 482.5Z" fill="white" stroke="#3B5AFA"/>
<path d="M233.592 105.776C235.576 105.776 236.568 104.656 236.568 102.48V94.512H233.24V101.68C233.24 102.512 232.984 102.928 232.504 102.928C231.832 102.928 231.128 102.832 230.36 102.704L231.096 105.776H233.592ZM219.992 97.68V105.68H223.256V93.488C224.248 91.952 225.176 90.256 226.04 88.432L222.776 87.696C220.792 91.76 218.52 94.896 215.896 97.072L218.008 99.632C218.648 99.024 219.32 98.384 219.992 97.68ZM230.008 87.664C228.44 90.96 226.616 93.52 224.504 95.344L226.552 97.84C227.928 96.56 229.208 95.088 230.392 93.36H241.336C241.016 94.448 240.6 95.44 240.152 96.304L243.096 97.136C243.736 95.568 244.248 94 244.664 92.4V90.352H232.216C232.536 89.712 232.856 89.072 233.176 88.4L230.008 87.664ZM219.384 107.024C218.808 109.52 217.88 111.92 216.536 114.16L219.352 115.984C220.76 113.616 221.848 110.864 222.616 107.664L219.384 107.024ZM235.64 116.88C236.952 116.88 237.912 116.592 238.552 116.08C239.256 115.536 239.736 113.808 239.992 110.864L236.824 109.84C236.728 111.696 236.536 112.784 236.216 113.168C235.928 113.52 235.544 113.712 235.032 113.712H228.6C227.896 113.712 227.544 113.296 227.544 112.464V106.768H224.152V113.168C224.152 115.632 225.272 116.88 227.576 116.88H235.64ZM241.464 105.84L238.744 107.536C240.664 110.32 242.168 112.848 243.32 115.152L246.104 113.2C245.016 111.088 243.48 108.656 241.464 105.84ZM229.144 97.2C228.056 99.44 226.712 101.392 225.176 103.024L227.704 104.816C229.304 103.024 230.648 100.944 231.8 98.512L229.144 97.2ZM240.664 97.168L237.912 98.416C239.352 100.304 240.664 102.48 241.88 104.912L244.728 103.44C243.544 101.136 242.2 99.056 240.664 97.168ZM231.928 105.936L229.368 107.536C230.776 109.296 231.896 110.896 232.728 112.336L235.32 110.544C234.552 109.2 233.4 107.664 231.928 105.936ZM251.48 87.984L249.176 90.16C251.48 92.016 253.24 93.744 254.456 95.344L256.856 92.976C255.384 91.312 253.592 89.648 251.48 87.984ZM269.688 116.816H277.016L277.816 113.52C276.952 113.584 275.704 113.648 274.072 113.712C272.408 113.712 270.808 113.744 269.208 113.744C266.776 113.744 264.632 113.712 262.808 113.68C260.952 113.616 259.576 113.36 258.648 112.88C257.912 112.464 257.176 111.824 256.472 110.992L256.152 110.672V98.48H248.824V101.552H253.048V110.32C251.768 111.024 250.36 112.656 248.76 115.216L251.224 117.488C252.824 114.608 253.912 113.2 254.52 113.2C254.904 113.2 255.288 113.456 255.704 114C256.632 115.088 257.72 115.824 259 116.208C260.344 116.528 262.008 116.72 264.056 116.752C266.072 116.784 267.96 116.816 269.688 116.816ZM257.88 89.072V92.336H266.232C264.312 96.624 261.08 100.304 256.6 103.376L258.712 106.128C261.208 104.272 263.384 102.224 265.208 99.984V112.528H268.536V94.768C268.92 94 269.272 93.168 269.592 92.336H276.664V89.072H257.88ZM271.288 95.344L268.728 97.2C271.352 100.496 273.464 103.504 275 106.224L277.848 104.272C276.312 101.712 274.104 98.736 271.288 95.344ZM280.632 89.424V92.656H302.136V112.688C302.136 113.584 301.72 114.064 300.952 114.064C299.352 114.064 297.656 114 295.928 113.872L296.696 117.104H302.104C304.344 117.104 305.496 115.888 305.496 113.52V92.656H309.464V89.424H280.632ZM297.272 96.496H284.056V111.6H287.256V109.04H297.272V96.496ZM287.256 106.032V99.472H294.104V106.032H287.256ZM323.704 90.992L320.888 92.752C323.512 96.08 325.592 99.12 327.128 101.84L329.976 99.888C328.504 97.36 326.424 94.384 323.704 90.992ZM334.168 107.824C336.312 110.896 338.04 113.84 339.352 116.624L341.976 114.032C340.216 110.896 338.104 107.728 335.672 104.592C335.8 104.208 335.896 103.856 336.024 103.472C337.368 99.216 338.04 94.032 338.04 87.952H334.584C334.52 94.032 333.88 98.96 332.632 102.8C331.032 107.312 327.576 111.12 322.264 114.256L324.536 117.008C328.888 114.416 332.12 111.344 334.168 107.824ZM314.808 114.224C318.712 112.816 322.36 111.152 325.784 109.232L324.824 105.968C322.616 107.312 320.408 108.432 318.168 109.36V88.272H314.712V108.624C314.712 109.648 314.36 110.48 313.688 111.056L314.808 114.224Z" fill="#3F3F3F"/>
<path d="M203.312 165.904V169.168H216.144V176.624H204.176V179.824H216.144V187.728H202.736V190.992H216.144V192.56H219.536V165.904H203.312ZM202.256 176.304C201.168 176.816 200.08 177.296 198.96 177.744V172.432H202.096V169.264H198.96V163.76H195.6V169.264H191.632V172.432H195.6V178.896C194.16 179.344 192.688 179.696 191.216 179.984L192.016 183.184C193.232 182.864 194.416 182.512 195.6 182.128V188.784C195.6 189.552 195.248 189.936 194.544 189.936C193.84 189.936 193.072 189.872 192.304 189.744L193.072 192.976H195.696C197.872 192.976 198.96 191.856 198.96 189.616V180.976C200.08 180.528 201.168 180.08 202.256 179.632V176.304ZM223.44 176.592V179.92H252.528V176.592H223.44ZM267.312 165.904V169.168H280.144V176.624H268.176V179.824H280.144V187.728H266.736V190.992H280.144V192.56H283.536V165.904H267.312ZM266.256 176.304C265.168 176.816 264.08 177.296 262.96 177.744V172.432H266.096V169.264H262.96V163.76H259.6V169.264H255.632V172.432H259.6V178.896C258.16 179.344 256.688 179.696 255.216 179.984L256.016 183.184C257.232 182.864 258.416 182.512 259.6 182.128V188.784C259.6 189.552 259.248 189.936 258.544 189.936C257.84 189.936 257.072 189.872 256.304 189.744L257.072 192.976H259.696C261.872 192.976 262.96 191.856 262.96 189.616V180.976C264.08 180.528 265.168 180.08 266.256 179.632V176.304ZM290.512 166.896V170.192H313.488V166.896H290.512ZM287.536 187.024V190.384H316.432V187.024H287.536ZM330.608 186.288C327.408 187.44 323.696 188.336 319.44 189.008L319.888 192.336C323.888 191.6 327.472 190.64 330.608 189.488V186.288ZM324.176 163.536C323.184 166.96 322.032 170.096 320.72 172.944C320.304 173.52 319.856 173.936 319.344 174.16L320.144 177.2C321.616 176.976 323.056 176.752 324.432 176.56C323.184 179.024 322.16 180.752 321.328 181.712C320.912 182.096 320.4 182.416 319.824 182.672L320.688 185.68C323.568 185.232 326.64 184.336 329.904 182.992V179.92C328.112 180.72 326.32 181.36 324.592 181.84C326.192 179.472 328.176 175.856 330.48 170.96L327.568 169.84C326.992 171.152 326.416 172.368 325.904 173.52L323.216 173.904C324.624 171.536 326.032 168.528 327.376 164.816L324.176 163.536ZM335.728 178.416H340.432V181.68H335.728V178.416ZM335.728 184.72H340.432V188.528H335.728V184.72ZM335.728 191.632H348.88V188.528H343.632V184.72H347.696V181.68H343.632V178.416H347.696V175.344H343.632V171.984H348.24V168.848H343.76C343.344 167.248 342.8 165.52 342.128 163.632L338.896 164.496C339.536 165.904 340.08 167.376 340.56 168.848H335.984C336.496 167.44 336.976 165.968 337.36 164.464L334.192 163.824C333.232 168.112 331.568 172.048 329.2 175.632L330.224 179.024C331.024 177.968 331.792 176.88 332.528 175.728V193.264H335.728V191.632ZM340.432 171.984V175.344H335.728V171.984H340.432ZM362.576 174.64H356.752C357.456 172.656 358 170.576 358.416 168.368H363.088V165.168H351.888V168.368H355.28C354.512 172.656 353.072 176.496 350.928 179.92L352.592 182.64C353.04 181.968 353.488 181.296 353.936 180.592V192.272H357.008V190.192H359.504V191.664H362.576V174.64ZM357.008 187.152V177.648H359.504V187.152H357.008ZM365.904 169.616L364.176 180.464H377.104C377.104 185.008 376.848 187.728 376.368 188.688C375.92 189.616 374.512 190.096 372.144 190.096C371.6 190.096 370.608 190 369.2 189.808L370.16 193.04C371.12 193.136 372.016 193.2 372.912 193.2C375.92 193.2 377.904 192.56 378.864 191.344C379.792 190.096 380.272 185.424 380.272 177.36H377.072L378.736 164.72H364.24V167.856H375.12L373.712 177.36H367.856L369.168 169.808L365.904 169.616ZM363.568 183.568V186.704H375.536V183.568H363.568Z" fill="#3B5AFA"/>
<path d="M175.748 213.136V215.28H182.628C182.372 216.688 182.02 218.032 181.508 219.312H174.276V221.52H180.484C180.356 221.712 180.228 221.904 180.1 222.128C178.564 224.432 176.292 226.448 173.252 228.112L174.692 229.936C177.892 227.984 180.324 225.776 181.956 223.312C182.276 222.736 182.596 222.16 182.916 221.52H185.988C187.748 224.848 190.756 227.568 195.012 229.648L196.004 227.632C192.548 226.16 189.988 224.112 188.324 221.52H195.044V219.312H183.812C184.26 218.064 184.612 216.72 184.932 215.28H193.636V213.136H175.748ZM177.7 230.032C176.548 233.168 175.172 235.856 173.604 238.128L175.492 239.472C177.06 237.072 178.436 234.224 179.62 230.96L177.7 230.032ZM168.932 212.336L167.332 213.872C169.476 215.344 171.172 216.752 172.388 218.064L173.956 216.496C172.612 215.088 170.916 213.712 168.932 212.336ZM168.164 219.984L166.596 221.52C168.772 223.184 170.468 224.784 171.716 226.256L173.284 224.688C171.908 223.12 170.212 221.552 168.164 219.984ZM171.076 228.816C169.828 232.656 168.356 236.432 166.692 240.08L168.836 241.04C170.372 237.456 171.812 233.648 173.092 229.616L171.076 228.816ZM181.892 241.232C183.492 241.232 184.292 240.304 184.292 238.48V226.224H182.083V237.936C182.083 238.768 181.732 239.216 181.092 239.216C180.26 239.216 179.364 239.152 178.436 239.056L178.916 241.232H181.892ZM191.78 229.264L189.764 229.936C191.172 232.624 192.452 235.76 193.636 239.28L195.684 238.384C194.596 235.152 193.284 232.112 191.78 229.264ZM187.556 230.416L185.604 231.088C186.852 233.776 187.972 236.848 188.996 240.368L191.044 239.44C190.052 236.24 188.9 233.232 187.556 230.416ZM226.34 216.624H215.876V240.72H218.084V238.576H224.1V240.72H226.34V216.624ZM218.084 236.368V218.832H224.1V236.368H218.084ZM204.1 211.952V218.416H198.98V220.656H204.1C204.004 229.424 202.084 235.824 198.372 239.824L200.068 241.328C204.164 236.976 206.276 230.096 206.404 220.656H210.66C210.596 229.232 210.468 234.384 210.276 236.048C210.02 237.872 209.06 238.8 207.428 238.8C206.66 238.8 205.764 238.736 204.74 238.672L205.316 240.784C206.468 240.848 207.268 240.912 207.748 240.912C210.564 240.912 212.132 239.568 212.452 236.944C212.772 234.576 212.932 228.4 212.932 218.416H206.404V211.952H204.1ZM231.492 215.152V238H239.428C243.012 238 245.764 236.944 247.684 234.864C249.508 232.88 250.436 230.096 250.436 226.576C250.436 222.992 249.572 220.208 247.876 218.288C246.02 216.176 243.3 215.152 239.684 215.152H231.492ZM234.116 217.424H239.268C242.276 217.424 244.452 218.192 245.86 219.76C247.172 221.232 247.844 223.504 247.844 226.576C247.844 229.552 247.108 231.824 245.7 233.36C244.196 234.928 241.956 235.728 238.98 235.728H234.116V217.424ZM261.029 221.008C259.877 221.008 258.885 221.36 258.021 222.064C257.317 222.608 256.741 223.376 256.293 224.336V221.456H253.765V238H256.293V229.232C256.293 227.696 256.709 226.384 257.605 225.296C258.469 224.144 259.557 223.6 260.837 223.6C261.637 223.6 262.469 223.696 263.301 223.952V221.392C262.693 221.136 261.925 221.008 261.029 221.008ZM267.693 234.192C267.117 234.192 266.669 234.384 266.317 234.768C265.933 235.152 265.741 235.6 265.741 236.176C265.741 236.72 265.933 237.168 266.317 237.552C266.669 237.936 267.117 238.128 267.693 238.128C268.205 238.128 268.685 237.936 269.069 237.552C269.453 237.168 269.645 236.72 269.645 236.176C269.645 235.6 269.453 235.152 269.069 234.768C268.685 234.384 268.205 234.192 267.693 234.192ZM274.21 215.152V238H276.834V228.656H283.522C288.77 228.656 291.426 226.384 291.426 221.872C291.426 217.392 288.802 215.152 283.554 215.152H274.21ZM276.834 217.424H283.394C285.218 217.424 286.562 217.776 287.458 218.544C288.354 219.216 288.802 220.336 288.802 221.872C288.802 223.408 288.354 224.528 287.49 225.264C286.594 226 285.25 226.384 283.394 226.384H276.834V217.424ZM301.238 221.008C298.838 221.008 296.95 221.872 295.542 223.6C294.134 225.232 293.462 227.28 293.462 229.712C293.462 232.4 294.166 234.512 295.638 236.112C297.046 237.648 298.966 238.448 301.334 238.448C303.478 238.448 305.238 237.808 306.614 236.592C307.734 235.568 308.47 234.288 308.854 232.688H306.294C305.878 233.84 305.334 234.704 304.63 235.28C303.798 235.952 302.678 236.304 301.334 236.304C299.766 236.304 298.518 235.792 297.622 234.768C296.726 233.744 296.246 232.304 296.118 230.448H309.174C309.11 227.568 308.47 225.296 307.254 223.696C305.91 221.904 303.894 221.008 301.238 221.008ZM301.302 223.152C304.438 223.152 306.198 224.912 306.518 228.464H296.182C296.342 226.832 296.854 225.552 297.75 224.592C298.646 223.632 299.83 223.152 301.302 223.152ZM319.916 221.008C318.828 221.008 317.836 221.264 316.94 221.776C316.044 222.256 315.308 222.96 314.732 223.888V221.456H312.172V238H314.732V228.016C314.828 226.512 315.308 225.328 316.204 224.432C317.036 223.6 318.028 223.184 319.18 223.184C322.06 223.184 323.532 224.784 323.532 228.016V238H326.092V227.824C326.092 223.28 324.012 221.008 319.916 221.008ZM337.791 221.008C336.703 221.008 335.711 221.264 334.815 221.776C333.919 222.256 333.183 222.96 332.607 223.888V221.456H330.047V238H332.607V228.016C332.703 226.512 333.183 225.328 334.079 224.432C334.911 223.6 335.903 223.184 337.055 223.184C339.935 223.184 341.407 224.784 341.407 228.016V238H343.967V227.824C343.967 223.28 341.887 221.008 337.791 221.008ZM346.098 221.456L352.658 237.616L349.81 244.336H352.594L361.65 221.456H358.834L353.938 234.512L348.882 221.456H346.098ZM385.813 219.056H388.949C388.853 223.216 388.341 226.896 387.381 230.064C386.517 227.568 385.813 224.624 385.269 221.296C385.461 220.592 385.621 219.856 385.813 219.056ZM386.453 232.624C385.301 235.312 383.733 237.488 381.749 239.184L382.965 241.104C384.757 239.504 386.293 237.52 387.509 235.152C388.597 237.584 389.909 239.536 391.413 241.008L392.725 239.056C391.093 237.584 389.685 235.536 388.501 232.912C390.005 229.104 390.805 224.496 390.933 219.056H392.213V216.912H386.229C386.485 215.408 386.741 213.808 386.965 212.08L384.949 211.728C384.277 218.16 382.997 223.28 381.141 227.088L382.421 228.688C383.061 227.472 383.669 226.128 384.245 224.592C384.853 227.6 385.589 230.288 386.453 232.624ZM378.389 239.248C380.053 238.16 381.717 236.752 383.349 235.024L382.869 233.072C381.909 234.032 380.981 234.896 380.085 235.696V228.528H372.501V232.048C372.469 235.312 371.605 237.808 369.909 239.536L371.605 241.008C373.557 239.024 374.581 236.048 374.645 232.048V230.608H378.037V236.432C377.972 236.816 377.749 237.136 377.429 237.328L378.389 239.248ZM375.573 211.856V219.12H373.333V213.584H371.413V221.104H381.653V213.584H379.765V219.12H377.525V211.856H375.573ZM368.245 211.952C367.125 214.896 365.333 217.488 362.901 219.76L363.605 222C366.645 219.344 368.853 216.304 370.229 212.88L368.245 211.952ZM368.437 220.528C367.317 223.664 365.525 226.416 363.029 228.848L363.701 231.056C364.757 230.096 365.717 229.104 366.581 228.048V241.264H368.725V224.944C369.365 223.856 369.909 222.672 370.357 221.456L368.437 220.528ZM371.349 223.952V226H381.333V223.952H371.349ZM398.741 223.28V241.264H401.013V219.504C402.133 217.328 403.061 215.024 403.829 212.56L401.685 211.568C400.245 216.56 397.973 221.008 394.837 224.88L395.573 227.344C396.725 226.064 397.781 224.688 398.741 223.28ZM403.701 216.08V218.256H424.533V216.08H414.453L415.669 215.632C415.285 214.448 414.773 213.168 414.101 211.76L411.892 212.368C412.533 213.584 413.077 214.8 413.557 216.08H403.701ZM406.645 220.848V222.928H421.781V220.848H406.645ZM406.645 225.36V227.472H421.781V225.36H406.645ZM422.357 230.096H406.037V241.2H408.277V239.472H420.117V241.2H422.357V230.096ZM408.277 237.296V232.24H420.117V237.296H408.277Z" fill="#3F3F3F"/>
<path d="M233.609 361.172V351.75H224.188V361.172H233.609ZM236.734 405.562H255.688V386.406H236.734V405.562ZM290.344 320.375H280.859V329.766H290.344V320.375ZM255.703 307.703H236.734V326.859H255.688V307.703H255.703ZM312.328 373.859H302.922V383.25H331.203V373.859H321.828V364.344H312.344V373.859H312.328ZM290.344 295.063H280.859V314H290.344V295.063ZM290.297 367.547H299.781V358.203H309.219V348.609H299.734V358.047H290.297V367.547ZM321.828 399.031V389.625H312.344V399.016H321.828V399.031ZM331.266 354.906H321.781V364.297H331.266V354.906ZM271.391 292H221.016V342.281H271.391V292ZM265.156 336.031H227.359V298.344H265.156V336.031ZM337.516 361.156H347V351.953H337.516V361.156ZM337.516 408.422H331.266V399.078H321.781V408.422H312.328V418.016H347V408.766H347.016V389.531H337.531V408.422H337.516ZM337.516 383.187H347V373.797H337.516V383.187ZM334.406 307.703H315.438V326.859H334.391V307.703H334.406ZM299.766 292V342.281H350.141V292H299.766ZM343.812 336.031H306.016V298.344H343.812V336.031ZM290.344 389.484H299.781V380.281H290.344V367.562H280.859V417.781H290.297V417.906H299.781V408.516H290.344V389.484ZM243.078 361.281H274.594V351.75H243.078V361.281ZM290.344 336.078H280.812V345.469H290.344V336.078ZM299.734 408.375H309.219V398.984H299.734V408.375ZM221 421.047H271.375V370.766H221V421.047ZM227.359 377.109H265.156V414.797H227.359V377.109Z" fill="#3B5AFA"/>
</svg>
