<svg width="607" height="632" viewBox="0 0 607 632" fill="none" xmlns="http://www.w3.org/2000/svg">
<path d="M72.7626 464.809C143.957 606.317 335.238 556.075 433.47 580.615C435.635 579.557 437.593 578.407 439.318 577.157C519.502 519.075 559.382 346.949 578.473 257.918C598.721 163.496 580.595 82.3997 488.531 52.7227C396.468 23.0458 171.065 -7.76504 90.581 64.1696C22.2759 125.219 41.8347 403.335 72.7626 464.809Z" fill="#FFFDF5" fill-opacity="0.9"/>
<path d="M456.262 588.604C368.441 546.209 149.976 618.282 72.7626 464.809C41.8347 403.335 22.2759 125.219 90.581 64.1696C171.065 -7.76504 396.468 23.0458 488.531 52.7227C580.595 82.3997 598.721 163.496 578.473 257.918C559.382 346.949 519.502 519.075 439.318 577.157C409.669 598.634 311.193 590.804 275.98 588.604C240.767 586.405 149.977 565.818 90.581 509.748C-16.7553 408.423 13.135 178.524 49.0042 100.206C79.1004 34.4926 124.66 0.999989 258.585 1C315.436 1 512.714 20.5021 565.321 91.3029C626.988 174.296 608.975 302.955 578.473 352C522.047 442.727 554.492 434.844 533.052 483.463C522.021 508.476 483.838 550.024 527.961 631" stroke="#3B5AFA"/>
<path d="M3.99922 339.5C11.4478 401.051 71.4991 476 117.499 506.5C163.499 537 325.986 654.957 398.499 592C462.999 536 686.531 246.195 576.499 95.5C507.499 1.00001 152.499 25 66.999 102.5C5.93328 157.852 -5.50041 261 3.99922 339.5Z" fill="#3B5AFA" fill-opacity="0.1" stroke="#3B5AFA"/>
<rect x="198" y="442" width="200" height="61" rx="30.5" fill="#3B5AFA"/>
<path d="M254.776 465.808V472.24C254.776 475.168 254.488 479.128 250.72 481.384C251.224 481.768 251.944 482.536 252.256 483.04C256.312 480.28 257.008 475.816 257.008 472.264V465.808H254.776ZM256.024 478.432C257.2 479.8 258.688 481.672 259.384 482.824L261.352 481.288C260.608 480.184 259.048 478.384 257.896 477.088L256.024 478.432ZM251.536 461.944V476.656H253.696V464.512H257.944V476.536H260.2V461.944H251.536ZM263.176 460.624C262.504 463.576 261.304 466.624 259.84 468.52C260.464 468.928 261.616 469.864 262.096 470.32C263.656 468.136 265.072 464.608 265.936 461.224L263.176 460.624ZM263.848 464.224L262.528 466.816H271.216V464.224H263.848ZM269.992 464.224V464.824C269.8 475.168 269.56 479.104 268.912 479.896C268.648 480.232 268.408 480.328 268 480.328C267.472 480.328 266.416 480.328 265.216 480.232C265.72 481.024 266.056 482.272 266.104 483.088C267.328 483.136 268.528 483.136 269.32 482.992C270.208 482.824 270.784 482.56 271.384 481.672C272.248 480.472 272.464 476.584 272.704 465.544C272.728 465.184 272.728 464.224 272.728 464.224H269.992ZM261.736 478.36C262.288 478 263.176 477.736 268.576 476.536C268.408 476.032 268.216 475.072 268.144 474.424L262.6 475.504L261.544 476.272L261.736 478.36ZM261.736 478.36C261.736 477.88 263.272 477.016 263.272 477.016V476.992C264.448 474.928 265.72 471.856 266.464 469.072L263.848 468.328C263.392 470.968 262.336 473.848 262 474.568C261.64 475.36 261.304 475.84 260.896 475.984C261.208 476.632 261.592 477.832 261.736 478.36ZM265.96 472.168C266.608 474.064 267.232 476.536 267.472 478.024L269.608 477.232C269.344 475.792 268.624 473.392 267.952 471.544L265.96 472.168ZM285.904 465.496C285.688 474.184 285.664 478.744 274.888 480.784C275.416 481.36 276.088 482.44 276.328 483.16C287.992 480.736 288.52 475.048 288.808 465.496H285.904ZM275.464 473.176V475.816H296.68V473.176H275.464ZM286.48 478.864C289.624 480.112 292.936 481.84 294.856 483.16L296.68 480.904C294.664 479.656 291.136 477.976 287.944 476.8L286.48 478.864ZM278.776 467.248C280.384 467.992 282.544 469.168 283.552 469.984L285.208 467.824C284.104 467.032 281.92 465.952 280.336 465.328L278.776 467.248ZM276.04 470.608C277.528 471.28 279.544 472.384 280.504 473.128L282.16 470.992C281.128 470.272 279.088 469.288 277.624 468.688L276.04 470.608ZM276.4 461.92V464.608H294.616V461.92H276.4ZM293.776 461.896V462.328C293.176 464.032 292.096 466.12 291.184 467.44L293.536 468.592C294.688 467.056 295.96 464.728 296.896 462.592L294.736 461.728L294.28 461.896H293.776ZM298.864 463.216V465.928H306.88V463.216H298.864ZM301.624 464.368V476.392H304.48V464.368H301.624ZM298.456 475.984L299.152 479.032C301.48 478.24 304.48 477.208 307.312 476.2L306.976 473.776C303.76 474.64 300.496 475.504 298.456 475.984ZM307.192 461.536V464.104H321.088V461.536H307.192ZM312.304 462.712C312.04 463.912 311.536 465.52 311.032 466.696L313.624 467.224C314.224 466.216 315.064 464.704 315.76 463.168L312.304 462.712ZM312.4 469.408V474.328C312.4 476.68 311.584 479.416 305.152 481C305.776 481.576 306.64 482.608 306.976 483.208C313.744 481.144 315.28 477.688 315.28 474.352V469.408H312.4ZM314.44 479.272C316.168 480.376 318.424 481.984 319.48 483.064L321.4 481.12C320.272 480.064 317.92 478.552 316.24 477.544L314.44 479.272ZM307.84 465.976V477.328H310.648V468.52H316.96V477.232H319.888V465.976H307.84ZM327.448 467.488V470.2H340.48V467.488H327.448ZM327.448 473.056V475.768H340.48V473.056H327.448ZM327.448 478.6V481.408H340.48V478.6H327.448ZM325.36 461.92V482.896H328.264V464.752H339.424V482.896H342.472V461.92H325.36Z" fill="white"/>
<path d="M190.301 280.545V298H187.659V283.188H187.557L183.381 285.915V283.392L187.736 280.545H190.301ZM199.896 299.344L201.528 297.952C200.016 296.2 197.856 294.04 196.128 292.648L194.568 294.016C196.272 295.408 198.336 297.448 199.896 299.344ZM222.816 285.952V287.536H234.696V285.952H222.816ZM218.784 291.424V293.104H240V291.424H218.784ZM228.432 289.672V297.736C228.432 298.096 228.312 298.216 227.832 298.24C227.352 298.264 225.72 298.264 223.872 298.216C224.16 298.696 224.52 299.44 224.64 299.944C226.824 299.944 228.216 299.92 229.08 299.656C229.992 299.392 230.28 298.864 230.28 297.784V289.672H228.432ZM234.144 285.952V286.312C233.016 287.536 230.712 289.12 228.696 289.984C229.008 290.248 229.488 290.728 229.704 291.04C231.984 290.056 234.504 288.4 236.136 286.744L234.984 285.856L234.6 285.952H234.144ZM219.264 281.848V287.2H220.968V283.48H237.816V287.2H239.592V281.848H219.264ZM236.424 278.008C235.752 279.28 234.528 281.056 233.568 282.184L234.984 282.784C235.992 281.728 237.288 280.12 238.296 278.632L236.424 278.008ZM220.896 278.848C221.784 279.88 222.744 281.32 223.128 282.232L224.736 281.464C224.328 280.504 223.344 279.136 222.408 278.128L220.896 278.848ZM227.064 278.32C227.856 279.496 228.648 281.08 228.936 282.088L230.592 281.44C230.304 280.432 229.44 278.872 228.624 277.744L227.064 278.32ZM244.176 279.592V281.32H261.504V279.592H244.176ZM246.864 284.488C249.024 286 251.88 288.16 253.224 289.528L254.496 288.136C253.08 286.816 250.224 284.752 248.088 283.312L246.864 284.488ZM260.856 279.592V280C260.688 292.096 260.496 296.776 259.704 297.664C259.44 297.976 259.176 298.048 258.72 298.048C258.096 298.048 256.584 298.048 254.904 297.928C255.24 298.408 255.48 299.152 255.504 299.656C256.896 299.728 258.456 299.776 259.392 299.68C260.256 299.608 260.856 299.344 261.384 298.528C262.296 297.304 262.488 293.248 262.656 280.624C262.656 280.36 262.656 279.592 262.656 279.592H260.856ZM243.816 294.784L244.44 296.608C248.136 295.336 253.584 293.464 258.528 291.712L258.216 290.032C252.96 291.832 247.272 293.728 243.816 294.784ZM276.432 291.448V293.488H284.736V291.448H276.432ZM273.48 279.256V281.32H287.808V279.256H273.48ZM274.128 282.28V284.224H287.136V282.28H274.128ZM272.736 285.232V287.296H288.552V285.232H272.736ZM276.456 294.568V296.56H284.784V294.568H276.456ZM274.344 288.232V300.184H277.008V290.32H284.616V288.232H274.344ZM284.208 288.232V297.352C284.208 297.64 284.088 297.736 283.776 297.736C283.44 297.76 282.288 297.76 281.328 297.712C281.64 298.384 282 299.44 282.096 300.16C283.776 300.16 284.952 300.136 285.816 299.728C286.68 299.344 286.92 298.648 286.92 297.4V288.232H284.208ZM279.12 277.624V285.904H281.976V277.624H279.12ZM268.8 277.624V300.16H271.392V277.624H268.8ZM266.736 282.376C266.592 284.32 266.256 287.008 265.728 288.664L267.84 289.384C268.32 287.512 268.704 284.632 268.752 282.616L266.736 282.376ZM271.008 281.632C271.488 282.784 272.064 284.296 272.304 285.232L274.176 284.344C273.912 283.456 273.288 281.992 272.784 280.888L271.008 281.632ZM299.544 280.168V282.664H308.472V280.168H299.544ZM302.184 293.104V295.312H310.152V293.104H302.184ZM302.088 296.872V299.224H310.032V296.872H302.088ZM298.44 284.848V287.416H312.6V284.848H298.44ZM302.976 277.648V286.432H305.688V277.648H302.976ZM301.008 289.168V300.088H303.696V291.544H308.616V299.992H311.424V289.168H301.008ZM309.72 278.728C307.368 284.32 303.048 288.52 297.528 290.896C298.08 291.448 298.968 292.6 299.328 293.2C304.992 290.416 309.6 285.736 312.336 279.544L309.72 278.728ZM290.904 293.944C290.904 293.488 292.608 292.696 292.608 292.696V292.648C294.888 290.344 297.264 287.176 299.064 284.032L296.88 282.664C295.272 285.88 292.8 289.192 292.008 290.032C291.216 290.896 290.712 291.448 290.088 291.592C290.376 292.24 290.784 293.464 290.904 293.944ZM290.904 293.944C291.48 293.608 292.44 293.32 297.816 292.288C297.768 291.688 297.792 290.632 297.888 289.888L291.936 290.872L290.736 291.712L290.904 293.944ZM290.712 288.088C290.712 287.608 292.2 286.768 292.2 286.768V286.696C293.856 284.608 295.656 281.584 296.808 278.776L294.24 277.576C293.4 280.384 291.792 283.408 291.264 284.152C290.76 284.944 290.352 285.472 289.848 285.592C290.16 286.288 290.592 287.56 290.712 288.088ZM290.712 288.088C291.192 287.872 291.936 287.704 295.536 287.32C295.536 286.768 295.656 285.784 295.8 285.088L291.792 285.4L290.64 286.168L290.712 288.088ZM290.112 296.368L290.64 299.104C293.04 298.48 296.136 297.664 299.064 296.848L298.776 294.472C295.608 295.192 292.272 295.96 290.112 296.368ZM320.424 297.424V299.536H332.136V297.424H320.424ZM323.856 282.664V285.544H326.64V282.664H323.856ZM315 284.32V289.096H317.712V286.48H333.072V289.096H335.88V284.32H315ZM320.328 287.488V289.552H329.208V290.8H320.328V292.864H332.088V287.488H320.328ZM320.448 293.944V296.056H331.032V300.184H333.912V293.944H320.448ZM318.744 287.488V300.208H321.48V287.488H318.744ZM317.424 279.304V281.56H324.984V279.304H317.424ZM327.144 279.304V281.56H336.456V279.304H327.144ZM317.52 277.432C316.776 279.256 315.408 281.128 313.968 282.328C314.616 282.664 315.768 283.432 316.32 283.864C317.736 282.496 319.272 280.312 320.208 278.152L317.52 277.432ZM327.288 277.432C326.592 279.184 325.248 280.936 323.712 282.04C324.432 282.352 325.656 282.976 326.232 283.408C327.672 282.16 329.16 280.168 330.024 278.104L327.288 277.432ZM318.312 281.056C318.888 281.92 319.512 283.144 319.728 283.888L322.32 283.144C322.032 282.376 321.36 281.224 320.76 280.408L318.312 281.056ZM329.04 281.128C329.712 281.968 330.504 283.192 330.816 283.912L333.48 283.168C333.096 282.4 332.256 281.248 331.56 280.456L329.04 281.128ZM349.656 285.352H356.928V287.416H349.656V285.352ZM349.656 281.08H356.928V283.096H349.656V281.08ZM347.064 278.632V289.84H359.664V278.632H347.064ZM346.896 291.904V294.496H359.928V291.904H346.896ZM345.216 296.8V299.392H360.72V296.8H345.216ZM338.184 278.992V281.68H346.152V278.992H338.184ZM338.424 285.904V288.568H345.744V285.904H338.424ZM337.92 295.024L338.568 297.952C340.872 297.208 343.752 296.272 346.44 295.36L345.936 292.6C343.056 293.536 339.984 294.496 337.92 295.024ZM340.848 280.048V295.24L343.584 294.808V280.048H340.848ZM352.128 279.664V288.712H351.864V298.024H354.816V288.712H354.552V279.664H352.128ZM365.112 300.568C367.632 299.704 369.264 297.736 369.264 295.144C369.264 293.464 368.544 292.36 367.2 292.36C366.24 292.36 365.376 292.96 365.376 294.088C365.376 295.24 366.192 295.816 367.176 295.816C367.632 295.816 368.112 295.696 368.448 295.264L367.152 293.44L367.608 295.48C367.608 297.28 366.528 298.504 364.56 299.32L365.112 300.568ZM183.679 346V344.091L189.585 337.972C190.216 337.307 190.736 336.724 191.145 336.224C191.56 335.719 191.869 335.239 192.074 334.784C192.278 334.33 192.381 333.847 192.381 333.335C192.381 332.756 192.244 332.256 191.972 331.835C191.699 331.409 191.327 331.082 190.855 330.855C190.384 330.622 189.852 330.506 189.261 330.506C188.636 330.506 188.091 330.634 187.625 330.889C187.159 331.145 186.801 331.506 186.551 331.972C186.301 332.437 186.176 332.983 186.176 333.608H183.662C183.662 332.545 183.906 331.616 184.395 330.821C184.884 330.026 185.554 329.409 186.406 328.972C187.259 328.528 188.227 328.307 189.312 328.307C190.409 328.307 191.375 328.526 192.21 328.963C193.051 329.395 193.707 329.986 194.179 330.736C194.651 331.48 194.886 332.321 194.886 333.259C194.886 333.906 194.764 334.54 194.52 335.159C194.281 335.778 193.864 336.469 193.267 337.23C192.67 337.986 191.841 338.903 190.778 339.983L187.31 343.614V343.741H195.168V346H183.679ZM203.271 347.344L204.903 345.952C203.391 344.2 201.231 342.04 199.503 340.648L197.943 342.016C199.647 343.408 201.711 345.448 203.271 347.344ZM234.975 330.904V333.136H243.687V330.904H234.975ZM238.671 331.792V338.392H241.287V331.792H238.671ZM224.583 338.824V348.16H227.295V340.984H238.071V348.136H240.927V338.824H224.583ZM226.527 342.16V344.08H238.839V342.16H226.527ZM226.527 345.256V347.416H238.863V345.256H226.527ZM242.079 325.84C240.039 326.488 236.919 326.944 234.183 327.184C234.447 327.76 234.735 328.648 234.807 329.224C237.591 329.08 240.927 328.696 243.351 328.024L242.079 325.84ZM234.183 327.184V330.712C234.183 332.656 234.015 335.248 232.431 337.144C233.031 337.384 234.159 338.152 234.615 338.56C236.367 336.472 236.703 333.184 236.703 330.76V327.184H234.183ZM221.895 327.04V329.176H233.247V327.04H221.895ZM227.367 329.752V338.344H229.983V329.752H227.367ZM222.687 333.664C222.687 333.232 223.863 332.44 223.863 332.44V332.368C225.471 330.952 227.391 328.6 228.735 326.32L225.831 325.648C225.039 327.592 223.575 329.632 223.119 330.136C222.663 330.688 222.255 331.072 221.823 331.168C222.135 331.888 222.543 333.136 222.687 333.664ZM222.687 333.664C222.903 333.448 223.791 333.304 224.751 333.304H233.319V331.096H223.887L222.687 331.744V333.664ZM221.871 334.984L222.063 337.288C224.991 336.976 229.071 336.592 232.983 336.184V334.144C228.879 334.48 224.631 334.816 221.871 334.984ZM252.543 327.736V330.184H267.831V327.736H252.543ZM258.567 325.672V328.888H261.471V325.672H258.567ZM256.815 332.944H263.343V334.264H256.815V332.944ZM254.079 331.048V336.16H266.247V331.048H254.079ZM251.967 337.072V341.728H254.487V339.28H265.503V341.728H268.119V337.072H251.967ZM255.279 340.264V342.568H264.831V340.264H255.279ZM258.567 340.816V345.28C258.567 345.544 258.471 345.616 258.087 345.616C257.727 345.64 256.311 345.64 255.183 345.592C255.519 346.336 255.903 347.392 255.999 348.184C257.799 348.184 259.167 348.184 260.175 347.8C261.183 347.416 261.447 346.72 261.447 345.352V340.816H258.567ZM250.407 325.72C249.183 329.152 247.095 332.56 244.911 334.744C245.415 335.44 246.183 337.024 246.447 337.72C249.063 334.984 251.559 330.664 253.119 326.56L250.407 325.72ZM248.079 332.344V348.136H250.839V329.632L250.815 329.608L248.079 332.344ZM276.927 328.024L275.727 329.512H284.391V328.024H276.927ZM277.047 325.864C275.775 328.408 273.375 331.528 269.991 333.832C270.447 334.096 271.047 334.672 271.359 335.056C274.887 332.512 277.383 329.2 279.015 326.224L277.047 325.864ZM283.743 328.024V328.384C283.119 329.824 281.751 331.96 280.551 333.28C280.983 333.496 281.607 333.88 281.919 334.12C283.191 332.728 284.751 330.52 285.663 328.72L284.439 327.928L284.151 328.024H283.743ZM281.247 343.816C284.367 345.136 287.511 346.744 289.431 347.92L290.823 346.672C288.783 345.52 285.423 343.936 282.351 342.64L281.247 343.816ZM279.999 336.088C279.615 342.04 278.607 345.064 270.207 346.384C270.543 346.768 270.951 347.464 271.095 347.896C279.999 346.36 281.391 342.784 281.871 336.088H279.999ZM273.447 332.752V343.168H275.247V334.336H286.599V343.168H288.495V332.752H273.447ZM301.239 336.52V338.008H307.815V336.52H301.239ZM301.239 340.696V342.184H307.887V340.696H301.239ZM296.295 344.992V346.672H313.239V344.992H296.295ZM295.191 332.176V347.944H296.943V333.856H312.399V347.944H314.223V332.176H295.191ZM300.399 333.232V345.76H302.031V333.232H300.399ZM307.119 333.232V345.688H308.775V333.232H307.119ZM303.519 328.24C303.351 329.632 302.871 331.624 302.487 332.92L304.119 333.376C304.599 332.176 305.103 330.328 305.607 328.72L303.519 328.24ZM294.111 327.448V329.176H315.375V327.448H294.111ZM323.607 340.216V344.968C323.607 346.912 324.303 347.44 326.895 347.44C327.423 347.44 331.191 347.44 331.743 347.44C333.975 347.44 334.527 346.624 334.767 343.36C334.263 343.24 333.519 342.952 333.111 342.664C332.991 345.376 332.799 345.76 331.623 345.76C330.783 345.76 327.639 345.76 327.015 345.76C325.671 345.76 325.431 345.664 325.431 344.968V340.216H323.607ZM325.839 339.304C327.639 340.264 329.799 341.776 330.831 342.832L332.103 341.608C331.023 340.528 328.815 339.088 327.015 338.2L325.839 339.304ZM334.503 340.48C335.895 342.352 337.263 344.872 337.791 346.504L339.519 345.736C338.991 344.08 337.503 341.632 336.111 339.832L334.503 340.48ZM320.511 340.096C319.983 341.968 319.071 344.344 317.871 345.832L319.479 346.696C320.679 345.136 321.543 342.64 322.095 340.648L320.511 340.096ZM321.903 333.064H335.247V336.16H321.903V333.064ZM321.903 328.504H335.247V331.552H321.903V328.504ZM320.199 326.92V337.744H337.023V326.92H320.199ZM327.759 327.592V337.048H329.511V327.592H327.759ZM342.351 341.632C342.351 341.272 343.551 340.768 343.551 340.768V340.72C345.831 338.344 348.159 335.008 350.055 331.696L348.615 330.832C346.959 334.144 344.415 337.576 343.623 338.464C342.879 339.352 342.327 339.952 341.799 340.048C342.015 340.48 342.279 341.296 342.351 341.632ZM342.351 341.632C342.855 341.344 343.647 341.128 349.479 339.952C349.455 339.592 349.455 338.92 349.503 338.464L343.143 339.616L342.279 340.216L342.351 341.632ZM342.183 335.872C342.183 335.512 343.239 334.96 343.239 334.96V334.912C344.871 332.728 346.527 329.608 347.703 326.632L346.071 325.888C345.159 328.792 343.479 331.912 342.951 332.728C342.423 333.544 342.039 334.12 341.631 334.216C341.823 334.672 342.111 335.512 342.183 335.872ZM342.183 335.872C342.567 335.68 343.215 335.536 347.223 335.008C347.223 334.672 347.271 334.048 347.343 333.592L342.975 334.048L342.135 334.6L342.183 335.872ZM341.775 344.728L342.135 346.456C344.343 345.88 347.271 345.136 350.103 344.416L349.935 342.88C346.911 343.6 343.815 344.32 341.775 344.728ZM352.743 334.864V336.496H362.703V334.864H352.743ZM352.791 339.592V341.224H362.751V339.592H352.791ZM352.623 344.536V346.216H363.663V344.536H352.623ZM357.423 330.76V345.448H359.103V330.76H357.423ZM353.559 330.184H352.935L351.879 331.312V347.944H353.559V331.84H363.327V330.184H353.559ZM353.823 325.984C352.983 328.744 351.303 332.224 349.383 334.456C349.671 334.864 350.103 335.608 350.271 336.04C352.527 333.496 354.399 329.728 355.551 326.464L353.823 325.984ZM356.535 326.608C357.207 327.688 357.903 329.104 358.167 330.04L359.799 329.32C359.487 328.408 358.767 327.016 358.047 325.984L356.535 326.608ZM368.487 348.568C371.007 347.704 372.639 345.736 372.639 343.144C372.639 341.464 371.919 340.36 370.575 340.36C369.615 340.36 368.751 340.96 368.751 342.088C368.751 343.24 369.567 343.816 370.551 343.816C371.007 343.816 371.487 343.696 371.823 343.264L370.527 341.44L370.983 343.48C370.983 345.28 369.903 346.504 367.935 347.32L368.487 348.568ZM189.756 394.239C188.585 394.239 187.54 394.037 186.619 393.634C185.705 393.23 184.98 392.67 184.446 391.955C183.918 391.233 183.634 390.398 183.594 389.449H186.27C186.304 389.966 186.477 390.415 186.79 390.795C187.108 391.17 187.523 391.46 188.034 391.665C188.545 391.869 189.114 391.972 189.739 391.972C190.426 391.972 191.034 391.852 191.562 391.614C192.097 391.375 192.514 391.043 192.815 390.616C193.116 390.185 193.267 389.688 193.267 389.125C193.267 388.54 193.116 388.026 192.815 387.582C192.52 387.134 192.085 386.781 191.511 386.526C190.943 386.27 190.256 386.142 189.449 386.142H187.974V383.994H189.449C190.097 383.994 190.665 383.878 191.153 383.645C191.648 383.412 192.034 383.088 192.312 382.673C192.591 382.253 192.73 381.761 192.73 381.199C192.73 380.659 192.608 380.19 192.364 379.793C192.125 379.389 191.784 379.074 191.341 378.847C190.903 378.619 190.386 378.506 189.79 378.506C189.222 378.506 188.69 378.611 188.196 378.821C187.707 379.026 187.31 379.321 187.003 379.707C186.696 380.088 186.531 380.545 186.509 381.08H183.96C183.989 380.136 184.267 379.307 184.795 378.591C185.33 377.875 186.034 377.315 186.909 376.912C187.784 376.509 188.756 376.307 189.824 376.307C190.943 376.307 191.909 376.526 192.722 376.963C193.54 377.395 194.17 377.972 194.614 378.693C195.063 379.415 195.284 380.205 195.278 381.062C195.284 382.04 195.011 382.869 194.46 383.551C193.915 384.233 193.188 384.69 192.278 384.923V385.06C193.438 385.236 194.335 385.696 194.972 386.44C195.614 387.185 195.932 388.108 195.926 389.21C195.932 390.17 195.665 391.031 195.125 391.793C194.591 392.554 193.861 393.153 192.935 393.591C192.009 394.023 190.949 394.239 189.756 394.239ZM204.021 395.344L205.653 393.952C204.141 392.2 201.981 390.04 200.253 388.648L198.693 390.016C200.397 391.408 202.461 393.448 204.021 395.344ZM222.669 375.424V377.056H234.981V375.424H222.669ZM223.389 386.848V388.48H234.285V386.848H223.389ZM227.973 383.992V393.664L229.749 393.4V383.992H227.973ZM222.405 393.4L222.693 395.2C225.885 394.768 230.613 394.096 235.077 393.472L235.029 391.792C230.397 392.416 225.525 393.064 222.405 393.4ZM222.621 381.952L222.765 383.656C225.621 383.488 229.725 383.272 233.661 383.032L233.709 381.448C229.581 381.664 225.357 381.856 222.621 381.952ZM230.277 379.024C231.717 380.728 233.325 383.056 234.021 384.52L235.461 383.656C234.765 382.216 233.085 379.96 231.621 378.28L230.277 379.024ZM226.821 376.288C226.293 378.184 225.261 380.992 224.421 382.696L226.005 383.08C226.893 381.424 227.925 378.784 228.765 376.672L226.821 376.288ZM236.037 376.744V390.04H237.765V376.744H236.037ZM241.701 374.536V393.52C241.701 393.952 241.581 394.072 241.149 394.096C240.669 394.096 239.181 394.12 237.573 394.048C237.837 394.6 238.101 395.44 238.197 395.944C240.141 395.944 241.605 395.896 242.397 395.584C243.189 395.296 243.477 394.744 243.477 393.496V374.536H241.701ZM252.909 379.528V381.208H267.909V379.528H252.909ZM251.853 385.024H246.669V386.68H250.101V392.032H251.853V385.024ZM251.853 391.072H250.245C248.973 392.104 247.533 393.16 246.333 393.928L247.269 395.728C248.613 394.672 249.861 393.64 251.061 392.608C252.573 394.48 254.733 395.344 257.877 395.488C260.493 395.56 265.461 395.512 268.077 395.416C268.149 394.864 268.437 394.024 268.653 393.616C265.821 393.808 260.469 393.856 257.853 393.76C255.093 393.664 252.981 392.824 251.853 391.072ZM247.797 375.256C249.285 376.096 250.989 377.392 251.805 378.352L253.077 377.128C252.261 376.144 250.485 374.92 249.021 374.152L247.797 375.256ZM246.813 380.152C248.397 380.92 250.245 382.192 251.085 383.152L252.333 381.88C251.421 380.92 249.549 379.696 248.013 378.976L246.813 380.152ZM259.293 373.912C259.197 382.24 259.053 387.856 252.669 390.712C253.077 391.024 253.629 391.672 253.869 392.08C260.613 388.936 260.949 382.744 261.093 373.912H259.293ZM261.237 380.536L259.653 380.776C260.637 386.512 262.701 390.208 267.213 392.032C267.453 391.552 267.957 390.856 268.365 390.496C264.093 389.008 262.101 385.6 261.237 380.536ZM271.341 375.184V377.992H291.765V375.184H271.341ZM282.069 383.272V386.104H290.541V383.272H282.069ZM270.525 392.44V395.248H292.461V392.44H270.525ZM280.653 376.312V393.808H283.725V376.312H280.653ZM273.477 381.712V393.952H276.477V381.712H273.477ZM302.109 384.208V386.464H308.277V384.208H302.109ZM302.109 388.24V390.496H308.301V388.24H302.109ZM297.453 392.296V394.936H313.653V392.296H297.453ZM295.653 379.888V396.16H298.413V382.528H312.333V396.16H315.261V379.888H295.653ZM300.885 381.64V393.472H303.453V381.64H300.885ZM307.149 381.64V393.448H309.741V381.64H307.149ZM303.597 376.24C303.501 377.752 303.117 379.768 302.781 381.16L305.421 381.856C305.901 380.608 306.429 378.736 307.005 376.96L303.597 376.24ZM294.645 374.992V377.728H316.341V374.992H294.645ZM320.901 377.512V380.032H325.653V391.144H320.901V393.688H328.269V377.512H320.901ZM319.221 377.512V395.464H321.837V377.512H319.221ZM320.781 383.92V386.416H326.925V383.92H320.781ZM322.629 373.6C322.509 374.92 322.173 376.768 321.837 378.016L324.141 378.52C324.621 377.392 325.221 375.688 325.773 374.056L322.629 373.6ZM331.437 377.344V379.96H338.445V377.344H331.437ZM337.461 377.344V377.896C337.197 387.904 336.885 392.032 336.117 392.848C335.805 393.184 335.541 393.28 335.061 393.28C334.461 393.28 333.021 393.256 331.461 393.136C331.989 393.904 332.373 395.128 332.421 395.92C333.813 395.992 335.277 396.016 336.189 395.872C337.173 395.728 337.845 395.464 338.517 394.528C339.501 393.256 339.789 389.44 340.101 378.64C340.125 378.28 340.125 377.344 340.125 377.344H337.461ZM331.509 373.624C330.741 376.816 329.373 380.08 327.765 382.096C328.437 382.48 329.613 383.296 330.141 383.776C331.773 381.472 333.333 377.824 334.269 374.272L331.509 373.624ZM330.333 384.256C331.485 386.032 332.997 388.384 333.645 389.848L336.093 388.36C335.349 386.944 333.765 384.64 332.589 382.984L330.333 384.256ZM350.277 386.056V396.088H352.989V388.288H360.021V396.016H362.853V386.056H350.277ZM351.477 373.648V377.824C351.477 379.912 351.189 382.912 347.829 384.712C348.405 385.144 349.221 386.008 349.581 386.56C353.253 384.232 354.069 380.632 354.069 377.824V373.648H351.477ZM359.037 373.72V377.944C359.037 379.96 358.725 382.744 355.605 384.376C356.181 384.832 356.973 385.696 357.333 386.248C360.813 384.088 361.629 380.68 361.629 377.968V373.72H359.037ZM361.389 380.008L359.325 380.68C360.093 382.936 361.509 385.216 363.237 386.44C363.621 385.792 364.461 384.856 365.061 384.376C363.453 383.488 362.061 381.76 361.389 380.008ZM351.597 389.536V391.576H361.317V389.536H351.597ZM349.029 375.472V377.728H355.893V375.472H349.029ZM348.621 378.904V381.16H355.965V378.904H348.621ZM356.661 378.928V381.16H364.413V378.928H356.661ZM356.661 375.472V377.728H364.101V375.472H356.661ZM351.621 392.92V395.152H361.173V392.92H351.621ZM343.365 375.856C344.805 376.48 346.653 377.56 347.517 378.4L349.197 376C348.261 375.232 346.389 374.248 344.949 373.696L343.365 375.856ZM342.117 382.36C343.581 382.96 345.381 383.992 346.245 384.76L347.925 382.36C346.989 381.616 345.117 380.68 343.701 380.176L342.117 382.36ZM342.741 394.168L345.309 395.896C346.557 393.544 347.877 390.736 348.957 388.144L346.677 386.44C345.453 389.272 343.869 392.32 342.741 394.168ZM353.373 380.92L351.669 382C352.437 382.744 353.877 384.352 354.501 385.24L356.373 383.344C355.917 382.912 353.973 381.328 353.373 380.92ZM372.309 387.496V386.464H382.725V387.496H372.309ZM372.309 384.784V383.752H382.725V384.784H372.309ZM385.581 381.976H369.597V389.272H385.581V381.976ZM383.637 377.176L380.637 376.624C380.445 377.272 380.061 378.184 379.749 378.856L382.293 379.408C382.653 378.832 383.109 378.088 383.637 377.176ZM374.253 376.624L371.613 377.152C371.949 377.872 372.261 378.808 372.357 379.456L375.093 378.832C374.949 378.232 374.613 377.32 374.253 376.624ZM378.885 373.624H375.981V376.504H378.885V373.624ZM387.933 378.856H367.077V381.088H387.933V378.856ZM386.637 374.896H368.229V377.128H386.637V374.896ZM371.685 390.952L369.285 390.064C368.709 391.672 367.629 393.232 366.117 394.168L368.349 395.68C370.053 394.552 371.037 392.776 371.685 390.952ZM384.861 389.776L382.629 391.024C384.093 392.344 385.725 394.24 386.397 395.536L388.797 394.144C388.029 392.8 386.325 391.024 384.861 389.776ZM376.509 388.744L374.973 390.256C376.317 390.904 378.021 391.912 378.861 392.632L380.517 390.952C379.605 390.232 377.853 389.296 376.509 388.744ZM375.117 392.896V390.4H372.309V392.92C372.309 395.2 373.053 395.92 376.101 395.92C376.701 395.92 379.341 395.92 379.989 395.92C382.245 395.92 383.013 395.248 383.301 392.536C382.581 392.392 381.453 392.008 380.877 391.624C380.757 393.328 380.589 393.592 379.725 393.592C379.053 393.592 376.917 393.592 376.413 393.592C375.309 393.592 375.117 393.52 375.117 392.896ZM402.621 377.896H408.237V383.872H402.621V377.896ZM399.765 375.16V386.608H411.237V375.16H399.765ZM406.677 389.368C407.949 391.48 409.269 394.288 409.725 396.04L412.605 394.936C412.125 393.16 410.685 390.472 409.365 388.432L406.677 389.368ZM401.277 388.528C400.605 390.808 399.357 393.064 397.797 394.48C398.517 394.864 399.789 395.656 400.341 396.112C401.925 394.48 403.389 391.864 404.229 389.2L401.277 388.528ZM391.413 375.736C392.709 376.912 394.437 378.544 395.205 379.624L397.173 377.632C396.333 376.6 394.581 375.064 393.261 374.008L391.413 375.736ZM393.477 395.728C393.909 395.152 394.749 394.432 399.285 390.568C398.925 390.016 398.397 388.864 398.157 388.048L393.309 392.128L392.781 393.04L393.477 395.728ZM390.405 381.016V383.776H394.797V381.016H390.405ZM393.477 395.728C393.477 394.648 396.045 392.08 396.045 392.08V381.016H393.237V390.712C393.237 392.2 392.349 393.352 391.749 393.88C392.229 394.264 393.165 395.2 393.477 395.728Z" fill="#3B5AFA"/>
<path d="M163.912 145.665V112.953L185.684 108.821L233.375 115.363L235.103 106.066H274.5V112.953H289.015H336.36L343.272 104L357.787 108.821L374.721 115.363L379.559 106.066L398.221 108.821L433.125 110.542L439 120.528L435.89 140.156V180.788L415.5 191.118V229.637L410.316 239.623L352.603 241L333.25 231.014L313.206 241L304.912 232.736L295.581 241L284.176 231.014L253.419 237.557L251.346 229.637L226.463 235.835H188.103L181.882 215.91L188.103 207.302V184.92L170.478 180.788L157 152.896L163.912 145.665Z" fill="#3B5AFA"/>
<path d="M221.44 138.928V146.56H218.848V141.328H185.248V146.56H182.656V138.928H190C189.488 137.136 188.928 135.472 188.32 133.936L190.864 133.552C191.28 134.64 191.84 136.432 192.544 138.928H201.28C200.64 136.752 200.032 134.96 199.456 133.552L201.952 133.168C202.624 134.832 203.248 136.752 203.824 138.928H210.448C211.728 136.848 212.832 134.624 213.76 132.256L216.256 133.168C215.36 135.28 214.32 137.2 213.136 138.928H221.44ZM220.864 130.144C211.392 131.648 198.96 132.4 183.568 132.4L182.752 129.952C197.696 129.952 209.968 129.232 219.568 127.792L220.864 130.144ZM198.064 143.152L197.248 146.944H218.032V149.44H196.576C195.968 151.328 195.456 152.816 195.04 153.904H216.352V155.92C213.984 159.12 211.072 161.92 207.616 164.32C211.936 166.176 216.736 167.44 222.016 168.112L220.864 170.416C215.072 169.648 209.872 168.112 205.264 165.808C201.04 168.144 196.448 169.792 191.488 170.752L190.336 168.4C195.072 167.568 199.2 166.256 202.72 164.464C199.328 162.48 196.24 160.112 193.456 157.36C190.672 162.768 187.008 167.024 182.464 170.128L181.216 167.872C187.232 163.552 191.472 157.408 193.936 149.44H186.112V146.944H194.608C194.928 145.664 195.216 144.304 195.472 142.864L198.064 143.152ZM195.184 156.208C198.128 158.992 201.392 161.296 204.976 163.12C208.176 161.136 210.944 158.832 213.28 156.208H195.184ZM265.84 132.832V170.656H263.248V167.392H236.752V170.656H234.16V132.832H244.288C245.472 130.816 246.32 128.784 246.832 126.736L249.472 127.12C248.896 129.168 248.08 131.072 247.024 132.832H265.84ZM236.752 164.896H263.248V156.304H236.752V164.896ZM236.752 153.808H263.248V145.792H236.752V153.808ZM236.752 143.296H263.248V135.328H236.752V143.296ZM319.12 156.88C318.736 162.096 318.128 165.424 317.296 166.864C316.432 168.368 314.8 169.12 312.4 169.12H286.048C282.752 169.12 281.104 167.6 281.104 164.56V145.648H311.008V132.208H278.272V129.712H313.648V148.192H283.744V163.744C283.744 165.632 284.832 166.592 287.008 166.624H311.92C313.744 166.624 314.944 165.904 315.52 164.464C316.032 163.024 316.384 160.224 316.576 156.064L319.12 156.88ZM361.84 132.832V170.656H359.248V167.392H332.752V170.656H330.16V132.832H340.288C341.472 130.816 342.32 128.784 342.832 126.736L345.472 127.12C344.896 129.168 344.08 131.072 343.024 132.832H361.84ZM332.752 164.896H359.248V156.304H332.752V164.896ZM332.752 153.808H359.248V145.792H332.752V153.808ZM332.752 143.296H359.248V135.328H332.752V143.296ZM377.824 142.528C376.064 145.216 374.272 147.584 372.448 149.632L371.584 146.896C376.512 140.816 380.048 134.016 382.192 126.496L384.64 127.648C383.552 131.232 382.128 134.72 380.368 138.112V170.8H377.824V142.528ZM384.928 133.648H415.936V136.144H384.928V133.648ZM389.392 140.752H411.76V143.104H389.392V140.752ZM389.392 147.52H411.76V149.92H389.392V147.52ZM412.576 154.576V170.656H410.032V168.016H391.168V170.656H388.576V154.576H412.576ZM391.168 165.52H410.032V157.024H391.168V165.52ZM400 126.784C401.056 128.8 401.872 130.672 402.448 132.4L400.144 133.312C399.376 131.168 398.496 129.216 397.504 127.456L400 126.784ZM239.968 202.416C242.656 209.488 244.976 217.36 246.928 226.032L244.384 226.704L243.232 221.712C236.256 223.088 229.344 224.256 222.496 225.216L222.016 222.72C222.816 222.464 223.28 222.128 223.408 221.712L234.256 183.936L236.848 184.272L225.904 222.144C232.528 221.184 238.096 220.224 242.608 219.264C241.232 213.952 239.568 208.592 237.616 203.184L239.968 202.416ZM205.312 196.128H214.192V188.208C211.024 188.688 208.352 189.04 206.176 189.264L205.648 186.768C212.624 186.064 218.656 184.928 223.744 183.36L224.656 185.76C222.032 186.528 219.392 187.184 216.736 187.728V196.128H224.848V198.672H216.736V200.688C219.328 203.344 221.808 206.144 224.176 209.088L222.688 211.2C220.416 207.808 218.432 205.088 216.736 203.04V226.56H214.192V203.184C212.208 208.176 209.36 212.688 205.648 216.72L204.544 213.888C209.024 209.408 212.176 204.336 214 198.672H205.312V196.128ZM294.64 226.56C290.896 223.072 287.84 219.328 285.472 215.328C282.656 219.808 278.88 223.552 274.144 226.56L272.656 224.208C277.552 221.296 281.36 217.52 284.08 212.88C281.84 208.784 280.128 204.256 278.944 199.296C277.92 201.408 276.768 203.36 275.488 205.152L273.856 203.232C277.312 198.208 279.664 191.408 280.912 182.832L283.456 183.312C283.072 185.968 282.592 188.384 282.016 190.56H294.832V193.008H291.472C291.216 200.784 289.664 207.44 286.816 212.976C289.376 217.392 292.496 221.184 296.176 224.352L294.64 226.56ZM281.344 193.008L280.288 196.128C281.504 201.472 283.2 206.224 285.376 210.384C287.648 205.424 288.864 199.632 289.024 193.008H281.344ZM254.992 187.728H261.664V183.12H264.112V187.728H269.488V190.128H264.112V195.792H267.472C270.032 192.496 272.256 188.96 274.144 185.184L276.256 186.24C274.368 189.824 272.416 193.008 270.4 195.792H274.624V198.24H268.528C267.056 200 265.552 201.648 264.016 203.184H272.56V205.104C271.056 206.96 269.104 208.944 266.704 211.056V213.984C269.84 213.472 272.8 212.864 275.584 212.16V214.608C272.928 215.248 269.968 215.824 266.704 216.336V222.576C266.704 224.976 265.52 226.176 263.152 226.176H258.208L257.536 223.824C259.68 223.984 261.232 224.064 262.192 224.064C263.536 224.064 264.208 223.328 264.208 221.856V216.672C261.296 217.056 257.632 217.456 253.216 217.872L252.832 215.328C256.96 215.072 260.752 214.736 264.208 214.32V210.48C266.128 209.008 267.872 207.376 269.44 205.584H261.376C258.944 207.632 256.304 209.472 253.456 211.104L251.824 209.232C253.904 208.016 255.776 206.8 257.44 205.584H255.136V203.184H260.416C262.304 201.552 263.984 199.904 265.456 198.24H252.736V195.792H261.664V190.128H254.992V187.728ZM306.832 190.464H300.784V187.872H315.376V190.464H309.424V213.264C312.144 212.304 314.272 211.52 315.808 210.912V213.504C311.584 215.232 306.64 216.864 300.976 218.4L300.304 215.856C302.832 215.216 305.008 214.624 306.832 214.08V190.464ZM317.392 185.232H343.792V187.824H332.032C331.712 190.032 331.312 191.984 330.832 193.68H341.2V215.808H338.608V196.176H322.432V215.808H319.888V193.68H328.288C328.768 191.952 329.168 190 329.488 187.824H317.392V185.232ZM333.952 216.192C338.08 219.232 341.52 222.24 344.272 225.216L342.448 227.04C339.856 224.128 336.448 221.072 332.224 217.872L333.952 216.192ZM328.96 199.728H331.552V207.84C331.456 212.96 330.112 217.056 327.52 220.128C325.024 222.976 320.896 225.216 315.136 226.848L313.648 224.64C319.248 223.104 323.248 221.04 325.648 218.448C327.76 215.728 328.864 212.192 328.96 207.84V199.728ZM386.272 185.712V226.656H383.728V223.296H356.272V226.656H353.728V185.712H386.272ZM356.272 220.752H383.728V211.536H356.272V220.752ZM356.272 209.088H383.728V199.824H356.272V209.088ZM356.272 197.376H383.728V188.256H356.272V197.376Z" fill="white"/>
</svg>
