<svg width="1440" height="811" viewBox="0 0 1440 811" fill="none" xmlns="http://www.w3.org/2000/svg">
<path d="M1327.5 0.5H1197C1302 190.5 1280.07 429.5 1249 516C1201.06 649.5 1147 750 1102 811H1157.5L1157.59 810.875C1238.08 702.39 1344.51 558.937 1382 395.5C1407.84 282.82 1396 110.5 1327.5 0.5Z" fill="#D6DCFF"/>
<path d="M1252.5 0.5H1130.5C1237.5 160 1218.54 411 1202.5 500C1177 641.5 1128.5 750 1083.5 811H1128.5C1200.5 716.5 1291.5 548 1315.5 395.5C1333.47 281.299 1321 110.5 1252.5 0.5Z" fill="#FFADCB"/>
<mask id="mask0_435_3" style="mask-type:alpha" maskUnits="userSpaceOnUse" x="0" y="1" width="1440" height="810">
<rect y="1" width="1440" height="810" fill="#FF5685"/>
</mask>
<g mask="url(#mask0_435_3)">
<path d="M675.19 -80.3655C606.032 -22.0399 533.988 73.1317 427.651 156.857C321.313 240.583 33.5 226 87.7187 523.157C155.723 895.872 893.967 992.943 1000.3 919.982C1106.64 847.021 1240 622.581 1240 278.957C1240 -159.458 797.217 -183.278 675.19 -80.3655Z" fill="#FF5685"/>
</g>
</svg>
