<svg width="153" height="95" viewBox="0 0 153 95" fill="none" xmlns="http://www.w3.org/2000/svg">
<path d="M38.0087 72.8255C38.0743 75.3414 37.4209 77.8239 36.1252 79.9815C34.7909 82.1102 32.7833 83.7318 30.4215 84.5883C28.7271 85.2439 26.2056 85.5717 22.857 85.5717H13.9763C13.6132 85.5717 13.4316 85.4734 13.4316 85.2842C13.4316 85.0951 13.7645 84.9287 14.4453 84.9514C15.4892 84.9514 16.117 84.8001 16.3364 84.4143C16.4797 83.6848 16.528 82.9398 16.4801 82.1979V63.7103C16.5433 63.0561 16.4791 62.3959 16.291 61.7662C16.0489 61.335 15.4287 61.1308 14.4377 61.1535C13.9334 61.1535 13.6686 61.0324 13.6434 60.7904C13.6434 60.571 13.8098 60.4575 14.1503 60.4575H14.7781C16.2305 60.4575 17.6375 60.4575 18.9915 60.4953C20.9281 60.4953 22.4258 60.5332 23.5302 60.5332C27.9378 60.5332 31.3141 61.4409 33.6591 63.2564C36.5639 65.5257 38.0138 68.7154 38.0087 72.8255ZM31.7302 72.8255C31.7302 68.8264 31.1376 65.8989 29.9525 64.0431C28.7649 62.1822 26.9267 61.2594 24.3548 61.2594C23.7352 61.2044 23.1116 61.3032 22.5393 61.5468C22.1535 61.7889 21.9644 62.3638 21.9644 63.2564V81.9029C21.9644 83.499 22.0552 84.3841 22.2518 84.558C22.8327 84.8941 23.5071 85.0321 24.1732 84.9514C29.2112 84.9514 31.7302 80.917 31.7302 72.8482V72.8255Z" fill="white"/>
<path d="M53.4024 72.0994C53.4277 72.7318 53.2083 73.3495 52.7896 73.8242C52.5873 74.0441 52.3401 74.218 52.0647 74.3341C51.7893 74.4503 51.4923 74.506 51.1935 74.4974C49.8849 74.4974 49.2268 73.8922 49.2268 72.6819C49.2422 72.229 49.4101 71.7945 49.7033 71.4489C49.7634 71.3756 49.8003 71.2861 49.8092 71.1917C49.8092 70.9723 49.6579 70.8664 49.3478 70.8664C48.5308 70.8664 47.9105 71.5094 47.4794 72.7878C47.1595 74.5336 47.0402 76.3101 47.1238 78.083V83.9076C47.107 84.0439 47.1203 84.1822 47.1628 84.3128C47.2053 84.4434 47.2759 84.563 47.3697 84.6633C47.4635 84.7636 47.5781 84.842 47.7056 84.8932C47.833 84.9443 47.9701 84.9668 48.1072 84.9591C48.493 84.9591 48.9544 84.9591 49.484 84.9591C49.7487 84.9591 49.8849 85.0726 49.8849 85.2163C49.8849 85.36 49.7714 85.5038 49.5596 85.5038H40.0434C39.7787 85.5038 39.6425 85.4281 39.6425 85.2693C39.6425 85.1104 39.8089 85.0348 40.1493 85.0348C40.7663 85.0907 41.3871 84.9837 41.9497 84.7246C42.1539 84.5431 42.2599 84.006 42.2599 83.1134L42.222 73.3325C42.2749 72.7433 42.1539 72.1516 41.8741 71.6304C41.6721 71.4398 41.4345 71.2909 41.1749 71.1922C40.9153 71.0936 40.6388 71.0471 40.3612 71.0555C40.0041 71.0384 39.6481 71.0031 39.2946 70.9496C39.2038 70.9496 39.166 70.8513 39.166 70.7151C39.166 70.579 39.2643 70.5109 39.4534 70.5109H40.7999C42.8695 70.4773 44.9173 70.083 46.8515 69.346C46.9795 69.8938 47.0405 70.4552 47.0331 71.0177V72.5306C47.3387 71.5999 47.8567 70.7531 48.546 70.057C49.1352 69.5483 49.8934 69.2784 50.6716 69.3006C51.0405 69.2857 51.4087 69.345 51.7543 69.4749C52.0999 69.6049 52.416 69.8028 52.6837 70.057C52.9452 70.3245 53.145 70.6459 53.2692 70.9987C53.3933 71.3515 53.4388 71.7272 53.4024 72.0994Z" fill="white"/>
<path d="M60.5283 83.2873C60.541 83.6294 60.483 83.9706 60.3578 84.2893C60.2327 84.608 60.0432 84.8975 59.8011 85.1396C59.5589 85.3817 59.2695 85.5712 58.9508 85.6964C58.632 85.8215 58.2909 85.8795 57.9488 85.8668C57.5989 85.8739 57.2512 85.8106 56.9264 85.6807C56.6015 85.5507 56.3061 85.3568 56.0576 85.1103C55.8111 84.8746 55.6165 84.5901 55.4862 84.2748C55.356 83.9596 55.293 83.6207 55.3012 83.2797C55.2929 82.9294 55.3557 82.5811 55.4858 82.2557C55.6158 81.9304 55.8104 81.6347 56.0578 81.3866C56.3052 81.1385 56.6003 80.943 56.9253 80.8121C57.2503 80.6811 57.5985 80.6173 57.9488 80.6246C58.287 80.6203 58.6225 80.6852 58.9347 80.8152C59.2469 80.9453 59.5292 81.1379 59.7643 81.381C60.0153 81.6295 60.2127 81.9269 60.3441 82.2548C60.4756 82.5828 60.5382 82.9342 60.5283 83.2873Z" fill="white"/>
<path d="M81.4213 66.2217C81.4497 67.1838 81.2524 68.1393 80.8452 69.0115C80.438 69.8837 79.8322 70.6485 79.0763 71.2445C77.3073 72.5866 75.1215 73.2617 72.9037 73.1508C71.9814 73.1276 71.0616 73.0442 70.1502 72.9011V82.1903C70.0709 82.9844 70.1611 83.7863 70.415 84.5429C70.5965 84.7698 71.2698 84.9136 72.4347 84.959C73.0852 84.959 73.4105 85.0422 73.4105 85.2691C73.4105 85.496 73.2214 85.5792 72.8356 85.5792H63.2665C62.804 85.602 62.3403 85.5792 61.8822 85.5112C61.7612 85.4658 61.7007 85.3977 61.7007 85.3069C61.7007 85.1254 61.8973 85.0346 62.2831 85.0346C63.0075 85.098 63.7365 84.9865 64.4087 84.7093C64.6357 84.5126 64.7491 83.9529 64.7491 83.03V64.3457C64.8012 63.4063 64.7402 62.4641 64.5676 61.5392C64.4466 61.2215 63.8111 61.0627 62.7143 61.0627C62.0637 61.0627 61.7385 60.9643 61.7385 60.7752C61.7385 60.5861 62.0411 60.4424 62.6462 60.4424H73.0323C75.5538 60.4424 77.4525 60.8282 78.7284 61.5998C79.5524 62.0556 80.2378 62.7258 80.7119 63.5395C81.186 64.3532 81.4312 65.28 81.4213 66.2217ZM75.574 66.4183C75.574 62.8277 74.4468 61.0299 72.1926 61.0249C70.8386 61.0249 70.1653 61.6224 70.1653 62.8101V72.3565C70.8431 72.377 71.5214 72.339 72.1926 72.243C72.8623 72.1362 73.4901 71.8485 74.0081 71.4109C75.052 70.488 75.574 68.8239 75.574 66.4183Z" fill="white"/>
<path d="M95.8847 81.1089C95.787 81.8844 95.4664 82.6149 94.9618 83.2118C94.3827 84.083 93.5948 84.7954 92.67 85.2843C91.7451 85.7731 90.7127 86.0228 89.6667 86.0107C88.5544 86.0549 87.4447 85.8733 86.4046 85.4768C85.3645 85.0802 84.4156 84.477 83.6151 83.7035C82.8319 82.928 82.2179 81.9986 81.8117 80.974C81.4055 79.9494 81.2159 78.8517 81.2549 77.7502C81.2223 76.6596 81.406 75.5733 81.7955 74.5541C82.185 73.5349 82.7726 72.603 83.5243 71.8121C84.2561 71.0394 85.1418 70.4287 86.1242 70.0196C87.1067 69.6105 88.164 69.4119 89.2279 69.4369C90.6158 69.3956 91.9871 69.747 93.1842 70.4505C93.7717 70.8078 94.2827 71.2778 94.6878 71.8335C95.0928 72.3891 95.3839 73.0194 95.5443 73.6881C95.6555 74.2015 95.7289 74.7223 95.7637 75.2464C95.2039 75.3145 92.9724 75.3599 89.0464 75.3901C88.4412 75.3901 87.6772 75.3901 86.777 75.4658C86.6863 76.318 86.6409 77.0467 86.6409 77.6519C86.6409 80.4709 87.2359 82.473 88.4261 83.6581C88.7596 84.0007 89.1601 84.2708 89.6026 84.4517C90.0451 84.6326 90.5201 84.7204 90.998 84.7096C91.8891 84.6939 92.7503 84.3855 93.4489 83.8321C94.237 83.246 94.8578 82.4635 95.2493 81.5628C95.4384 81.1013 95.5973 80.8744 95.7183 80.8744C95.8393 80.8744 95.8847 80.9576 95.8847 81.1089ZM91.3082 74.7547C91.3969 73.4553 91.2613 72.1502 90.9073 70.8968C90.8115 70.5738 90.6107 70.292 90.3366 70.096C90.0626 69.9001 89.731 69.8012 89.3944 69.8151C87.9168 69.8151 87.0695 71.4616 86.8527 74.7547H91.3233H91.3082Z" fill="white"/>
<path d="M116.142 85.3141C116.142 85.5108 115.84 85.6091 115.235 85.6091H107.428C107.088 85.6091 106.921 85.5183 106.921 85.3368C106.921 85.1552 107.057 85.1023 107.345 85.1023H107.632C108.245 85.1023 108.608 85.0191 108.722 84.8602C108.876 84.3354 108.93 83.7862 108.881 83.2414V76.1913C108.881 73.5891 108.714 72.0333 108.381 71.524C108.206 71.295 107.975 71.1145 107.71 70.9993C107.445 70.8842 107.156 70.8383 106.868 70.8659C106.534 70.8529 106.2 70.9072 105.887 71.0254C105.574 71.1437 105.288 71.3235 105.045 71.5542C104.803 71.7743 104.611 72.0432 104.481 72.3431C104.35 72.643 104.285 72.9671 104.289 73.2941V84.2702C104.293 84.3812 104.324 84.4897 104.377 84.5869C104.431 84.6841 104.507 84.7674 104.599 84.8299C104.981 84.9487 105.38 85.0024 105.779 84.9888C105.968 84.9888 106.067 85.0644 106.067 85.2082C106.067 85.3519 105.983 85.4427 105.817 85.4654C105.65 85.4881 105.06 85.4654 104.001 85.4654C102.942 85.4654 102.095 85.4654 101.422 85.5032C100.091 85.5561 98.7365 85.5788 97.3522 85.5788C97.0647 85.5788 96.921 85.4956 96.921 85.3216C96.921 85.1477 97.2841 85.0342 98.0254 85.0342C98.7668 85.0342 99.1904 84.8905 99.3114 84.603L99.4249 84.0962V75.7752C99.4626 74.5569 99.4373 73.3373 99.3492 72.1216C99.2811 71.7585 98.9483 71.5769 98.3734 71.5769H97.1328C96.747 71.5769 96.5579 71.5013 96.5579 71.3424C96.5579 71.1836 96.7016 71.0928 96.9891 71.0701C99.2566 71.0699 101.485 70.4808 103.457 69.3605C103.581 69.2905 103.717 69.242 103.858 69.2168C104.047 69.2168 104.145 69.4135 104.145 69.7993V71.8644C104.705 71.079 105.447 70.4409 106.307 70.0049C107.167 69.5688 108.12 69.3477 109.085 69.3605C111.168 69.3605 112.522 70.0867 113.147 71.5391C113.423 72.1854 113.589 72.8731 113.639 73.574C113.699 74.3203 113.729 75.871 113.729 78.2261V83.5213C113.676 83.9708 113.739 84.4265 113.911 84.8451C114.032 84.9737 114.425 85.0418 115.091 85.0418C115.757 85.0418 116.142 85.125 116.142 85.3141Z" fill="white"/>
<path d="M135.81 85.3141C135.81 85.5108 135.5 85.6091 134.895 85.6091H127.141C126.801 85.6091 126.634 85.5183 126.634 85.3368C126.634 85.1552 126.778 85.1023 127.066 85.1023H127.345C127.966 85.1023 128.329 85.0191 128.435 84.8602C128.589 84.3354 128.643 83.7862 128.594 83.2414V76.1913C128.594 73.5891 128.427 72.0333 128.094 71.524C127.919 71.2945 127.688 71.1135 127.423 70.9983C127.159 70.8832 126.869 70.8376 126.581 70.8659C126.247 70.8529 125.913 70.9072 125.6 71.0254C125.287 71.1437 125.001 71.3235 124.758 71.5542C124.523 71.7777 124.338 72.0481 124.214 72.3478C124.09 72.6475 124.031 72.9699 124.04 73.2941V84.2702C124.047 84.3805 124.079 84.4878 124.133 84.5845C124.186 84.6812 124.26 84.765 124.35 84.8299C124.732 84.9487 125.131 85.0024 125.53 84.9888C125.727 84.9888 125.825 85.0644 125.825 85.2082C125.825 85.3519 125.734 85.4427 125.568 85.4654C125.401 85.4881 124.811 85.4654 123.752 85.4654C122.693 85.4654 121.854 85.4654 121.173 85.5032C119.841 85.5561 118.487 85.5788 117.111 85.5788C116.816 85.5788 116.672 85.4956 116.672 85.3216C116.672 85.1477 117.043 85.0342 117.784 85.0342C118.525 85.0342 118.949 84.8905 119.07 84.603L119.176 84.0962V75.7752C119.176 73.4403 119.153 72.2224 119.108 72.1216C119.032 71.7585 118.707 71.5769 118.124 71.5769H116.899C116.513 71.5769 116.316 71.5013 116.316 71.3424C116.316 71.1836 116.46 71.0928 116.748 71.0701C119.015 71.0699 121.244 70.4808 123.215 69.3605C123.34 69.2905 123.475 69.242 123.616 69.2168C123.813 69.2168 123.904 69.4135 123.904 69.7993V71.8644C124.464 71.0794 125.206 70.4417 126.066 70.0057C126.926 69.5697 127.879 69.3483 128.843 69.3605C130.926 69.3605 132.283 70.0867 132.913 71.5391C133.186 72.1858 133.35 72.8735 133.397 73.574C133.458 74.3203 133.488 75.871 133.488 78.2261V83.5213C133.431 83.9715 133.497 84.4287 133.677 84.8451C133.79 84.9737 134.184 85.0418 134.849 85.0418C135.515 85.0418 135.81 85.125 135.81 85.3141Z" fill="white"/>
<path d="M152.013 70.087C152.013 70.261 151.968 70.3593 151.87 70.3972C151.535 70.4508 151.195 70.4685 150.856 70.4501C150.464 70.4162 150.069 70.4546 149.691 70.5636L149.472 70.9645L149.04 72.2353C148.844 72.8102 148.405 73.9903 147.732 75.7528L146.136 80.2235C143.74 86.9256 142.19 90.9802 141.484 92.3872C140.616 94.127 139.504 94.9969 138.148 94.9969C137.806 95.0139 137.464 94.9616 137.143 94.8433C136.822 94.7251 136.528 94.5432 136.279 94.3086C136.041 94.0721 135.855 93.7884 135.732 93.4758C135.61 93.1632 135.554 92.8285 135.568 92.4931C135.568 91.3055 136.219 90.7154 137.527 90.7154C137.724 90.7067 137.92 90.7415 138.102 90.8174C138.284 90.8932 138.447 91.0082 138.579 91.1542C138.827 91.4647 139.036 91.8053 139.199 92.1678C139.273 92.2823 139.375 92.3759 139.496 92.4394C139.616 92.503 139.751 92.5345 139.887 92.5309C140.372 92.5309 140.841 92.1224 141.287 91.313C142.008 89.8318 142.62 88.2996 143.117 86.7289C142.928 86.3431 142.55 85.4808 141.998 84.1494C141.272 82.3138 140.301 79.9057 139.086 76.9253C138.798 76.1991 138.148 74.6131 137.134 72.1672C136.966 71.6003 136.665 71.0816 136.256 70.6543C135.73 70.4279 135.157 70.3294 134.585 70.3669C134.297 70.3669 134.154 70.2837 134.154 70.1097C134.154 69.9357 134.297 69.8601 134.585 69.8601H143.481C143.745 69.8601 143.881 69.9433 143.881 70.1097C143.881 70.2761 143.518 70.4274 142.792 70.4047C142.066 70.382 141.703 70.5333 141.703 70.8737C141.739 71.2631 141.838 71.6439 141.998 72.0008C142.263 72.6816 142.406 73.0826 142.429 73.196C143.619 76.4941 144.587 79.0005 145.334 80.7151C147.588 74.9812 148.715 71.7033 148.715 70.8813C148.715 70.6165 148.435 70.4804 147.876 70.4804C146.718 70.4804 146.136 70.3745 146.136 70.1551C146.136 69.9357 146.279 69.8298 146.567 69.8298C146.819 69.8135 147.071 69.8135 147.323 69.8298C147.785 69.8752 148.413 69.8979 149.214 69.8979L150.289 69.8449C150.901 69.8071 151.31 69.792 151.499 69.792H151.696C151.907 69.8147 152.013 69.8979 152.013 70.087Z" fill="white"/>
<path opacity="0.6" d="M35.5532 22.4816C31.544 17.8824 21.3168 11.8081 12.4209 11.8081C3.52506 11.8081 0 17.141 0 20.7039C0 24.2668 3.55532 33.1551 17.7917 38.4956C32.0281 43.8362 49.9258 48.4732 55.1528 54.5021C54.5704 48.0572 58.746 31.0975 58.746 23.9793C58.746 16.8611 57.7172 0.937852 47.6564 0.0528042C34.3807 -1.11969 33.6621 17.5722 35.5532 22.4816Z" fill="white"/>
<path opacity="0.6" d="M58.7158 23.9792C58.7158 23.9792 58.1106 12.2996 50.7731 8.65354C42.1268 4.34934 32.2551 12.988 35.644 22.542C40.7577 37.0658 50.236 44.5169 55.1605 54.5096C65.8113 37.9584 72.7555 34.3804 75.857 24.0171C78.4138 15.4919 74.102 10.4009 70.1382 10.7111C66.3711 11.0061 61.7719 13.7596 58.7158 23.9792Z" fill="white"/>
</svg>
