<svg width="80" height="80" viewBox="0 0 80 80" fill="none" xmlns="http://www.w3.org/2000/svg">
<path d="M7.81124 42.8817V37.0408H1.97459V42.8817H7.81124ZM9.74711 70.4004H21.4881V58.5252H9.74711V70.4004ZM42.957 17.5905H37.0816V23.412H42.957V17.5905ZM21.4978 9.73481H9.74711V21.6104H21.4881V9.73481H21.4978ZM56.5757 50.747H50.7488V56.5685H68.2683V50.747H62.4607V44.848H56.5855V50.747H56.5757ZM42.957 1.89853H37.0816V13.6384H42.957V1.89853ZM42.9279 46.8337H48.8032V41.0412H54.6496V35.0938H48.7742V40.9444H42.9279V46.8337ZM62.4607 66.3516V60.5206H56.5855V66.3423H62.4607V66.3516ZM68.3074 38.9974H62.4316V44.819H68.3074V38.9974ZM31.2159 0H0.00967922V31.1708H31.2159V0ZM27.3538 27.2962H3.9395V3.93268H27.3538V27.2962ZM72.1791 42.8719H78.0542V37.1667H72.1791V42.8719ZM72.1791 72.1734H68.3074V66.3808H62.4316V72.1734H56.5757V78.121H78.0542V72.3867H78.0641V60.4624H72.1884V72.1734H72.1791ZM72.1791 56.5298H78.0542V50.7083H72.1791V56.5298ZM70.2525 9.73481H58.5019V21.6104H70.2432V9.73481H70.2525ZM48.7936 0V31.1708H80V0H48.7936ZM76.0793 27.2962H52.6653V3.93268H76.0793V27.2962ZM42.957 60.4334H48.8032V54.7281H42.957V46.8434H37.0816V77.9753H42.9279V78.0528H48.8032V72.2317H42.957V60.4334ZM13.6769 42.9494H33.2002V37.0408H13.6769V42.9494ZM42.957 27.3253H37.0525V33.1468H42.957V27.3253ZM48.7742 72.1443H54.6496V66.3225H48.7742V72.1443ZM0 80H31.2062V48.8291H0V80ZM3.9395 52.7618H27.3538V76.1254H3.9395V52.7618Z" fill="#3B5AFA"/>
</svg>
