<svg width="322" height="58" viewBox="0 0 322 58" fill="none" preserveAspectRatio="none" xmlns="http://www.w3.org/2000/svg">
<path d="M118.344 3.27642C81.9922 3.27642 25.9666 5.70461 1 1.45528C1 1.45528 1.49975 25.5854 2.49821 37.4228C3.49666 49.2602 1 57 1 57H66.4126C78.8959 57 129.329 53.3577 148.803 55.1789C168.277 57 202.995 55.1789 212.218 55.1789C225.2 55.1789 267.644 57 276.632 57C283.822 57 308.418 56.107 320.069 55.5C320.573 46.5 319.312 33.531 320.573 23.7642C321.572 16.0244 320.573 5.5 320.069 1.5C301.76 1.5 281.925 1 255.161 1C221.705 1 163.783 3.27642 118.344 3.27642Z" fill="#FFEDF3" stroke="black"/>
</svg>
