<svg width="578" height="97" viewBox="0 0 578 97" fill="none" xmlns="http://www.w3.org/2000/svg">
<path d="M67.5 15.7197C112.184 9.21225 426.174 -6.63472 558.225 17.2382C573.201 32.441 572.616 60.7193 559.5 71.7201C544 84.7201 235.999 85.2202 160.999 86.2202C85.9995 87.2202 40.589 78.547 29 65.2197C19 53.7197 16 23.2197 67.5 15.7197Z" fill="#FF5685"/>
<path d="M577 21.2199C459 -8.28033 114.47 8.87939 67.5 15.7197C16 23.2197 19 53.7197 29 65.2197C40.5889 78.547 85.9995 87.2202 160.999 86.2202C235.999 85.2202 544 84.7201 559.5 71.7201C575 58.7201 573 21.5921 548.5 10.4273C509 -7.57275 137.922 5.40672 91.5 7.22003C27.5004 9.71997 0.999794 30.3812 1 49.2201C1.00034 80.7201 52.5 95.7201 125 95.7201C177.693 95.7201 487 74.7202 553.5 86.2202" stroke="#FF5685"/>
<path d="M72.112 39.688V42.856H82.084V39.688H72.112ZM72.112 45.592V48.652H82.084V45.592H72.112ZM72.112 51.604V54.808H82.084V51.604H72.112ZM87.7 47.536V51.172H101.272V47.536H87.7ZM73.876 33.784V37.024H79.564V33.784H73.876ZM85 32.272V35.8H98.356V32.272H85ZM85 54.412V58.156H101.956V54.412H85ZM91.732 44.296V64.132H95.836V44.296H91.732ZM76 41.344V52.792H78.88V41.344H76ZM97.204 32.272V32.776C97.06 37.996 96.844 39.94 96.448 40.408C96.196 40.732 95.908 40.804 95.44 40.804C94.972 40.804 94.036 40.768 92.884 40.66C93.424 41.596 93.784 43.036 93.856 44.116C95.296 44.188 96.7 44.152 97.492 44.044C98.428 43.9 99.112 43.612 99.688 42.856C100.48 41.92 100.804 39.436 100.984 33.64C101.02 33.172 101.056 32.272 101.056 32.272H97.204ZM86.98 44.548C86.476 47.428 85.504 50.38 84.1 52.288C84.964 52.684 86.548 53.476 87.268 53.98C88.672 51.856 89.86 48.544 90.508 45.232L86.98 44.548ZM73.012 30.4C72.04 34.684 70.132 38.896 67.684 41.56C68.548 42.136 70.096 43.432 70.744 44.116C73.336 41.056 75.568 36.196 76.864 31.228L73.012 30.4ZM70.528 39.688V49.228C70.528 53.296 70.312 58.66 67.864 62.404C68.692 62.764 70.24 63.736 70.888 64.312C73.516 60.244 73.984 53.836 73.984 49.228V39.688H70.528ZM80.932 39.688V60.028C80.932 60.46 80.752 60.604 80.32 60.604C79.888 60.64 78.448 60.64 77.044 60.568C77.548 61.54 78.124 63.196 78.268 64.204C80.464 64.204 81.94 64.132 83.056 63.52C84.136 62.872 84.46 61.792 84.46 60.1V39.688H80.932ZM89.32 33.46C88.96 37.348 88.204 40.408 83.884 42.172C84.748 42.82 85.72 44.224 86.152 45.124C91.516 42.748 92.74 38.716 93.172 33.46H89.32ZM78.556 33.784V34.432C78.124 36.124 77.224 38.788 76.432 40.444C77.188 40.84 78.376 41.56 79.06 42.064C80.176 40.264 81.58 37.42 82.372 35.152L79.924 33.604L79.384 33.784H78.556ZM104.332 33.892C106.348 36.412 108.868 39.796 109.912 41.956L113.62 39.544C112.432 37.42 109.768 34.18 107.752 31.84L104.332 33.892ZM103.864 60.028L107.608 62.62C109.588 58.948 111.64 54.664 113.332 50.668L110.056 48.04C108.148 52.432 105.628 57.148 103.864 60.028ZM115.852 35.764V39.868H130.756V48.508H134.896V35.764H115.852ZM114.232 46.564V50.704H137.884V46.564H114.232ZM128.056 47.932L124.132 48.688C126.04 56.104 129.244 61.468 135.508 64.132C136.156 62.98 137.416 61.216 138.388 60.352C132.772 58.372 129.568 53.764 128.056 47.932ZM122.368 30.436V42.964C122.368 49.048 121.792 56.428 111.964 60.82C113.044 61.648 114.52 63.376 115.168 64.312C125.248 58.948 126.94 50.344 126.94 43V30.436H122.368ZM141.664 39.112V64.204H145.948V39.112H141.664ZM141.916 32.74C143.68 34.72 146.128 37.42 147.28 39.076L150.592 36.7C149.368 35.116 146.812 32.488 145.048 30.688L141.916 32.74ZM151.456 32.236V36.232H171.04V32.236H151.456ZM168.016 32.236V59.02C168.016 59.632 167.8 59.884 167.152 59.884C166.54 59.884 164.308 59.92 162.472 59.776C163.012 60.928 163.66 62.836 163.804 64.06C166.864 64.06 168.988 63.988 170.428 63.304C171.832 62.584 172.336 61.432 172.336 59.056V32.236H168.016ZM152.212 41.524V45.376H159.448V51.424H152.212V55.276H163.624V41.524H152.212ZM150.052 41.524V57.292H153.94V41.524H150.052ZM182.056 39.148H187.348V40.876H182.056V39.148ZM182.056 34.72H187.348V36.412H182.056V34.72ZM178.24 31.84V43.792H191.344V31.84H178.24ZM176.548 45.844V49.012H192.892V45.844H176.548ZM192.784 31.912V35.296H209.704V31.912H192.784ZM183.316 46.852V59.272L186.952 61.324V46.852H183.316ZM185.152 51.928V55.024H192.136V51.928H185.152ZM199.588 32.74C199.228 34.396 198.472 36.772 197.824 38.356L201.208 39.256C201.964 37.852 202.936 35.728 203.908 33.64L199.588 32.74ZM181.12 53.44L178.564 54.196C181.084 62.332 185.98 63.556 194.836 63.556H208.696C208.876 62.476 209.524 60.82 210.1 59.992C207.148 60.136 197.284 60.136 194.872 60.136C187.564 60.1 183.1 59.488 181.12 53.44ZM193.936 37.888V53.008H197.428V40.948H204.7V52.756H208.336V37.888H193.936ZM178.348 50.272C178.276 55.168 177.808 59.488 175.684 62.224C176.512 62.656 178.06 63.7 178.672 64.24C180.94 61.036 181.66 56.248 181.876 50.488L178.348 50.272ZM199.444 42.424C199.264 50.956 198.832 54.952 191.344 57.112C192.064 57.76 192.964 59.092 193.288 59.92C201.856 57.292 202.792 52.144 203.008 42.424H199.444ZM201.28 54.952C203.332 56.464 206.032 58.66 207.364 60.064L209.848 57.4C208.444 56.068 205.636 53.98 203.656 52.612L201.28 54.952ZM229 42.46C230.872 42.46 232.42 41.02 232.42 39.076C232.42 37.096 230.872 35.656 229 35.656C227.092 35.656 225.544 37.096 225.544 39.076C225.544 41.02 227.092 42.46 229 42.46ZM229 59.632C230.872 59.632 232.42 58.192 232.42 56.248C232.42 54.268 230.872 52.828 229 52.828C227.092 52.828 225.544 54.268 225.544 56.248C225.544 58.192 227.092 59.632 229 59.632ZM261.616 32.092V61.432L266.008 60.424V32.092H261.616ZM263.56 32.092V35.872H275.188V45.376H263.56V49.12H279.58V32.092H263.56ZM263.56 38.788V42.388H277.024V38.788H263.56ZM258.484 59.632L259.564 63.7C263.128 63.124 267.808 62.332 272.164 61.54L271.876 57.688C267.016 58.444 261.904 59.2 258.484 59.632ZM272.416 47.464L268.672 48.112C270.4 55.78 273.352 61.468 279.436 64.24C280.048 63.052 281.344 61.324 282.28 60.496C276.808 58.408 273.784 53.548 272.416 47.464ZM278.392 49.876C276.844 51.496 274.216 53.584 272.344 54.772L275.08 57.04C276.988 55.888 279.508 54.052 281.452 52.252L278.392 49.876ZM256.72 38.068C254.56 41.632 250.924 45.232 247.612 47.536C248.296 48.472 249.484 50.704 249.88 51.64C253.66 48.724 257.908 44.044 260.572 39.616L256.72 38.068ZM255.604 30.472C254.056 32.884 250.816 35.872 247.972 37.636C248.62 38.536 249.664 40.3 250.096 41.272C253.552 39.076 257.26 35.476 259.708 32.128L255.604 30.472ZM253.048 46.42V64.24H257.26V42.532L257.044 42.424L253.048 46.42ZM291.64 39.364C293.836 40.516 296.644 42.316 297.94 43.576L301 40.912C299.596 39.652 296.716 37.996 294.556 36.952L291.64 39.364ZM307.876 33.136V33.748C304.312 40.48 294.592 44.8 284.872 46.348C285.628 47.284 286.492 48.976 286.852 50.056C297.328 47.932 307.516 43.252 312.196 34.576L309.388 32.956L308.704 33.136H307.876ZM296.5 33.136V36.664H308.848V33.136H296.5ZM298.48 30.328C296.032 33.28 291.568 36.304 285.16 38.392C286.096 39.076 287.428 40.552 288.04 41.56C294.772 38.896 299.524 35.512 303.196 31.336L298.48 30.328ZM296.536 53.008C298.768 54.304 301.576 56.32 302.836 57.688L306.184 55.024C304.744 53.62 301.864 51.784 299.668 50.596L296.536 53.008ZM312.412 46.276V46.888C309.064 55.384 299.308 59.164 287.896 60.352C288.616 61.324 289.408 63.088 289.732 64.276C302.116 62.548 312.52 58.3 316.912 47.572L314.032 46.096L313.276 46.276H312.412ZM301.828 46.276V49.876H313.564V46.276H301.828ZM304.348 42.784C301.576 46.204 296.428 49.66 288.904 51.928C289.804 52.684 291.028 54.268 291.532 55.276C299.488 52.396 305.032 48.58 309.064 43.864L304.348 42.784ZM327.928 30.292C326.38 34.972 323.572 39.58 320.332 42.388C321.376 43 323.212 44.44 324.04 45.196C327.244 41.956 330.412 36.772 332.32 31.408L327.928 30.292ZM328.684 34.396L326.596 38.572H351.58V34.396H328.684ZM326.128 42.892V54.484H330.484V46.924H350.752V42.892H326.128ZM320.44 52.36V56.536H353.56V52.36H320.44ZM336.712 36.556V64.24H341.176V36.556H336.712ZM360.148 36.268V40.048H367.276V56.716H360.148V60.532H371.2V36.268H360.148ZM357.628 36.268V63.196H361.552V36.268H357.628ZM359.968 45.88V49.624H369.184V45.88H359.968ZM362.74 30.4C362.56 32.38 362.056 35.152 361.552 37.024L365.008 37.78C365.728 36.088 366.628 33.532 367.456 31.084L362.74 30.4ZM375.952 36.016V39.94H386.464V36.016H375.952ZM384.988 36.016V36.844C384.592 51.856 384.124 58.048 382.972 59.272C382.504 59.776 382.108 59.92 381.388 59.92C380.488 59.92 378.328 59.884 375.988 59.704C376.78 60.856 377.356 62.692 377.428 63.88C379.516 63.988 381.712 64.024 383.08 63.808C384.556 63.592 385.564 63.196 386.572 61.792C388.048 59.884 388.48 54.16 388.948 37.96C388.984 37.42 388.984 36.016 388.984 36.016H384.988ZM376.06 30.436C374.908 35.224 372.856 40.12 370.444 43.144C371.452 43.72 373.216 44.944 374.008 45.664C376.456 42.208 378.796 36.736 380.2 31.408L376.06 30.436ZM374.296 46.384C376.024 49.048 378.292 52.576 379.264 54.772L382.936 52.54C381.82 50.416 379.444 46.96 377.68 44.476L374.296 46.384ZM394.42 32.056V35.764H423.796V32.056H394.42ZM393.052 45.88V49.66H424.876V45.88H393.052ZM403.276 34.432V46.744H407.38V34.432H403.276ZM410.404 34.432V46.708H414.508V34.432H410.404ZM395.86 38.284C396.868 40.228 397.804 42.856 398.128 44.548L402.016 43.18C401.656 41.488 400.684 38.968 399.568 37.06L395.86 38.284ZM418.144 36.952C417.568 38.968 416.452 41.704 415.48 43.468L418.972 44.62C420.052 43 421.42 40.516 422.68 38.176L418.144 36.952ZM400.144 52.396V58.588C400.144 62.476 401.44 63.664 406.444 63.664C407.488 63.664 412.348 63.664 413.428 63.664C417.496 63.664 418.756 62.368 419.224 57.22C418.108 56.968 416.272 56.32 415.372 55.636C415.156 59.308 414.868 59.848 413.104 59.848C411.88 59.848 407.812 59.848 406.876 59.848C404.752 59.848 404.392 59.668 404.392 58.516V52.396H400.144ZM405.112 50.92C407.092 53.008 409.36 55.996 410.26 57.94L413.968 55.816C412.924 53.836 410.512 51.028 408.496 49.012L405.112 50.92ZM417.28 52.36C419.08 55.456 420.916 59.632 421.564 62.224L425.632 60.676C424.876 58.048 422.824 54.052 421.024 51.028L417.28 52.36ZM395.68 52.036C395.032 55.24 393.772 58.804 392.26 61.216L396.148 63.232C397.696 60.568 398.776 56.572 399.532 53.296L395.68 52.036ZM432.328 30.436V64.24H436.684V30.436H432.328ZM429.304 37.348C429.052 40.336 428.44 44.368 427.54 46.816L430.744 47.932C431.608 45.196 432.22 40.912 432.4 37.78L429.304 37.348ZM435.82 37.636C436.756 39.58 437.728 42.1 438.052 43.684L441.148 42.208C440.788 40.696 439.744 38.248 438.736 36.376L435.82 37.636ZM442.66 32.092C442.084 36.916 440.896 41.812 438.988 44.836C440.032 45.268 441.976 46.204 442.84 46.816C444.712 43.432 446.116 38.104 446.836 32.74L442.66 32.092ZM443.92 37.708L442.696 41.812H460.552V37.708H443.92ZM448.852 30.652V61.36H453.172V30.652H448.852ZM441.868 47.716V51.748H459.796V47.716H441.868ZM439.168 58.984V63.088H461.668V58.984H439.168ZM493.564 30.832C489.676 32.02 483.124 33.064 477.4 33.712C477.796 34.504 478.3 35.908 478.444 36.736C484.42 36.232 491.404 35.224 496.48 33.784L493.564 30.832ZM475.888 32.74V44.152C475.888 49.3 475.672 56.32 473.044 61.432C474.088 61.864 475.672 63.232 476.32 64.096C479.488 58.264 479.92 49.696 479.92 44.188V34.576C480.532 34.504 480.784 34.288 480.82 33.964L475.888 32.74ZM477.904 38.788V42.388H497.848V38.788H477.904ZM483.124 50.452V53.332H494.248V50.452H483.124ZM483.124 60.1V63.016H494.176V60.1H483.124ZM483.124 55.24V58.156H494.248V55.24H483.124ZM486.652 35.008C486.652 38.896 486.508 43.828 486.22 46.96L490 47.032C490.396 43.936 490.72 39.076 490.864 35.152L486.652 35.008ZM481.252 45.088V64.276H485.068V48.508H492.448V64.06H496.444V45.088H481.252ZM471.604 38.176C469.732 41.74 466.6 45.232 463.54 47.464C464.26 48.4 465.412 50.56 465.808 51.496C469.336 48.58 473.08 43.972 475.42 39.58L471.604 38.176ZM470.956 30.436C469.48 32.812 466.456 35.836 463.864 37.636C464.548 38.428 465.592 39.94 466.132 40.804C469.156 38.572 472.54 35.08 474.772 31.948L470.956 30.436ZM468.652 45.988V64.24H472.684V42.46L472.324 42.316L468.652 45.988ZM500.692 42.856V46.852H510.844V42.856H500.692ZM500.188 32.56V36.484H511.636V32.56H500.188ZM499.828 56.428L500.836 60.46C504.04 59.416 508.108 58.12 511.852 56.824L511.204 53.008C507.1 54.304 502.78 55.672 499.828 56.428ZM503.968 34.936V56.392L507.964 55.348V34.936H503.968ZM512.968 32.38V36.52H533.416V32.38H512.968ZM521.896 34.684C519.736 41.236 515.884 47.428 511.42 51.172C512.392 51.964 514.084 53.728 514.804 54.592C519.376 50.236 523.66 43.18 526.252 35.872L521.896 34.684ZM523.3 44.116C525.784 47.176 528.88 51.352 530.176 53.98L533.74 51.316C532.3 48.724 529.06 44.728 526.612 41.812L523.3 44.116ZM520.06 41.416V64.204H524.344V39.832L520.06 41.416Z" fill="white"/>
</svg>
