<svg width="322" height="58" viewBox="0 0 322 58" fill="none" preserveAspectRatio="none" xmlns="http://www.w3.org/2000/svg">
<path d="M117.674 2.79243C81.2021 2.79243 29.0898 4.53153 1.4451 2.00901C1.4451 2.00901 0.443511 25.3024 1.44527 37.2464C2.44702 49.1904 1.44527 54.4775 1.44527 54.4775C19.1467 54.4775 55.5513 57 65.571 57C78.0956 57 128.695 53.3249 148.233 55.1625C167.772 57 202.605 55.1625 211.858 55.1625C224.884 55.1625 267.467 57 276.485 57C283.699 57 308.376 56.099 320.066 55.4865C320.571 46.4054 319.306 33.3195 320.571 23.4648C321.574 15.6552 320.571 5.03604 320.066 1C301.697 1 281.085 2.51351 254.232 2.51351C220.666 2.51351 163.263 2.79243 117.674 2.79243Z" fill="#E2EEFF" stroke="black"/>
</svg>
