<svg width="1000" height="240" viewBox="0 0 1000 240" fill="none" xmlns="http://www.w3.org/2000/svg">
<path d="M372.895 2.70499C256.389 9.71902 76.318 5.6275 0.845497 2.70499C1.39515 26.0851 -3.22162 69.1435 4.692 122.528C12.6056 175.913 4.14284 215.237 0.845497 239.429C41.513 233.584 214.953 239.429 282.219 239.429C366.301 239.429 661.963 235.045 735.603 239.429C794.516 242.936 910.362 228.713 997.742 239.429C993.712 220.108 992.796 154.384 992.796 116.196C992.796 78.0085 1004.89 41.1848 997.742 2.70499C949.747 6.76404 879.257 14.2976 774.621 11.9596C643.827 9.03711 518.528 -6.06256 372.895 2.70499Z" fill="#F2F4FF"/>
</svg>
